M48
; DRILL file {KiCad 6.0.7+dfsg-1build1} date Fri 07 Apr 2023 12:24:34 PM PDT
; FORMAT={-:-/ absolute / metric / decimal}
; #@! TF.CreationDate,2023-04-07T12:24:34-07:00
; #@! TF.GenerationSoftware,Kicad,Pcbnew,6.0.7+dfsg-1build1
; #@! TF.FileFunction,Plated,1,2,PTH
FMAT,2
METRIC
; #@! TA.AperFunction,Plated,PTH,ComponentDrill
T1C0.300
; #@! TA.AperFunction,Plated,PTH,ViaDrill
T2C0.400
; #@! TA.AperFunction,Plated,PTH,ComponentDrill
T3C1.000
%
G90
G05
T1
X41.511Y-91.409
X41.511Y-92.709
X41.511Y-94.009
X42.811Y-91.409
X42.811Y-92.709
X42.811Y-94.009
X44.111Y-91.409
X44.111Y-92.709
X44.111Y-94.009
X45.411Y-91.409
X45.411Y-92.709
X45.411Y-94.009
X46.31Y-40.692
X46.31Y-41.992
X46.31Y-43.292
X46.31Y-44.592
X46.31Y-45.892
X46.31Y-47.192
X46.711Y-91.409
X46.711Y-92.709
X46.711Y-94.009
X47.61Y-40.692
X47.61Y-41.992
X47.61Y-43.292
X47.61Y-44.592
X47.61Y-45.892
X47.61Y-47.192
X48.011Y-91.409
X48.011Y-92.709
X48.011Y-94.009
X48.91Y-40.692
X48.91Y-41.992
X48.91Y-43.292
X48.91Y-44.592
X48.91Y-45.892
X48.91Y-47.192
X91.183Y-92.308
X91.183Y-93.608
X91.183Y-94.908
X91.183Y-96.208
X91.183Y-97.508
X91.183Y-98.808
X92.127Y-46.741
X92.127Y-48.041
X92.127Y-49.341
X92.483Y-92.308
X92.483Y-93.608
X92.483Y-94.908
X92.483Y-96.208
X92.483Y-97.508
X92.483Y-98.808
X93.427Y-46.741
X93.427Y-48.041
X93.427Y-49.341
X93.783Y-92.308
X93.783Y-93.608
X93.783Y-94.908
X93.783Y-96.208
X93.783Y-97.508
X93.783Y-98.808
X94.727Y-46.741
X94.727Y-48.041
X94.727Y-49.341
X96.027Y-46.741
X96.027Y-48.041
X96.027Y-49.341
X97.327Y-46.741
X97.327Y-48.041
X97.327Y-49.341
X98.627Y-46.741
X98.627Y-48.041
X98.627Y-49.341
T2
X31.094Y-47.791
X31.094Y-49.315
X31.094Y-50.839
X31.094Y-52.363
X31.094Y-55.411
X31.094Y-56.808
X31.094Y-58.332
X34.523Y-44.743
X34.995Y-36.998
X38.069Y-105.415
X38.333Y-46.267
X38.45Y-88.651
X38.46Y-41.695
X39.466Y-95.509
X39.794Y-89.794
X41.109Y-41.713
X41.447Y-97.28
X42.514Y-101.859
X42.532Y-99.21
X43.039Y-40.628
X43.403Y-82.301
X44.81Y-38.647
X45.16Y-88.016
X45.435Y-82.301
X45.562Y-105.796
X46.957Y-88.026
X47.086Y-82.301
X47.086Y-101.986
X48.61Y-109.225
X48.61Y-87.995
X48.737Y-82.301
X49.626Y-80.904
X50.134Y-109.225
X50.525Y-38.975
X51.658Y-109.225
X51.668Y-37.631
X52.293Y-46.138
X52.303Y-44.341
X52.324Y-47.791
X53.182Y-109.225
X54.299Y-101.133
X54.299Y-103.673
X56.23Y-109.225
X57.627Y-109.225
X58.018Y-42.584
X58.018Y-44.616
X58.018Y-46.267
X58.018Y-47.918
X59.151Y-109.225
X59.415Y-48.807
X72.206Y-86.147
X75.0Y-49.825
X75.0Y-53.0
X80.678Y-90.693
X80.987Y-31.525
X82.075Y-91.582
X82.075Y-93.233
X82.075Y-94.884
X82.075Y-96.916
X82.511Y-31.525
X83.908Y-31.525
X86.956Y-31.525
X87.769Y-91.709
X87.79Y-95.158
X87.8Y-93.362
X88.425Y-101.869
X88.48Y-31.525
X89.568Y-100.524
X90.004Y-31.525
X90.512Y-59.846
X91.383Y-105.959
X91.401Y-58.449
X91.527Y-52.755
X91.528Y-31.525
X93.052Y-38.764
X93.052Y-58.449
X93.181Y-52.724
X94.576Y-34.954
X94.703Y-58.449
X94.977Y-52.734
X95.283Y-100.853
X96.735Y-58.449
X97.054Y-98.872
X97.606Y-41.54
X97.624Y-38.891
X98.691Y-43.47
X98.984Y-97.787
X100.343Y-50.956
X100.672Y-45.241
X101.633Y-97.805
X101.688Y-52.099
X101.76Y-93.233
X102.432Y-35.347
X105.226Y-104.816
X105.57Y-94.757
X108.999Y-81.168
X108.999Y-82.692
X108.999Y-84.089
X108.999Y-87.137
X108.999Y-88.661
X108.999Y-90.185
X108.999Y-91.709
X109.036Y-97.704
X110.814Y-97.45
T3
X88.144Y-113.085
X88.144Y-115.625
X90.684Y-113.085
X90.684Y-115.625
X93.224Y-113.085
X93.224Y-115.625
X95.764Y-113.085
X95.764Y-115.625
X101.514Y-115.637
X104.054Y-115.637
T0
M30
