G04 #@! TF.GenerationSoftware,KiCad,Pcbnew,6.0.7+dfsg-1build1*
G04 #@! TF.CreationDate,2023-04-07T12:23:54-07:00*
G04 #@! TF.ProjectId,Quad_Motor_Driver,51756164-5f4d-46f7-946f-725f44726976,rev?*
G04 #@! TF.SameCoordinates,Original*
G04 #@! TF.FileFunction,Copper,L2,Bot*
G04 #@! TF.FilePolarity,Positive*
%FSLAX46Y46*%
G04 Gerber Fmt 4.6, Leading zero omitted, Abs format (unit mm)*
G04 Created by KiCad (PCBNEW 6.0.7+dfsg-1build1) date 2023-04-07 12:23:54*
%MOMM*%
%LPD*%
G01*
G04 APERTURE LIST*
G04 #@! TA.AperFunction,ComponentPad*
%ADD10C,0.600000*%
G04 #@! TD*
G04 #@! TA.AperFunction,SMDPad,CuDef*
%ADD11R,3.200000X7.100000*%
G04 #@! TD*
G04 #@! TA.AperFunction,ComponentPad*
%ADD12R,1.700000X1.700000*%
G04 #@! TD*
G04 #@! TA.AperFunction,ComponentPad*
%ADD13O,1.700000X1.700000*%
G04 #@! TD*
G04 #@! TA.AperFunction,SMDPad,CuDef*
%ADD14R,7.100000X3.200000*%
G04 #@! TD*
G04 #@! TA.AperFunction,ViaPad*
%ADD15C,0.800000*%
G04 #@! TD*
G04 #@! TA.AperFunction,Conductor*
%ADD16C,0.250000*%
G04 #@! TD*
G04 APERTURE END LIST*
D10*
X48910000Y-47192000D03*
X47610000Y-40692000D03*
X48910000Y-45892000D03*
X47610000Y-45892000D03*
X47610000Y-44592000D03*
X47610000Y-41992000D03*
X48910000Y-44592000D03*
X46310000Y-43292000D03*
D11*
X47610000Y-43942000D03*
D10*
X48910000Y-43292000D03*
X46310000Y-45892000D03*
X46310000Y-44592000D03*
X48910000Y-40692000D03*
X46310000Y-47192000D03*
X46310000Y-40692000D03*
X47610000Y-47192000D03*
X48910000Y-41992000D03*
X46310000Y-41992000D03*
X47610000Y-43292000D03*
D12*
X88144000Y-113085000D03*
D13*
X88144000Y-115625000D03*
X90684000Y-113085000D03*
X90684000Y-115625000D03*
X93224000Y-113085000D03*
X93224000Y-115625000D03*
X95764000Y-113085000D03*
X95764000Y-115625000D03*
D12*
X101513677Y-115636684D03*
D13*
X104053677Y-115636684D03*
D10*
X92127000Y-46741000D03*
X94727000Y-46741000D03*
X98627000Y-48041000D03*
X93427000Y-49341000D03*
X97327000Y-46741000D03*
X96027000Y-48041000D03*
X97327000Y-49341000D03*
X94727000Y-48041000D03*
X93427000Y-46741000D03*
X92127000Y-49341000D03*
D14*
X95377000Y-48041000D03*
D10*
X97327000Y-48041000D03*
X93427000Y-48041000D03*
X96027000Y-46741000D03*
X94727000Y-49341000D03*
X98627000Y-49341000D03*
X98627000Y-46741000D03*
X92127000Y-48041000D03*
X96027000Y-49341000D03*
X44111000Y-94009000D03*
X46711000Y-91409000D03*
X44111000Y-91409000D03*
X46711000Y-94009000D03*
X42811000Y-94009000D03*
X42811000Y-91409000D03*
X42811000Y-92709000D03*
X48011000Y-92709000D03*
X45411000Y-92709000D03*
X41511000Y-92709000D03*
X46711000Y-92709000D03*
X45411000Y-94009000D03*
D14*
X44761000Y-92709000D03*
D10*
X44111000Y-92709000D03*
X48011000Y-94009000D03*
X41511000Y-94009000D03*
X41511000Y-91409000D03*
X45411000Y-91409000D03*
X48011000Y-91409000D03*
X91183000Y-93608000D03*
X93783000Y-98808000D03*
X93783000Y-94908000D03*
X93783000Y-93608000D03*
D11*
X92483000Y-95558000D03*
D10*
X92483000Y-98808000D03*
X91183000Y-94908000D03*
X92483000Y-94908000D03*
X91183000Y-92308000D03*
X92483000Y-93608000D03*
X92483000Y-97508000D03*
X92483000Y-96208000D03*
X91183000Y-96208000D03*
X91183000Y-97508000D03*
X93783000Y-97508000D03*
X93783000Y-92308000D03*
X92483000Y-92308000D03*
X93783000Y-96208000D03*
X91183000Y-98808000D03*
D15*
X42514000Y-101859000D03*
X48737000Y-82301000D03*
X45562000Y-105796000D03*
X45435000Y-82301000D03*
X47086000Y-82301000D03*
X43403000Y-82301000D03*
X49626000Y-80904000D03*
X100343500Y-50956000D03*
X42531549Y-99209549D03*
X31094000Y-52363000D03*
X59415000Y-48807000D03*
X86956000Y-31525000D03*
X50525000Y-38975500D03*
X38069000Y-105415000D03*
X39794500Y-89794000D03*
X41109451Y-41712549D03*
X53182000Y-109225000D03*
X108999000Y-87137000D03*
X34995000Y-36998000D03*
X90512000Y-59846000D03*
X80678000Y-90693000D03*
X98983549Y-97787451D03*
X93052000Y-38764000D03*
X89568000Y-100524500D03*
X101760000Y-93233000D03*
X38333000Y-46267000D03*
X47086000Y-101986000D03*
X105226000Y-104816000D03*
X102432000Y-35347000D03*
X97606451Y-41540451D03*
X54299000Y-103673000D03*
X54299000Y-101133000D03*
X109036000Y-97704000D03*
X110814000Y-97450000D03*
X75000000Y-49825000D03*
X75000000Y-53000000D03*
X72206000Y-86147000D03*
X91383000Y-105959000D03*
X101633000Y-97805000D03*
X82075000Y-93233000D03*
X82075000Y-96916000D03*
X82075000Y-94884000D03*
X105570000Y-94757000D03*
X82075000Y-91582000D03*
X91401000Y-58449000D03*
X93052000Y-58449000D03*
X94703000Y-58449000D03*
X94576000Y-34954000D03*
X96735000Y-58449000D03*
X97624000Y-38891000D03*
X58018000Y-46267000D03*
X34523000Y-44743000D03*
X58018000Y-42584000D03*
X58018000Y-44616000D03*
X58018000Y-47918000D03*
X38460000Y-41695000D03*
X48610000Y-109225000D03*
X38450000Y-88651000D03*
X50134000Y-109225000D03*
X39466000Y-95509000D03*
X51658000Y-109225000D03*
X41447367Y-97280008D03*
X45160500Y-88016000D03*
X56230000Y-109225000D03*
X46957053Y-88026305D03*
X57627000Y-109225000D03*
X59151000Y-109225000D03*
X48610500Y-87995238D03*
X88425000Y-101869000D03*
X108999000Y-91709000D03*
X95283000Y-100853000D03*
X108999000Y-90185000D03*
X97054008Y-98871633D03*
X108999000Y-88661000D03*
X108999000Y-84089000D03*
X87790000Y-95158500D03*
X87800305Y-93361947D03*
X108999000Y-82692000D03*
X87769238Y-91708500D03*
X108999000Y-81168000D03*
X101688000Y-52099000D03*
X91528000Y-31525000D03*
X100672000Y-45241000D03*
X90004000Y-31525000D03*
X88480000Y-31525000D03*
X98690633Y-43469992D03*
X83908000Y-31525000D03*
X94977500Y-52734000D03*
X93180947Y-52723695D03*
X82511000Y-31525000D03*
X80987000Y-31525000D03*
X91527500Y-52754762D03*
X31094000Y-47791000D03*
X51668000Y-37631000D03*
X31094000Y-49315000D03*
X44810000Y-38647000D03*
X43038992Y-40628367D03*
X31094000Y-50839000D03*
X52303000Y-44341500D03*
X31094000Y-55411000D03*
X31094000Y-56808000D03*
X52292695Y-46138053D03*
X52323762Y-47791500D03*
X31094000Y-58332000D03*
D16*
X42514000Y-101859000D02*
X42260000Y-101605000D01*
X42250695Y-101605000D02*
X40519000Y-99873305D01*
X42590206Y-102824913D02*
X42590206Y-101935206D01*
X40519000Y-99873305D02*
X40519000Y-85185000D01*
X43403000Y-82301000D02*
X45435000Y-82301000D01*
X47086000Y-82301000D02*
X48737000Y-82301000D01*
X42590913Y-102824913D02*
X42590206Y-102824913D01*
X43276000Y-103510000D02*
X45562000Y-105796000D01*
X40519000Y-85185000D02*
X43403000Y-82301000D01*
X43276000Y-103510000D02*
X42590913Y-102824913D01*
X42260000Y-101605000D02*
X42250695Y-101605000D01*
X42590206Y-101935206D02*
X42514000Y-101859000D01*
X45435000Y-82301000D02*
X47086000Y-82301000D01*
X54299000Y-103673000D02*
X54299000Y-101133000D01*
X109036000Y-97704000D02*
X103829000Y-102911000D01*
X103829000Y-102911000D02*
X100858000Y-102911000D01*
X100858000Y-102911000D02*
X90684000Y-113085000D01*
X110814000Y-97450000D02*
X104083000Y-104181000D01*
X92049000Y-112598299D02*
X92049000Y-114260000D01*
X104083000Y-104181000D02*
X100466299Y-104181000D01*
X100466299Y-104181000D02*
X92049000Y-112598299D01*
X92049000Y-114260000D02*
X90684000Y-115625000D01*
X75000000Y-53000000D02*
X75000000Y-49825000D01*
X84525000Y-105959000D02*
X91383000Y-105959000D01*
X77159000Y-98593000D02*
X83763000Y-105197000D01*
X72206000Y-86147000D02*
X77159000Y-91100000D01*
X77159000Y-91100000D02*
X77159000Y-97450000D01*
X77159000Y-97450000D02*
X77159000Y-98593000D01*
X83763000Y-105197000D02*
X84525000Y-105959000D01*
X84959000Y-99800000D02*
X82075000Y-96916000D01*
X101709206Y-97728794D02*
X101633000Y-97805000D01*
X102598913Y-97728087D02*
X102598913Y-97728794D01*
X103284000Y-97043000D02*
X102598913Y-97728087D01*
X103284000Y-97043000D02*
X105570000Y-94757000D01*
X82075000Y-93233000D02*
X82075000Y-91582000D01*
X82075000Y-94884000D02*
X82075000Y-93233000D01*
X101633000Y-97805000D02*
X101379000Y-98059000D01*
X82075000Y-96916000D02*
X82075000Y-94884000D01*
X102598913Y-97728794D02*
X101709206Y-97728794D01*
X101379000Y-98059000D02*
X101379000Y-98068305D01*
X101379000Y-98068305D02*
X99647305Y-99800000D01*
X99647305Y-99800000D02*
X84959000Y-99800000D01*
X97887305Y-39145000D02*
X99619000Y-40876695D01*
X96862000Y-37240000D02*
X94576000Y-34954000D01*
X94703000Y-58449000D02*
X93052000Y-58449000D01*
X97547087Y-37925087D02*
X97547794Y-37925087D01*
X99619000Y-55565000D02*
X96735000Y-58449000D01*
X97547794Y-37925087D02*
X97547794Y-38814794D01*
X96735000Y-58449000D02*
X94703000Y-58449000D01*
X97878000Y-39145000D02*
X97887305Y-39145000D01*
X93052000Y-58449000D02*
X91401000Y-58449000D01*
X97624000Y-38891000D02*
X97878000Y-39145000D01*
X96862000Y-37240000D02*
X97547087Y-37925087D01*
X99619000Y-40876695D02*
X99619000Y-55565000D01*
X97547794Y-38814794D02*
X97624000Y-38891000D01*
X40445695Y-39700000D02*
X55134000Y-39700000D01*
X36809000Y-42457000D02*
X34523000Y-44743000D01*
X38714000Y-41431695D02*
X40445695Y-39700000D01*
X36809000Y-42457000D02*
X37494087Y-41771913D01*
X58018000Y-44616000D02*
X58018000Y-46267000D01*
X38714000Y-41441000D02*
X38714000Y-41431695D01*
X37494087Y-41771913D02*
X37494087Y-41771206D01*
X58018000Y-46267000D02*
X58018000Y-47918000D01*
X58018000Y-42584000D02*
X58018000Y-44616000D01*
X38383794Y-41771206D02*
X38460000Y-41695000D01*
X37494087Y-41771206D02*
X38383794Y-41771206D01*
X55134000Y-39700000D02*
X58018000Y-42584000D01*
X38460000Y-41695000D02*
X38714000Y-41441000D01*
X38572347Y-103260653D02*
X44536695Y-109225000D01*
X38450000Y-103138305D02*
X38572347Y-103260653D01*
X44536695Y-109225000D02*
X48610000Y-109225000D01*
X38450000Y-88651000D02*
X38450000Y-103138306D01*
X38450000Y-103138306D02*
X38572347Y-103260653D01*
X49372000Y-108463000D02*
X50134000Y-109225000D01*
X39466000Y-100725305D02*
X47203695Y-108463000D01*
X39466000Y-95509000D02*
X39466000Y-100725305D01*
X47203695Y-108463000D02*
X49372000Y-108463000D01*
X43059000Y-100880000D02*
X43576305Y-100880000D01*
X43576305Y-100880000D02*
X51658000Y-108961695D01*
X51658000Y-108961695D02*
X51658000Y-109225000D01*
X41447367Y-97280008D02*
X41447367Y-99268367D01*
X41447367Y-99268367D02*
X43059000Y-100880000D01*
X45160500Y-88016000D02*
X45715000Y-88016000D01*
X56230000Y-98531000D02*
X56230000Y-109225000D01*
X45715000Y-88016000D02*
X56230000Y-98531000D01*
X46957053Y-88026305D02*
X57627000Y-98696252D01*
X57627000Y-98696252D02*
X57627000Y-109225000D01*
X59151000Y-98535738D02*
X59151000Y-109225000D01*
X48610500Y-87995238D02*
X59151000Y-98535738D01*
X103034653Y-101746653D02*
X108999000Y-95782305D01*
X108999000Y-95782305D02*
X108999000Y-91709000D01*
X88425000Y-101869000D02*
X102912306Y-101869000D01*
X102912306Y-101869000D02*
X103034653Y-101746653D01*
X102912305Y-101869000D02*
X103034653Y-101746653D01*
X95283000Y-100853000D02*
X100499305Y-100853000D01*
X108237000Y-90947000D02*
X108999000Y-90185000D01*
X108237000Y-93115305D02*
X108237000Y-90947000D01*
X100499305Y-100853000D02*
X108237000Y-93115305D01*
X100654000Y-96742695D02*
X108735695Y-88661000D01*
X100654000Y-97260000D02*
X100654000Y-96742695D01*
X108735695Y-88661000D02*
X108999000Y-88661000D01*
X99042367Y-98871633D02*
X100654000Y-97260000D01*
X97054008Y-98871633D02*
X99042367Y-98871633D01*
X87790000Y-95158500D02*
X87790000Y-94604000D01*
X87790000Y-94604000D02*
X98305000Y-84089000D01*
X98305000Y-84089000D02*
X108999000Y-84089000D01*
X87800305Y-93361947D02*
X98470252Y-82692000D01*
X98470252Y-82692000D02*
X108999000Y-82692000D01*
X87769238Y-91708500D02*
X98309738Y-81168000D01*
X98309738Y-81168000D02*
X108999000Y-81168000D01*
X101688000Y-52099000D02*
X101688000Y-37611694D01*
X101688000Y-37611694D02*
X101565653Y-37489347D01*
X95601305Y-31525000D02*
X91528000Y-31525000D01*
X101688000Y-37611695D02*
X101565653Y-37489347D01*
X101565653Y-37489347D02*
X95601305Y-31525000D01*
X100672000Y-40024695D02*
X92934305Y-32287000D01*
X92934305Y-32287000D02*
X90766000Y-32287000D01*
X100672000Y-45241000D02*
X100672000Y-40024695D01*
X90766000Y-32287000D02*
X90004000Y-31525000D01*
X98690633Y-43469992D02*
X98690633Y-41481633D01*
X98690633Y-41481633D02*
X97079000Y-39870000D01*
X96561695Y-39870000D02*
X88480000Y-31788305D01*
X97079000Y-39870000D02*
X96561695Y-39870000D01*
X88480000Y-31788305D02*
X88480000Y-31525000D01*
X83908000Y-42219000D02*
X83908000Y-31525000D01*
X94423000Y-52734000D02*
X83908000Y-42219000D01*
X94977500Y-52734000D02*
X94423000Y-52734000D01*
X93180947Y-52723695D02*
X82511000Y-42053748D01*
X82511000Y-42053748D02*
X82511000Y-31525000D01*
X91527500Y-52754762D02*
X80987000Y-42214262D01*
X80987000Y-42214262D02*
X80987000Y-31525000D01*
X37180695Y-37631000D02*
X37058347Y-37753347D01*
X37058347Y-37753347D02*
X31094000Y-43717695D01*
X37180694Y-37631000D02*
X37058347Y-37753347D01*
X51668000Y-37631000D02*
X37180694Y-37631000D01*
X31094000Y-43717695D02*
X31094000Y-47791000D01*
X39593695Y-38647000D02*
X31856000Y-46384695D01*
X44810000Y-38647000D02*
X39593695Y-38647000D01*
X31856000Y-48553000D02*
X31094000Y-49315000D01*
X31856000Y-46384695D02*
X31856000Y-48553000D01*
X31357305Y-50839000D02*
X31094000Y-50839000D01*
X41050633Y-40628367D02*
X39439000Y-42240000D01*
X43038992Y-40628367D02*
X41050633Y-40628367D01*
X39439000Y-42757305D02*
X31357305Y-50839000D01*
X39439000Y-42240000D02*
X39439000Y-42757305D01*
X52303000Y-44341500D02*
X52303000Y-44896000D01*
X52303000Y-44896000D02*
X41788000Y-55411000D01*
X41788000Y-55411000D02*
X31094000Y-55411000D01*
X52292695Y-46138053D02*
X41622748Y-56808000D01*
X41622748Y-56808000D02*
X31094000Y-56808000D01*
X41783262Y-58332000D02*
X31094000Y-58332000D01*
X52323762Y-47791500D02*
X41783262Y-58332000D01*
G04 #@! TA.AperFunction,Conductor*
G36*
X47204898Y-90401802D02*
G01*
X48864000Y-92060904D01*
X48864000Y-95001000D01*
X41152500Y-95253836D01*
X41152500Y-90302582D01*
X47204898Y-90401802D01*
G37*
G04 #@! TD.AperFunction*
G04 #@! TA.AperFunction,Conductor*
G36*
X98985500Y-45807000D02*
G01*
X98965498Y-45875121D01*
X98911842Y-45921614D01*
X98859500Y-45933000D01*
X98682878Y-45933000D01*
X98667960Y-45932114D01*
X98639671Y-45928741D01*
X98625673Y-45928643D01*
X98590784Y-45932310D01*
X98577614Y-45933000D01*
X97382878Y-45933000D01*
X97367960Y-45932114D01*
X97339670Y-45928741D01*
X97325672Y-45928643D01*
X97290782Y-45932310D01*
X97277612Y-45933000D01*
X96082879Y-45933000D01*
X96067961Y-45932114D01*
X96039670Y-45928741D01*
X96025672Y-45928643D01*
X95990781Y-45932310D01*
X95977612Y-45933000D01*
X95649115Y-45933000D01*
X95633876Y-45937475D01*
X95632671Y-45938865D01*
X95631000Y-45946548D01*
X95631000Y-45967674D01*
X95638531Y-45993321D01*
X96297115Y-46651905D01*
X96331141Y-46714217D01*
X96326076Y-46785032D01*
X96297115Y-46830095D01*
X96027000Y-47100210D01*
X95749023Y-47378188D01*
X95741409Y-47392132D01*
X95741540Y-47393967D01*
X95745790Y-47400580D01*
X96297115Y-47951905D01*
X96331141Y-48014217D01*
X96326076Y-48085032D01*
X96297115Y-48130095D01*
X96027000Y-48400210D01*
X95749023Y-48678188D01*
X95741409Y-48692132D01*
X95741540Y-48693967D01*
X95745790Y-48700580D01*
X96297115Y-49251905D01*
X96331141Y-49314217D01*
X96326076Y-49385032D01*
X96297115Y-49430095D01*
X96027000Y-49700210D01*
X95643812Y-50083399D01*
X95631000Y-50106861D01*
X95631000Y-50130884D01*
X95635475Y-50146123D01*
X95636865Y-50147328D01*
X95644548Y-50148999D01*
X95964611Y-50148999D01*
X95981277Y-50150106D01*
X96002991Y-50153004D01*
X96016986Y-50153297D01*
X96058500Y-50149518D01*
X96069921Y-50148999D01*
X97264611Y-50148999D01*
X97281276Y-50150106D01*
X97302991Y-50153004D01*
X97316986Y-50153297D01*
X97358502Y-50149518D01*
X97369923Y-50148999D01*
X98564609Y-50148999D01*
X98581273Y-50150106D01*
X98602989Y-50153004D01*
X98616986Y-50153297D01*
X98658503Y-50149518D01*
X98669923Y-50148999D01*
X98859500Y-50148999D01*
X98927621Y-50169001D01*
X98974114Y-50222657D01*
X98985500Y-50274999D01*
X98985500Y-50447418D01*
X92940384Y-50348318D01*
X92914973Y-50301783D01*
X92920038Y-50230968D01*
X92962585Y-50174132D01*
X93029105Y-50149321D01*
X93038094Y-50149000D01*
X93364617Y-50149000D01*
X93381281Y-50150107D01*
X93402990Y-50153003D01*
X93416986Y-50153297D01*
X93458495Y-50149519D01*
X93469915Y-50149000D01*
X94664617Y-50149000D01*
X94681280Y-50150107D01*
X94702989Y-50153003D01*
X94716987Y-50153297D01*
X94758497Y-50149519D01*
X94769916Y-50149000D01*
X95104885Y-50149000D01*
X95120124Y-50144525D01*
X95121329Y-50143135D01*
X95123000Y-50135452D01*
X95123000Y-50114326D01*
X95115469Y-50088679D01*
X94456885Y-49430095D01*
X94422859Y-49367783D01*
X94424694Y-49342131D01*
X95091408Y-49342131D01*
X95091539Y-49343966D01*
X95095789Y-49350578D01*
X95110191Y-49364980D01*
X95120276Y-49370487D01*
X95123000Y-49363184D01*
X95123000Y-49359674D01*
X95631000Y-49359674D01*
X95634237Y-49370699D01*
X95641328Y-49367461D01*
X95654979Y-49353811D01*
X95662592Y-49339869D01*
X95662461Y-49338034D01*
X95658211Y-49331422D01*
X95643809Y-49317020D01*
X95633724Y-49311513D01*
X95631000Y-49318816D01*
X95631000Y-49359674D01*
X95123000Y-49359674D01*
X95123000Y-49322326D01*
X95119763Y-49311301D01*
X95112672Y-49314539D01*
X95099021Y-49328189D01*
X95091408Y-49342131D01*
X94424694Y-49342131D01*
X94427924Y-49296968D01*
X94456885Y-49251905D01*
X94727000Y-48981790D01*
X95004977Y-48703812D01*
X95012591Y-48689868D01*
X95012460Y-48688033D01*
X95008212Y-48681423D01*
X94634601Y-48307811D01*
X94611139Y-48295000D01*
X91337116Y-48295000D01*
X91321877Y-48299475D01*
X91320672Y-48300865D01*
X91319001Y-48308548D01*
X91319001Y-48429907D01*
X91298999Y-48498028D01*
X91274000Y-48519690D01*
X91274000Y-48059674D01*
X95631000Y-48059674D01*
X95634237Y-48070699D01*
X95641328Y-48067461D01*
X95654979Y-48053811D01*
X95662592Y-48039869D01*
X95662461Y-48038034D01*
X95658211Y-48031422D01*
X95643809Y-48017020D01*
X95633724Y-48011513D01*
X95631000Y-48018816D01*
X95631000Y-48059674D01*
X91274000Y-48059674D01*
X91274000Y-46736660D01*
X91314654Y-46736660D01*
X91318399Y-46774860D01*
X91319000Y-46787155D01*
X91319000Y-47768885D01*
X91323475Y-47784124D01*
X91324865Y-47785329D01*
X91332548Y-47787000D01*
X94603675Y-47787000D01*
X94629320Y-47779470D01*
X94727000Y-47681790D01*
X95004977Y-47403812D01*
X95012591Y-47389868D01*
X95012460Y-47388033D01*
X95008210Y-47381420D01*
X94456885Y-46830095D01*
X94422859Y-46767783D01*
X94424694Y-46742131D01*
X95091408Y-46742131D01*
X95091539Y-46743966D01*
X95095789Y-46750578D01*
X95110191Y-46764980D01*
X95120276Y-46770487D01*
X95123000Y-46763184D01*
X95123000Y-46759674D01*
X95631000Y-46759674D01*
X95634237Y-46770699D01*
X95641328Y-46767461D01*
X95654979Y-46753811D01*
X95662592Y-46739869D01*
X95662461Y-46738034D01*
X95658211Y-46731422D01*
X95643809Y-46717020D01*
X95633724Y-46711513D01*
X95631000Y-46718816D01*
X95631000Y-46759674D01*
X95123000Y-46759674D01*
X95123000Y-46722326D01*
X95119763Y-46711301D01*
X95112672Y-46714539D01*
X95099021Y-46728189D01*
X95091408Y-46742131D01*
X94424694Y-46742131D01*
X94427924Y-46696968D01*
X94456885Y-46651905D01*
X94727000Y-46381790D01*
X95110188Y-45998601D01*
X95123000Y-45975139D01*
X95123000Y-45951116D01*
X95118525Y-45935877D01*
X95117135Y-45934672D01*
X95109452Y-45933001D01*
X94782884Y-45933001D01*
X94767964Y-45932115D01*
X94739669Y-45928741D01*
X94725673Y-45928643D01*
X94690778Y-45932311D01*
X94677607Y-45933001D01*
X93482885Y-45933001D01*
X93467966Y-45932115D01*
X93439670Y-45928741D01*
X93425673Y-45928643D01*
X93390777Y-45932311D01*
X93377606Y-45933001D01*
X92182886Y-45933001D01*
X92167967Y-45932115D01*
X92139670Y-45928741D01*
X92125673Y-45928643D01*
X92090775Y-45932311D01*
X92077605Y-45933001D01*
X91782331Y-45933001D01*
X91775510Y-45933371D01*
X91724648Y-45938895D01*
X91709396Y-45942521D01*
X91588946Y-45987676D01*
X91573351Y-45996214D01*
X91471276Y-46072715D01*
X91458715Y-46085276D01*
X91382214Y-46187351D01*
X91373676Y-46202946D01*
X91328522Y-46323394D01*
X91324895Y-46338649D01*
X91319369Y-46389514D01*
X91319000Y-46396328D01*
X91319000Y-46681875D01*
X91318006Y-46697667D01*
X91314850Y-46722653D01*
X91314654Y-46736660D01*
X91274000Y-46736660D01*
X91274000Y-45749000D01*
X98985500Y-45496164D01*
X98985500Y-45807000D01*
G37*
G04 #@! TD.AperFunction*
G04 #@! TA.AperFunction,Conductor*
G36*
X45444121Y-40353502D02*
G01*
X45490614Y-40407158D01*
X45502000Y-40459500D01*
X45502000Y-40632875D01*
X45501006Y-40648667D01*
X45497850Y-40673653D01*
X45497654Y-40687660D01*
X45501399Y-40725859D01*
X45502000Y-40738154D01*
X45502000Y-41932874D01*
X45501007Y-41948665D01*
X45497849Y-41973660D01*
X45497654Y-41987660D01*
X45501399Y-42025861D01*
X45502000Y-42038156D01*
X45502000Y-43232866D01*
X45501007Y-43248657D01*
X45497849Y-43273660D01*
X45497653Y-43287657D01*
X45501399Y-43325863D01*
X45502000Y-43338157D01*
X45502000Y-43669885D01*
X45506475Y-43685124D01*
X45507865Y-43686329D01*
X45515548Y-43688000D01*
X45536674Y-43688000D01*
X45545951Y-43685276D01*
X46280513Y-43685276D01*
X46287816Y-43688000D01*
X46328674Y-43688000D01*
X46337952Y-43685276D01*
X47580513Y-43685276D01*
X47587816Y-43688000D01*
X47628674Y-43688000D01*
X47637952Y-43685276D01*
X48880513Y-43685276D01*
X48887816Y-43688000D01*
X48928674Y-43688000D01*
X48939699Y-43684763D01*
X48936461Y-43677672D01*
X48922811Y-43664021D01*
X48908869Y-43656408D01*
X48907034Y-43656539D01*
X48900422Y-43660789D01*
X48886020Y-43675191D01*
X48880513Y-43685276D01*
X47637952Y-43685276D01*
X47639699Y-43684763D01*
X47636461Y-43677672D01*
X47622811Y-43664021D01*
X47608869Y-43656408D01*
X47607034Y-43656539D01*
X47600422Y-43660789D01*
X47586020Y-43675191D01*
X47580513Y-43685276D01*
X46337952Y-43685276D01*
X46339699Y-43684763D01*
X46336461Y-43677672D01*
X46322811Y-43664021D01*
X46308869Y-43656408D01*
X46307034Y-43656539D01*
X46300422Y-43660789D01*
X46286020Y-43675191D01*
X46280513Y-43685276D01*
X45545951Y-43685276D01*
X45562319Y-43680470D01*
X46220905Y-43021885D01*
X46283217Y-42987860D01*
X46354033Y-42992925D01*
X46399095Y-43021885D01*
X46947192Y-43569981D01*
X46961130Y-43577592D01*
X46962966Y-43577460D01*
X46969578Y-43573211D01*
X47520905Y-43021885D01*
X47583217Y-42987860D01*
X47654033Y-42992925D01*
X47699095Y-43021885D01*
X48247192Y-43569981D01*
X48261130Y-43577592D01*
X48262966Y-43577460D01*
X48269578Y-43573211D01*
X48820905Y-43021885D01*
X48883217Y-42987860D01*
X48954033Y-42992925D01*
X48999095Y-43021885D01*
X49652403Y-43675192D01*
X49675859Y-43688000D01*
X49699884Y-43688000D01*
X49715123Y-43683525D01*
X49716328Y-43682135D01*
X49717999Y-43674452D01*
X49717999Y-43357647D01*
X49719225Y-43340110D01*
X49722245Y-43318624D01*
X49722851Y-43310743D01*
X49723058Y-43295961D01*
X49722671Y-43288063D01*
X49718784Y-43253408D01*
X49717999Y-43239362D01*
X49717999Y-42057648D01*
X49719225Y-42040112D01*
X49722245Y-42018626D01*
X49722851Y-42010743D01*
X49723058Y-41995962D01*
X49722671Y-41988062D01*
X49718784Y-41953407D01*
X49717999Y-41939362D01*
X49717999Y-40757648D01*
X49719225Y-40740112D01*
X49722245Y-40718626D01*
X49722851Y-40710742D01*
X49723058Y-40695962D01*
X49722671Y-40688061D01*
X49718784Y-40653406D01*
X49717999Y-40639361D01*
X49717999Y-40459500D01*
X49738001Y-40391379D01*
X49791657Y-40344886D01*
X49843999Y-40333500D01*
X50016418Y-40333500D01*
X49917318Y-46378616D01*
X49870783Y-46404027D01*
X49799968Y-46398962D01*
X49743132Y-46356415D01*
X49718321Y-46289895D01*
X49718000Y-46280906D01*
X49718000Y-45957641D01*
X49719226Y-45940107D01*
X49722244Y-45918630D01*
X49722851Y-45910740D01*
X49723058Y-45895963D01*
X49722671Y-45888061D01*
X49718785Y-45853413D01*
X49718000Y-45839369D01*
X49718000Y-44657642D01*
X49719226Y-44640108D01*
X49722244Y-44618630D01*
X49722851Y-44610740D01*
X49723058Y-44595963D01*
X49722671Y-44588060D01*
X49718785Y-44553411D01*
X49718000Y-44539367D01*
X49718000Y-44214115D01*
X49713525Y-44198876D01*
X49712135Y-44197671D01*
X49704452Y-44196000D01*
X49683326Y-44196000D01*
X49657681Y-44203530D01*
X48999095Y-44862115D01*
X48936783Y-44896140D01*
X48865967Y-44891075D01*
X48820905Y-44862115D01*
X48272808Y-44314019D01*
X48258870Y-44306408D01*
X48257034Y-44306540D01*
X48250422Y-44310789D01*
X47876811Y-44684399D01*
X47864000Y-44707861D01*
X47864000Y-47981884D01*
X47868475Y-47997123D01*
X47869865Y-47998328D01*
X47877548Y-47999999D01*
X47998907Y-47999999D01*
X48067028Y-48020001D01*
X48088690Y-48045000D01*
X45318000Y-48045000D01*
X45289890Y-47187660D01*
X45497654Y-47187660D01*
X45501400Y-47225869D01*
X45502001Y-47238164D01*
X45502001Y-47536669D01*
X45502371Y-47543490D01*
X45507895Y-47594352D01*
X45511521Y-47609604D01*
X45556676Y-47730054D01*
X45565214Y-47745649D01*
X45641715Y-47847724D01*
X45654276Y-47860285D01*
X45756351Y-47936786D01*
X45771946Y-47945324D01*
X45892394Y-47990478D01*
X45907649Y-47994105D01*
X45958514Y-47999631D01*
X45965328Y-48000000D01*
X46247618Y-48000000D01*
X46264283Y-48001107D01*
X46285991Y-48004004D01*
X46299986Y-48004297D01*
X46341494Y-48000519D01*
X46352914Y-48000000D01*
X47337885Y-48000000D01*
X47353124Y-47995525D01*
X47354329Y-47994135D01*
X47356000Y-47986452D01*
X47356000Y-44715325D01*
X47348470Y-44689680D01*
X46972808Y-44314019D01*
X46958870Y-44306408D01*
X46957034Y-44306540D01*
X46950422Y-44310789D01*
X46669210Y-44592000D01*
X46399095Y-44862116D01*
X46336783Y-44896141D01*
X46265967Y-44891076D01*
X46220905Y-44862115D01*
X45950790Y-44592000D01*
X45567601Y-44208812D01*
X45550067Y-44199237D01*
X46280301Y-44199237D01*
X46283539Y-44206328D01*
X46297189Y-44219979D01*
X46311131Y-44227592D01*
X46312966Y-44227461D01*
X46319578Y-44223211D01*
X46333980Y-44208809D01*
X46339207Y-44199237D01*
X48880301Y-44199237D01*
X48883539Y-44206328D01*
X48897189Y-44219979D01*
X48911131Y-44227592D01*
X48912966Y-44227461D01*
X48919578Y-44223211D01*
X48933980Y-44208809D01*
X48939487Y-44198724D01*
X48932184Y-44196000D01*
X48891326Y-44196000D01*
X48880301Y-44199237D01*
X46339207Y-44199237D01*
X46339487Y-44198724D01*
X46332184Y-44196000D01*
X46291326Y-44196000D01*
X46280301Y-44199237D01*
X45550067Y-44199237D01*
X45544139Y-44196000D01*
X45520116Y-44196000D01*
X45504877Y-44200475D01*
X45503672Y-44201865D01*
X45502001Y-44209548D01*
X45502001Y-44532869D01*
X45501007Y-44548663D01*
X45497850Y-44573654D01*
X45497654Y-44587659D01*
X45501400Y-44625866D01*
X45502001Y-44638162D01*
X45502001Y-45832868D01*
X45501007Y-45848661D01*
X45497850Y-45873653D01*
X45497654Y-45887659D01*
X45501400Y-45925867D01*
X45502001Y-45938163D01*
X45502001Y-47132868D01*
X45501007Y-47148660D01*
X45497850Y-47173653D01*
X45497654Y-47187660D01*
X45289890Y-47187660D01*
X45065164Y-40333500D01*
X45376000Y-40333500D01*
X45444121Y-40353502D01*
G37*
G04 #@! TD.AperFunction*
G04 #@! TA.AperFunction,Conductor*
G36*
X95027836Y-99166500D02*
G01*
X94717000Y-99166500D01*
X94648879Y-99146498D01*
X94602386Y-99092842D01*
X94591000Y-99040500D01*
X94591000Y-98873640D01*
X94592226Y-98856104D01*
X94595245Y-98834625D01*
X94595851Y-98826741D01*
X94596058Y-98811962D01*
X94595671Y-98804061D01*
X94591785Y-98769414D01*
X94591000Y-98755369D01*
X94591000Y-97573641D01*
X94592226Y-97556107D01*
X94595244Y-97534630D01*
X94595851Y-97526740D01*
X94596058Y-97511963D01*
X94595671Y-97504061D01*
X94591785Y-97469413D01*
X94591000Y-97455369D01*
X94591000Y-96273642D01*
X94592226Y-96256108D01*
X94595244Y-96234630D01*
X94595851Y-96226740D01*
X94596058Y-96211963D01*
X94595671Y-96204060D01*
X94591785Y-96169411D01*
X94591000Y-96155367D01*
X94591000Y-95830115D01*
X94586525Y-95814876D01*
X94585135Y-95813671D01*
X94577452Y-95812000D01*
X94556326Y-95812000D01*
X94530681Y-95819530D01*
X94142210Y-96208000D01*
X93872095Y-96478116D01*
X93809783Y-96512141D01*
X93738967Y-96507076D01*
X93693905Y-96478115D01*
X93423790Y-96208000D01*
X93145812Y-95930023D01*
X93131868Y-95922409D01*
X93130033Y-95922540D01*
X93123423Y-95926788D01*
X92842210Y-96208000D01*
X92572095Y-96478116D01*
X92509783Y-96512141D01*
X92438967Y-96507076D01*
X92393905Y-96478115D01*
X92123790Y-96208000D01*
X91845812Y-95930023D01*
X91831868Y-95922409D01*
X91830033Y-95922540D01*
X91823423Y-95926788D01*
X91542210Y-96208000D01*
X91272095Y-96478116D01*
X91209783Y-96512141D01*
X91138967Y-96507076D01*
X91093905Y-96478115D01*
X90823790Y-96208000D01*
X90440601Y-95824812D01*
X90423067Y-95815237D01*
X91153301Y-95815237D01*
X91156539Y-95822328D01*
X91170189Y-95835979D01*
X91184131Y-95843592D01*
X91185966Y-95843461D01*
X91192578Y-95839211D01*
X91206980Y-95824809D01*
X91212207Y-95815237D01*
X92453301Y-95815237D01*
X92456539Y-95822328D01*
X92470189Y-95835979D01*
X92484131Y-95843592D01*
X92485966Y-95843461D01*
X92492578Y-95839211D01*
X92506980Y-95824809D01*
X92512207Y-95815237D01*
X93753301Y-95815237D01*
X93756539Y-95822328D01*
X93770189Y-95835979D01*
X93784131Y-95843592D01*
X93785966Y-95843461D01*
X93792578Y-95839211D01*
X93806980Y-95824809D01*
X93812487Y-95814724D01*
X93805184Y-95812000D01*
X93764326Y-95812000D01*
X93753301Y-95815237D01*
X92512207Y-95815237D01*
X92512487Y-95814724D01*
X92505184Y-95812000D01*
X92464326Y-95812000D01*
X92453301Y-95815237D01*
X91212207Y-95815237D01*
X91212487Y-95814724D01*
X91205184Y-95812000D01*
X91164326Y-95812000D01*
X91153301Y-95815237D01*
X90423067Y-95815237D01*
X90417139Y-95812000D01*
X90393116Y-95812000D01*
X90377877Y-95816475D01*
X90376672Y-95817865D01*
X90375001Y-95825548D01*
X90375001Y-96148869D01*
X90374007Y-96164663D01*
X90370850Y-96189654D01*
X90370654Y-96203659D01*
X90374400Y-96241866D01*
X90375001Y-96254162D01*
X90375001Y-97448868D01*
X90374007Y-97464661D01*
X90370850Y-97489653D01*
X90370654Y-97503659D01*
X90374400Y-97541867D01*
X90375001Y-97554163D01*
X90375001Y-98748868D01*
X90374007Y-98764660D01*
X90370850Y-98789653D01*
X90370654Y-98803660D01*
X90374400Y-98841869D01*
X90375001Y-98854164D01*
X90375001Y-99040500D01*
X90354999Y-99108621D01*
X90301343Y-99155114D01*
X90249001Y-99166500D01*
X90076582Y-99166500D01*
X90175682Y-93121384D01*
X90222217Y-93095973D01*
X90293032Y-93101038D01*
X90349868Y-93143585D01*
X90374679Y-93210105D01*
X90375000Y-93219094D01*
X90375000Y-93548874D01*
X90374007Y-93564665D01*
X90370849Y-93589660D01*
X90370654Y-93603660D01*
X90374399Y-93641861D01*
X90375000Y-93654156D01*
X90375000Y-94848866D01*
X90374007Y-94864657D01*
X90370849Y-94889660D01*
X90370653Y-94903657D01*
X90374399Y-94941863D01*
X90375000Y-94954157D01*
X90375000Y-95285885D01*
X90379475Y-95301124D01*
X90380865Y-95302329D01*
X90388548Y-95304000D01*
X90409674Y-95304000D01*
X90418951Y-95301276D01*
X91153513Y-95301276D01*
X91160816Y-95304000D01*
X91201674Y-95304000D01*
X91210952Y-95301276D01*
X93753513Y-95301276D01*
X93760816Y-95304000D01*
X93801674Y-95304000D01*
X93812699Y-95300763D01*
X93809461Y-95293672D01*
X93795811Y-95280021D01*
X93781869Y-95272408D01*
X93780034Y-95272539D01*
X93773422Y-95276789D01*
X93759020Y-95291191D01*
X93753513Y-95301276D01*
X91210952Y-95301276D01*
X91212699Y-95300763D01*
X91209461Y-95293672D01*
X91195811Y-95280021D01*
X91181869Y-95272408D01*
X91180034Y-95272539D01*
X91173422Y-95276789D01*
X91159020Y-95291191D01*
X91153513Y-95301276D01*
X90418951Y-95301276D01*
X90435319Y-95296470D01*
X91093905Y-94637885D01*
X91156217Y-94603860D01*
X91227033Y-94608925D01*
X91272095Y-94637885D01*
X91820192Y-95185981D01*
X91834130Y-95193592D01*
X91835966Y-95193460D01*
X91842578Y-95189211D01*
X92216189Y-94815601D01*
X92229000Y-94792139D01*
X92229000Y-94784675D01*
X92737000Y-94784675D01*
X92744530Y-94810320D01*
X93120192Y-95185981D01*
X93134130Y-95193592D01*
X93135966Y-95193460D01*
X93142578Y-95189211D01*
X93693905Y-94637885D01*
X93756217Y-94603860D01*
X93827033Y-94608925D01*
X93872095Y-94637885D01*
X94525403Y-95291192D01*
X94548859Y-95304000D01*
X94572884Y-95304000D01*
X94588123Y-95299525D01*
X94589328Y-95298135D01*
X94590999Y-95290452D01*
X94590999Y-94973647D01*
X94592225Y-94956110D01*
X94595245Y-94934624D01*
X94595851Y-94926743D01*
X94596058Y-94911961D01*
X94595671Y-94904063D01*
X94591784Y-94869408D01*
X94590999Y-94855362D01*
X94590999Y-93673648D01*
X94592225Y-93656112D01*
X94595245Y-93634626D01*
X94595851Y-93626743D01*
X94596058Y-93611962D01*
X94595671Y-93604062D01*
X94591784Y-93569407D01*
X94590999Y-93555362D01*
X94590999Y-92373648D01*
X94592225Y-92356112D01*
X94595245Y-92334626D01*
X94595851Y-92326742D01*
X94596058Y-92311962D01*
X94595671Y-92304061D01*
X94591784Y-92269406D01*
X94590999Y-92255361D01*
X94590999Y-91963331D01*
X94590629Y-91956510D01*
X94585105Y-91905648D01*
X94581479Y-91890396D01*
X94536324Y-91769946D01*
X94527786Y-91754351D01*
X94451285Y-91652276D01*
X94438724Y-91639715D01*
X94336649Y-91563214D01*
X94321054Y-91554676D01*
X94200606Y-91509522D01*
X94185351Y-91505895D01*
X94134486Y-91500369D01*
X94127672Y-91500000D01*
X93838877Y-91500000D01*
X93823959Y-91499114D01*
X93795670Y-91495741D01*
X93781673Y-91495643D01*
X93746783Y-91499310D01*
X93733613Y-91500000D01*
X92755115Y-91500000D01*
X92739876Y-91504475D01*
X92738671Y-91505865D01*
X92737000Y-91513548D01*
X92737000Y-94784675D01*
X92229000Y-94784675D01*
X92229000Y-91518116D01*
X92224525Y-91502877D01*
X92223135Y-91501672D01*
X92215452Y-91500001D01*
X92094093Y-91500001D01*
X92025972Y-91479999D01*
X92004310Y-91455000D01*
X94775000Y-91455000D01*
X95027836Y-99166500D01*
G37*
G04 #@! TD.AperFunction*
G04 #@! TA.AperFunction,Conductor*
G36*
X119377621Y-20903502D02*
G01*
X119424114Y-20957158D01*
X119435500Y-21009500D01*
X119435500Y-119740500D01*
X119415498Y-119808621D01*
X119361842Y-119855114D01*
X119309500Y-119866500D01*
X20578500Y-119866500D01*
X20510379Y-119846498D01*
X20463886Y-119792842D01*
X20452500Y-119740500D01*
X20452500Y-112846061D01*
X24680610Y-112846061D01*
X24681941Y-112872789D01*
X24695985Y-113154908D01*
X24697147Y-113178255D01*
X24697788Y-113181986D01*
X24697789Y-113181994D01*
X24731474Y-113378023D01*
X24753474Y-113506057D01*
X24754562Y-113509696D01*
X24754563Y-113509699D01*
X24836130Y-113782438D01*
X24848774Y-113824718D01*
X24850287Y-113828189D01*
X24850289Y-113828195D01*
X24909607Y-113964292D01*
X24981666Y-114129622D01*
X24983589Y-114132893D01*
X24983591Y-114132897D01*
X25024749Y-114202909D01*
X25150226Y-114416352D01*
X25152527Y-114419367D01*
X25349712Y-114677742D01*
X25349717Y-114677748D01*
X25352012Y-114680755D01*
X25584102Y-114919002D01*
X25843132Y-115127640D01*
X26125352Y-115303648D01*
X26426672Y-115444476D01*
X26742729Y-115548085D01*
X27068944Y-115612973D01*
X27072716Y-115613260D01*
X27072724Y-115613261D01*
X27396815Y-115637914D01*
X27396820Y-115637914D01*
X27400592Y-115638201D01*
X27732869Y-115623403D01*
X27743425Y-115621646D01*
X28057220Y-115569417D01*
X28057225Y-115569416D01*
X28060961Y-115568794D01*
X28380116Y-115475164D01*
X28383583Y-115473674D01*
X28383587Y-115473673D01*
X28682228Y-115345366D01*
X28682230Y-115345365D01*
X28685712Y-115343869D01*
X28973321Y-115176813D01*
X28976343Y-115174532D01*
X28976347Y-115174529D01*
X29235753Y-114978697D01*
X29235754Y-114978696D01*
X29238777Y-114976414D01*
X29455867Y-114767138D01*
X29475508Y-114748204D01*
X29475509Y-114748203D01*
X29478235Y-114745575D01*
X29688227Y-114487641D01*
X29816122Y-114284939D01*
X29863683Y-114209560D01*
X29863685Y-114209557D01*
X29865710Y-114206347D01*
X29877385Y-114181705D01*
X29976670Y-113972137D01*
X30008114Y-113905767D01*
X30113377Y-113590257D01*
X30179972Y-113264386D01*
X30206936Y-112932875D01*
X30207542Y-112875000D01*
X30206780Y-112862361D01*
X30187755Y-112546772D01*
X30187754Y-112546765D01*
X30187527Y-112542997D01*
X30134614Y-112253277D01*
X30128451Y-112219530D01*
X30128450Y-112219525D01*
X30127770Y-112215803D01*
X30117286Y-112182037D01*
X30039494Y-111931507D01*
X30029139Y-111898157D01*
X29893061Y-111594662D01*
X29746876Y-111351850D01*
X29723466Y-111312966D01*
X29723462Y-111312960D01*
X29721507Y-111309713D01*
X29719180Y-111306729D01*
X29719175Y-111306722D01*
X29519294Y-111050425D01*
X29519288Y-111050418D01*
X29516963Y-111047437D01*
X29282392Y-110811634D01*
X29021191Y-110605720D01*
X28737144Y-110432677D01*
X28616046Y-110377617D01*
X28437817Y-110296580D01*
X28437809Y-110296577D01*
X28434365Y-110295011D01*
X28117240Y-110194718D01*
X27894896Y-110152906D01*
X27794087Y-110133949D01*
X27794085Y-110133949D01*
X27790364Y-110133249D01*
X27458470Y-110111496D01*
X27454690Y-110111704D01*
X27454689Y-110111704D01*
X27356918Y-110117085D01*
X27126366Y-110129773D01*
X27122639Y-110130434D01*
X27122635Y-110130434D01*
X26863510Y-110176358D01*
X26798864Y-110187815D01*
X26795239Y-110188920D01*
X26795234Y-110188921D01*
X26587683Y-110252178D01*
X26480707Y-110284782D01*
X26477243Y-110286313D01*
X26477236Y-110286316D01*
X26290051Y-110369070D01*
X26176503Y-110419269D01*
X26173249Y-110421205D01*
X26173243Y-110421208D01*
X25893918Y-110587389D01*
X25890659Y-110589328D01*
X25627316Y-110792496D01*
X25390288Y-111025829D01*
X25183009Y-111285949D01*
X25008481Y-111569086D01*
X24869232Y-111871140D01*
X24868073Y-111874740D01*
X24868070Y-111874747D01*
X24789967Y-112117285D01*
X24767280Y-112187735D01*
X24766561Y-112191451D01*
X24766559Y-112191459D01*
X24718310Y-112440840D01*
X24704100Y-112514285D01*
X24703833Y-112518061D01*
X24703832Y-112518066D01*
X24694440Y-112650720D01*
X24681789Y-112829413D01*
X24680610Y-112846061D01*
X20452500Y-112846061D01*
X20452500Y-88651000D01*
X37536496Y-88651000D01*
X37537186Y-88657565D01*
X37553187Y-88809803D01*
X37556458Y-88840928D01*
X37615473Y-89022556D01*
X37618776Y-89028278D01*
X37618777Y-89028279D01*
X37624551Y-89038279D01*
X37710960Y-89187944D01*
X37784137Y-89269215D01*
X37814853Y-89333221D01*
X37816500Y-89353524D01*
X37816500Y-103059539D01*
X37815973Y-103070722D01*
X37814298Y-103078215D01*
X37814547Y-103086141D01*
X37814547Y-103086142D01*
X37816438Y-103146292D01*
X37816500Y-103150251D01*
X37816500Y-103178162D01*
X37816996Y-103182085D01*
X37817004Y-103182149D01*
X37817937Y-103193993D01*
X37819326Y-103238192D01*
X37821539Y-103245809D01*
X37824978Y-103257647D01*
X37828987Y-103277005D01*
X37831526Y-103297103D01*
X37834444Y-103304473D01*
X37834445Y-103304477D01*
X37847801Y-103338210D01*
X37851645Y-103349437D01*
X37853619Y-103356231D01*
X37853619Y-103356234D01*
X37853620Y-103356234D01*
X37863982Y-103391899D01*
X37868017Y-103398722D01*
X37868018Y-103398724D01*
X37874293Y-103409334D01*
X37882988Y-103427082D01*
X37890448Y-103445923D01*
X37895110Y-103452339D01*
X37895110Y-103452340D01*
X37916436Y-103481693D01*
X37922952Y-103491613D01*
X37945458Y-103529668D01*
X37959782Y-103543992D01*
X37972617Y-103559019D01*
X37984528Y-103575413D01*
X37990636Y-103580466D01*
X37990638Y-103580468D01*
X38018592Y-103603593D01*
X38027373Y-103611583D01*
X38095354Y-103679565D01*
X38152576Y-103736787D01*
X38152591Y-103736801D01*
X44033043Y-109617253D01*
X44040583Y-109625539D01*
X44044695Y-109632018D01*
X44050472Y-109637443D01*
X44094346Y-109678643D01*
X44097188Y-109681398D01*
X44116925Y-109701135D01*
X44120122Y-109703615D01*
X44129142Y-109711318D01*
X44161374Y-109741586D01*
X44168320Y-109745405D01*
X44168323Y-109745407D01*
X44179129Y-109751348D01*
X44195648Y-109762199D01*
X44211654Y-109774614D01*
X44218923Y-109777759D01*
X44218927Y-109777762D01*
X44252232Y-109792174D01*
X44262882Y-109797391D01*
X44301635Y-109818695D01*
X44309310Y-109820666D01*
X44309311Y-109820666D01*
X44321257Y-109823733D01*
X44339962Y-109830137D01*
X44358550Y-109838181D01*
X44366373Y-109839420D01*
X44366383Y-109839423D01*
X44402219Y-109845099D01*
X44413839Y-109847505D01*
X44448984Y-109856528D01*
X44456665Y-109858500D01*
X44476919Y-109858500D01*
X44496629Y-109860051D01*
X44516638Y-109863220D01*
X44524530Y-109862474D01*
X44560656Y-109859059D01*
X44572514Y-109858500D01*
X47901800Y-109858500D01*
X47969921Y-109878502D01*
X47989147Y-109894843D01*
X47989420Y-109894540D01*
X47994332Y-109898963D01*
X47998747Y-109903866D01*
X48153248Y-110016118D01*
X48159276Y-110018802D01*
X48159278Y-110018803D01*
X48321681Y-110091109D01*
X48327712Y-110093794D01*
X48412160Y-110111744D01*
X48508056Y-110132128D01*
X48508061Y-110132128D01*
X48514513Y-110133500D01*
X48705487Y-110133500D01*
X48711939Y-110132128D01*
X48711944Y-110132128D01*
X48807840Y-110111744D01*
X48892288Y-110093794D01*
X48898319Y-110091109D01*
X49060722Y-110018803D01*
X49060724Y-110018802D01*
X49066752Y-110016118D01*
X49221253Y-109903866D01*
X49278365Y-109840436D01*
X49338810Y-109803198D01*
X49409794Y-109804550D01*
X49465634Y-109840436D01*
X49522747Y-109903866D01*
X49677248Y-110016118D01*
X49683276Y-110018802D01*
X49683278Y-110018803D01*
X49845681Y-110091109D01*
X49851712Y-110093794D01*
X49936160Y-110111744D01*
X50032056Y-110132128D01*
X50032061Y-110132128D01*
X50038513Y-110133500D01*
X50229487Y-110133500D01*
X50235939Y-110132128D01*
X50235944Y-110132128D01*
X50331840Y-110111744D01*
X50416288Y-110093794D01*
X50422319Y-110091109D01*
X50584722Y-110018803D01*
X50584724Y-110018802D01*
X50590752Y-110016118D01*
X50745253Y-109903866D01*
X50802365Y-109840436D01*
X50862810Y-109803198D01*
X50933794Y-109804550D01*
X50989634Y-109840436D01*
X51046747Y-109903866D01*
X51201248Y-110016118D01*
X51207276Y-110018802D01*
X51207278Y-110018803D01*
X51369681Y-110091109D01*
X51375712Y-110093794D01*
X51460160Y-110111744D01*
X51556056Y-110132128D01*
X51556061Y-110132128D01*
X51562513Y-110133500D01*
X51753487Y-110133500D01*
X51759939Y-110132128D01*
X51759944Y-110132128D01*
X51855840Y-110111744D01*
X51940288Y-110093794D01*
X51946319Y-110091109D01*
X52108722Y-110018803D01*
X52108724Y-110018802D01*
X52114752Y-110016118D01*
X52269253Y-109903866D01*
X52305851Y-109863220D01*
X52392621Y-109766852D01*
X52392622Y-109766851D01*
X52397040Y-109761944D01*
X52492527Y-109596556D01*
X52551542Y-109414928D01*
X52571504Y-109225000D01*
X52551542Y-109035072D01*
X52492527Y-108853444D01*
X52397040Y-108688056D01*
X52359898Y-108646805D01*
X52273675Y-108551045D01*
X52273674Y-108551044D01*
X52269253Y-108546134D01*
X52114752Y-108433882D01*
X52108724Y-108431198D01*
X52108722Y-108431197D01*
X51976268Y-108372225D01*
X51938422Y-108346213D01*
X47265210Y-103673000D01*
X53385496Y-103673000D01*
X53405458Y-103862928D01*
X53464473Y-104044556D01*
X53559960Y-104209944D01*
X53687747Y-104351866D01*
X53842248Y-104464118D01*
X53848276Y-104466802D01*
X53848278Y-104466803D01*
X54010681Y-104539109D01*
X54016712Y-104541794D01*
X54110113Y-104561647D01*
X54197056Y-104580128D01*
X54197061Y-104580128D01*
X54203513Y-104581500D01*
X54394487Y-104581500D01*
X54400939Y-104580128D01*
X54400944Y-104580128D01*
X54487887Y-104561647D01*
X54581288Y-104541794D01*
X54587319Y-104539109D01*
X54749722Y-104466803D01*
X54749724Y-104466802D01*
X54755752Y-104464118D01*
X54910253Y-104351866D01*
X55038040Y-104209944D01*
X55133527Y-104044556D01*
X55192542Y-103862928D01*
X55212504Y-103673000D01*
X55198029Y-103535279D01*
X55193232Y-103489635D01*
X55193232Y-103489633D01*
X55192542Y-103483072D01*
X55133527Y-103301444D01*
X55038040Y-103136056D01*
X54964863Y-103054785D01*
X54934147Y-102990779D01*
X54932500Y-102970476D01*
X54932500Y-101835524D01*
X54952502Y-101767403D01*
X54964858Y-101751221D01*
X55038040Y-101669944D01*
X55133527Y-101504556D01*
X55192542Y-101322928D01*
X55212504Y-101133000D01*
X55192542Y-100943072D01*
X55133527Y-100761444D01*
X55038040Y-100596056D01*
X54910253Y-100454134D01*
X54755752Y-100341882D01*
X54749724Y-100339198D01*
X54749722Y-100339197D01*
X54587319Y-100266891D01*
X54587318Y-100266891D01*
X54581288Y-100264206D01*
X54475783Y-100241780D01*
X54400944Y-100225872D01*
X54400939Y-100225872D01*
X54394487Y-100224500D01*
X54203513Y-100224500D01*
X54197061Y-100225872D01*
X54197056Y-100225872D01*
X54122217Y-100241780D01*
X54016712Y-100264206D01*
X54010682Y-100266891D01*
X54010681Y-100266891D01*
X53848278Y-100339197D01*
X53848276Y-100339198D01*
X53842248Y-100341882D01*
X53687747Y-100454134D01*
X53559960Y-100596056D01*
X53464473Y-100761444D01*
X53405458Y-100943072D01*
X53385496Y-101133000D01*
X53405458Y-101322928D01*
X53464473Y-101504556D01*
X53559960Y-101669944D01*
X53633137Y-101751215D01*
X53663853Y-101815221D01*
X53665500Y-101835524D01*
X53665500Y-102970476D01*
X53645498Y-103038597D01*
X53633142Y-103054779D01*
X53559960Y-103136056D01*
X53464473Y-103301444D01*
X53405458Y-103483072D01*
X53404768Y-103489633D01*
X53404768Y-103489635D01*
X53399971Y-103535279D01*
X53385496Y-103673000D01*
X47265210Y-103673000D01*
X44079957Y-100487747D01*
X44072417Y-100479461D01*
X44068305Y-100472982D01*
X44053464Y-100459045D01*
X44018654Y-100426357D01*
X44015812Y-100423602D01*
X43996075Y-100403865D01*
X43992878Y-100401385D01*
X43983856Y-100393680D01*
X43951626Y-100363414D01*
X43944680Y-100359595D01*
X43944677Y-100359593D01*
X43933871Y-100353652D01*
X43917352Y-100342801D01*
X43916167Y-100341882D01*
X43901346Y-100330386D01*
X43894077Y-100327241D01*
X43894073Y-100327238D01*
X43860768Y-100312826D01*
X43850118Y-100307609D01*
X43811365Y-100286305D01*
X43791742Y-100281267D01*
X43773039Y-100274863D01*
X43761725Y-100269967D01*
X43761724Y-100269967D01*
X43754450Y-100266819D01*
X43746627Y-100265580D01*
X43746617Y-100265577D01*
X43710781Y-100259901D01*
X43699161Y-100257495D01*
X43664016Y-100248472D01*
X43664015Y-100248472D01*
X43656335Y-100246500D01*
X43636081Y-100246500D01*
X43616370Y-100244949D01*
X43604191Y-100243020D01*
X43596362Y-100241780D01*
X43588470Y-100242526D01*
X43552344Y-100245941D01*
X43540486Y-100246500D01*
X43373595Y-100246500D01*
X43305474Y-100226498D01*
X43284500Y-100209595D01*
X42117772Y-99042867D01*
X42083746Y-98980555D01*
X42080867Y-98953772D01*
X42080867Y-97982532D01*
X42100869Y-97914411D01*
X42113225Y-97898229D01*
X42186407Y-97816952D01*
X42281894Y-97651564D01*
X42340909Y-97469936D01*
X42342315Y-97456565D01*
X42360181Y-97286573D01*
X42360871Y-97280008D01*
X42350042Y-97176979D01*
X42341599Y-97096643D01*
X42341599Y-97096641D01*
X42340909Y-97090080D01*
X42281894Y-96908452D01*
X42274994Y-96896500D01*
X42244681Y-96843998D01*
X42186407Y-96743064D01*
X42175122Y-96730530D01*
X42063042Y-96606053D01*
X42063041Y-96606052D01*
X42058620Y-96601142D01*
X41904119Y-96488890D01*
X41898091Y-96486206D01*
X41898089Y-96486205D01*
X41735686Y-96413899D01*
X41735685Y-96413899D01*
X41729655Y-96411214D01*
X41636255Y-96391361D01*
X41549311Y-96372880D01*
X41549306Y-96372880D01*
X41542854Y-96371508D01*
X41351880Y-96371508D01*
X41345428Y-96372880D01*
X41345423Y-96372880D01*
X41304697Y-96381537D01*
X41233906Y-96376135D01*
X41177273Y-96333318D01*
X41152780Y-96266680D01*
X41152500Y-96258290D01*
X41152500Y-88016000D01*
X44246996Y-88016000D01*
X44266958Y-88205928D01*
X44325973Y-88387556D01*
X44421460Y-88552944D01*
X44549247Y-88694866D01*
X44703748Y-88807118D01*
X44709776Y-88809802D01*
X44709778Y-88809803D01*
X44802147Y-88850928D01*
X44878212Y-88884794D01*
X44971613Y-88904647D01*
X45058556Y-88923128D01*
X45058561Y-88923128D01*
X45065013Y-88924500D01*
X45255987Y-88924500D01*
X45262439Y-88923128D01*
X45262444Y-88923128D01*
X45349387Y-88904647D01*
X45442788Y-88884794D01*
X45533272Y-88844508D01*
X45603639Y-88835074D01*
X45667936Y-88865180D01*
X45673616Y-88870520D01*
X55559595Y-98756499D01*
X55593621Y-98818811D01*
X55596500Y-98845594D01*
X55596500Y-108522476D01*
X55576498Y-108590597D01*
X55564142Y-108606779D01*
X55490960Y-108688056D01*
X55395473Y-108853444D01*
X55336458Y-109035072D01*
X55316496Y-109225000D01*
X55336458Y-109414928D01*
X55395473Y-109596556D01*
X55490960Y-109761944D01*
X55495378Y-109766851D01*
X55495379Y-109766852D01*
X55582149Y-109863220D01*
X55618747Y-109903866D01*
X55773248Y-110016118D01*
X55779276Y-110018802D01*
X55779278Y-110018803D01*
X55941681Y-110091109D01*
X55947712Y-110093794D01*
X56032160Y-110111744D01*
X56128056Y-110132128D01*
X56128061Y-110132128D01*
X56134513Y-110133500D01*
X56325487Y-110133500D01*
X56331939Y-110132128D01*
X56331944Y-110132128D01*
X56427840Y-110111744D01*
X56512288Y-110093794D01*
X56518319Y-110091109D01*
X56680722Y-110018803D01*
X56680724Y-110018802D01*
X56686752Y-110016118D01*
X56841253Y-109903866D01*
X56844683Y-109900056D01*
X56908196Y-109869576D01*
X56978649Y-109878339D01*
X57012145Y-109899865D01*
X57015747Y-109903866D01*
X57170248Y-110016118D01*
X57176276Y-110018802D01*
X57176278Y-110018803D01*
X57338681Y-110091109D01*
X57344712Y-110093794D01*
X57429160Y-110111744D01*
X57525056Y-110132128D01*
X57525061Y-110132128D01*
X57531513Y-110133500D01*
X57722487Y-110133500D01*
X57728939Y-110132128D01*
X57728944Y-110132128D01*
X57824840Y-110111744D01*
X57909288Y-110093794D01*
X57915319Y-110091109D01*
X58077722Y-110018803D01*
X58077724Y-110018802D01*
X58083752Y-110016118D01*
X58238253Y-109903866D01*
X58295365Y-109840436D01*
X58355810Y-109803198D01*
X58426794Y-109804550D01*
X58482634Y-109840436D01*
X58539747Y-109903866D01*
X58694248Y-110016118D01*
X58700276Y-110018802D01*
X58700278Y-110018803D01*
X58862681Y-110091109D01*
X58868712Y-110093794D01*
X58953160Y-110111744D01*
X59049056Y-110132128D01*
X59049061Y-110132128D01*
X59055513Y-110133500D01*
X59246487Y-110133500D01*
X59252939Y-110132128D01*
X59252944Y-110132128D01*
X59348840Y-110111744D01*
X59433288Y-110093794D01*
X59439319Y-110091109D01*
X59601722Y-110018803D01*
X59601724Y-110018802D01*
X59607752Y-110016118D01*
X59762253Y-109903866D01*
X59798851Y-109863220D01*
X59885621Y-109766852D01*
X59885622Y-109766851D01*
X59890040Y-109761944D01*
X59985527Y-109596556D01*
X60044542Y-109414928D01*
X60064504Y-109225000D01*
X60044542Y-109035072D01*
X59985527Y-108853444D01*
X59890040Y-108688056D01*
X59816863Y-108606785D01*
X59786147Y-108542779D01*
X59784500Y-108522476D01*
X59784500Y-98614505D01*
X59785027Y-98603322D01*
X59786702Y-98595829D01*
X59784562Y-98527752D01*
X59784500Y-98523793D01*
X59784500Y-98495882D01*
X59783995Y-98491882D01*
X59783062Y-98480039D01*
X59781922Y-98443768D01*
X59781673Y-98435849D01*
X59776021Y-98416395D01*
X59772013Y-98397038D01*
X59770468Y-98384808D01*
X59770468Y-98384807D01*
X59769474Y-98376941D01*
X59765736Y-98367499D01*
X59753196Y-98335826D01*
X59749351Y-98324596D01*
X59739229Y-98289755D01*
X59739229Y-98289754D01*
X59737018Y-98282145D01*
X59732985Y-98275326D01*
X59732983Y-98275321D01*
X59726707Y-98264710D01*
X59718012Y-98246962D01*
X59710552Y-98228121D01*
X59684564Y-98192351D01*
X59678048Y-98182431D01*
X59659580Y-98151203D01*
X59659578Y-98151200D01*
X59655542Y-98144376D01*
X59641221Y-98130055D01*
X59628380Y-98115021D01*
X59621131Y-98105044D01*
X59616472Y-98098631D01*
X59582395Y-98070440D01*
X59573616Y-98062450D01*
X49557622Y-88046455D01*
X49523596Y-87984143D01*
X49521407Y-87970530D01*
X49521168Y-87968251D01*
X49509778Y-87859882D01*
X49504732Y-87811873D01*
X49504732Y-87811871D01*
X49504042Y-87805310D01*
X49445027Y-87623682D01*
X49349540Y-87458294D01*
X49345116Y-87453380D01*
X49226175Y-87321283D01*
X49226174Y-87321282D01*
X49221753Y-87316372D01*
X49067252Y-87204120D01*
X49061224Y-87201436D01*
X49061222Y-87201435D01*
X48898819Y-87129129D01*
X48898818Y-87129129D01*
X48892788Y-87126444D01*
X48799387Y-87106591D01*
X48712444Y-87088110D01*
X48712439Y-87088110D01*
X48705987Y-87086738D01*
X48515013Y-87086738D01*
X48508561Y-87088110D01*
X48508556Y-87088110D01*
X48421613Y-87106591D01*
X48328212Y-87126444D01*
X48322182Y-87129129D01*
X48322181Y-87129129D01*
X48159778Y-87201435D01*
X48159776Y-87201436D01*
X48153748Y-87204120D01*
X47999247Y-87316372D01*
X47871460Y-87458294D01*
X47870946Y-87459185D01*
X47816365Y-87501274D01*
X47745629Y-87507351D01*
X47682837Y-87474221D01*
X47677013Y-87468171D01*
X47675406Y-87466386D01*
X47568306Y-87347439D01*
X47413805Y-87235187D01*
X47407777Y-87232503D01*
X47407775Y-87232502D01*
X47245372Y-87160196D01*
X47245371Y-87160196D01*
X47239341Y-87157511D01*
X47145941Y-87137658D01*
X47058997Y-87119177D01*
X47058992Y-87119177D01*
X47052540Y-87117805D01*
X46861566Y-87117805D01*
X46855114Y-87119177D01*
X46855109Y-87119177D01*
X46768165Y-87137658D01*
X46674765Y-87157511D01*
X46668735Y-87160196D01*
X46668734Y-87160196D01*
X46506331Y-87232502D01*
X46506329Y-87232503D01*
X46500301Y-87235187D01*
X46345800Y-87347439D01*
X46240838Y-87464012D01*
X46236503Y-87468826D01*
X46176057Y-87506066D01*
X46105074Y-87504714D01*
X46082160Y-87494927D01*
X46077574Y-87492406D01*
X46072560Y-87489649D01*
X46056047Y-87478801D01*
X46050048Y-87474148D01*
X46040041Y-87466386D01*
X46032772Y-87463241D01*
X46032768Y-87463238D01*
X45999463Y-87448826D01*
X45988813Y-87443609D01*
X45950060Y-87422305D01*
X45930437Y-87417267D01*
X45911734Y-87410863D01*
X45900420Y-87405967D01*
X45900419Y-87405967D01*
X45893145Y-87402819D01*
X45885322Y-87401580D01*
X45885312Y-87401577D01*
X45864609Y-87398298D01*
X45800457Y-87367885D01*
X45790686Y-87358161D01*
X45776173Y-87342043D01*
X45771753Y-87337134D01*
X45749937Y-87321283D01*
X45622594Y-87228763D01*
X45622593Y-87228762D01*
X45617252Y-87224882D01*
X45611224Y-87222198D01*
X45611222Y-87222197D01*
X45448819Y-87149891D01*
X45448818Y-87149891D01*
X45442788Y-87147206D01*
X45345111Y-87126444D01*
X45262444Y-87108872D01*
X45262439Y-87108872D01*
X45255987Y-87107500D01*
X45065013Y-87107500D01*
X45058561Y-87108872D01*
X45058556Y-87108872D01*
X44975889Y-87126444D01*
X44878212Y-87147206D01*
X44872182Y-87149891D01*
X44872181Y-87149891D01*
X44709778Y-87222197D01*
X44709776Y-87222198D01*
X44703748Y-87224882D01*
X44549247Y-87337134D01*
X44544827Y-87342043D01*
X44544825Y-87342045D01*
X44435006Y-87464012D01*
X44421460Y-87479056D01*
X44325973Y-87644444D01*
X44266958Y-87826072D01*
X44266268Y-87832633D01*
X44266268Y-87832635D01*
X44250555Y-87982134D01*
X44246996Y-88016000D01*
X41152500Y-88016000D01*
X41152500Y-86147000D01*
X71292496Y-86147000D01*
X71312458Y-86336928D01*
X71371473Y-86518556D01*
X71466960Y-86683944D01*
X71594747Y-86825866D01*
X71749248Y-86938118D01*
X71755276Y-86940802D01*
X71755278Y-86940803D01*
X71917681Y-87013109D01*
X71923712Y-87015794D01*
X72017113Y-87035647D01*
X72104056Y-87054128D01*
X72104061Y-87054128D01*
X72110513Y-87055500D01*
X72166406Y-87055500D01*
X72234527Y-87075502D01*
X72255501Y-87092405D01*
X76488595Y-91325500D01*
X76522621Y-91387812D01*
X76525500Y-91414595D01*
X76525500Y-98514233D01*
X76524973Y-98525416D01*
X76523298Y-98532909D01*
X76523547Y-98540835D01*
X76523547Y-98540836D01*
X76525438Y-98600986D01*
X76525500Y-98604945D01*
X76525500Y-98632856D01*
X76525997Y-98636790D01*
X76525997Y-98636791D01*
X76526005Y-98636856D01*
X76526938Y-98648693D01*
X76528327Y-98692889D01*
X76533185Y-98709609D01*
X76533978Y-98712339D01*
X76537987Y-98731700D01*
X76540526Y-98751797D01*
X76543445Y-98759168D01*
X76543445Y-98759170D01*
X76556804Y-98792912D01*
X76560649Y-98804142D01*
X76567771Y-98828657D01*
X76572982Y-98846593D01*
X76577015Y-98853412D01*
X76577017Y-98853417D01*
X76583293Y-98864028D01*
X76591988Y-98881776D01*
X76599448Y-98900617D01*
X76604110Y-98907033D01*
X76604110Y-98907034D01*
X76625436Y-98936387D01*
X76631952Y-98946307D01*
X76654458Y-98984362D01*
X76668779Y-98998683D01*
X76681619Y-99013716D01*
X76693528Y-99030107D01*
X76699634Y-99035158D01*
X76727605Y-99058298D01*
X76736384Y-99066288D01*
X83258458Y-105588362D01*
X84021348Y-106351253D01*
X84028888Y-106359539D01*
X84033000Y-106366018D01*
X84038777Y-106371443D01*
X84082651Y-106412643D01*
X84085493Y-106415398D01*
X84105230Y-106435135D01*
X84108427Y-106437615D01*
X84117447Y-106445318D01*
X84149679Y-106475586D01*
X84156625Y-106479405D01*
X84156628Y-106479407D01*
X84167434Y-106485348D01*
X84183953Y-106496199D01*
X84199959Y-106508614D01*
X84207228Y-106511759D01*
X84207232Y-106511762D01*
X84240537Y-106526174D01*
X84251187Y-106531391D01*
X84289940Y-106552695D01*
X84297615Y-106554666D01*
X84297616Y-106554666D01*
X84309562Y-106557733D01*
X84328267Y-106564137D01*
X84346855Y-106572181D01*
X84354678Y-106573420D01*
X84354688Y-106573423D01*
X84390524Y-106579099D01*
X84402144Y-106581505D01*
X84437289Y-106590528D01*
X84444970Y-106592500D01*
X84465224Y-106592500D01*
X84484934Y-106594051D01*
X84504943Y-106597220D01*
X84512835Y-106596474D01*
X84548961Y-106593059D01*
X84560819Y-106592500D01*
X90674800Y-106592500D01*
X90742921Y-106612502D01*
X90762147Y-106628843D01*
X90762420Y-106628540D01*
X90767332Y-106632963D01*
X90771747Y-106637866D01*
X90926248Y-106750118D01*
X90932276Y-106752802D01*
X90932278Y-106752803D01*
X91094681Y-106825109D01*
X91100712Y-106827794D01*
X91194113Y-106847647D01*
X91281056Y-106866128D01*
X91281061Y-106866128D01*
X91287513Y-106867500D01*
X91478487Y-106867500D01*
X91484939Y-106866128D01*
X91484944Y-106866128D01*
X91571888Y-106847647D01*
X91665288Y-106827794D01*
X91671319Y-106825109D01*
X91833722Y-106752803D01*
X91833724Y-106752802D01*
X91839752Y-106750118D01*
X91994253Y-106637866D01*
X92030851Y-106597220D01*
X92117621Y-106500852D01*
X92117622Y-106500851D01*
X92122040Y-106495944D01*
X92217527Y-106330556D01*
X92276542Y-106148928D01*
X92296504Y-105959000D01*
X92276542Y-105769072D01*
X92217527Y-105587444D01*
X92122040Y-105422056D01*
X91994253Y-105280134D01*
X91839752Y-105167882D01*
X91833724Y-105165198D01*
X91833722Y-105165197D01*
X91671319Y-105092891D01*
X91671318Y-105092891D01*
X91665288Y-105090206D01*
X91571887Y-105070353D01*
X91484944Y-105051872D01*
X91484939Y-105051872D01*
X91478487Y-105050500D01*
X91287513Y-105050500D01*
X91281061Y-105051872D01*
X91281056Y-105051872D01*
X91194113Y-105070353D01*
X91100712Y-105090206D01*
X91094682Y-105092891D01*
X91094681Y-105092891D01*
X90932278Y-105165197D01*
X90932276Y-105165198D01*
X90926248Y-105167882D01*
X90920907Y-105171762D01*
X90920906Y-105171763D01*
X90800758Y-105259056D01*
X90771747Y-105280134D01*
X90767332Y-105285037D01*
X90762420Y-105289460D01*
X90761295Y-105288211D01*
X90707986Y-105321051D01*
X90674800Y-105325500D01*
X84839595Y-105325500D01*
X84771474Y-105305498D01*
X84750499Y-105288595D01*
X84470668Y-105008763D01*
X77829404Y-98367499D01*
X77795379Y-98305187D01*
X77792500Y-98278404D01*
X77792500Y-96916000D01*
X81161496Y-96916000D01*
X81162186Y-96922565D01*
X81179230Y-97084725D01*
X81181458Y-97105928D01*
X81240473Y-97287556D01*
X81335960Y-97452944D01*
X81340378Y-97457851D01*
X81340379Y-97457852D01*
X81427098Y-97554163D01*
X81463747Y-97594866D01*
X81618248Y-97707118D01*
X81624276Y-97709802D01*
X81624278Y-97709803D01*
X81647015Y-97719926D01*
X81792712Y-97784794D01*
X81886112Y-97804647D01*
X81973056Y-97823128D01*
X81973061Y-97823128D01*
X81979513Y-97824500D01*
X82035406Y-97824500D01*
X82103527Y-97844502D01*
X82124501Y-97861405D01*
X83290425Y-99027330D01*
X84455348Y-100192253D01*
X84462888Y-100200539D01*
X84467000Y-100207018D01*
X84472777Y-100212443D01*
X84516651Y-100253643D01*
X84519493Y-100256398D01*
X84539230Y-100276135D01*
X84542427Y-100278615D01*
X84551447Y-100286318D01*
X84583679Y-100316586D01*
X84590625Y-100320405D01*
X84590628Y-100320407D01*
X84601434Y-100326348D01*
X84617953Y-100337199D01*
X84633959Y-100349614D01*
X84641228Y-100352759D01*
X84641232Y-100352762D01*
X84674537Y-100367174D01*
X84685187Y-100372391D01*
X84723940Y-100393695D01*
X84731615Y-100395666D01*
X84731616Y-100395666D01*
X84743562Y-100398733D01*
X84762266Y-100405137D01*
X84765807Y-100406669D01*
X84780855Y-100413181D01*
X84788678Y-100414420D01*
X84788688Y-100414423D01*
X84824524Y-100420099D01*
X84836144Y-100422505D01*
X84871289Y-100431528D01*
X84878970Y-100433500D01*
X84899224Y-100433500D01*
X84918934Y-100435051D01*
X84938943Y-100438220D01*
X84946835Y-100437474D01*
X84982961Y-100434059D01*
X84994819Y-100433500D01*
X94290627Y-100433500D01*
X94358748Y-100453502D01*
X94405241Y-100507158D01*
X94415345Y-100577432D01*
X94410462Y-100598430D01*
X94389458Y-100663072D01*
X94369496Y-100853000D01*
X94370186Y-100859565D01*
X94387783Y-101026988D01*
X94389458Y-101042928D01*
X94391497Y-101049203D01*
X94391498Y-101049208D01*
X94398437Y-101070562D01*
X94400466Y-101141529D01*
X94363805Y-101202328D01*
X94300093Y-101233654D01*
X94278605Y-101235500D01*
X89133200Y-101235500D01*
X89065079Y-101215498D01*
X89045853Y-101199157D01*
X89045580Y-101199460D01*
X89040668Y-101195037D01*
X89036253Y-101190134D01*
X88881752Y-101077882D01*
X88875724Y-101075198D01*
X88875722Y-101075197D01*
X88713319Y-101002891D01*
X88713318Y-101002891D01*
X88707288Y-101000206D01*
X88613888Y-100980353D01*
X88526944Y-100961872D01*
X88526939Y-100961872D01*
X88520487Y-100960500D01*
X88329513Y-100960500D01*
X88323061Y-100961872D01*
X88323056Y-100961872D01*
X88236112Y-100980353D01*
X88142712Y-101000206D01*
X88136682Y-101002891D01*
X88136681Y-101002891D01*
X87974278Y-101075197D01*
X87974276Y-101075198D01*
X87968248Y-101077882D01*
X87813747Y-101190134D01*
X87809326Y-101195044D01*
X87809325Y-101195045D01*
X87775492Y-101232621D01*
X87685960Y-101332056D01*
X87590473Y-101497444D01*
X87531458Y-101679072D01*
X87511496Y-101869000D01*
X87531458Y-102058928D01*
X87590473Y-102240556D01*
X87685960Y-102405944D01*
X87690378Y-102410851D01*
X87690379Y-102410852D01*
X87805350Y-102538540D01*
X87813747Y-102547866D01*
X87968248Y-102660118D01*
X87974276Y-102662802D01*
X87974278Y-102662803D01*
X88082558Y-102711012D01*
X88142712Y-102737794D01*
X88236113Y-102757647D01*
X88323056Y-102776128D01*
X88323061Y-102776128D01*
X88329513Y-102777500D01*
X88520487Y-102777500D01*
X88526939Y-102776128D01*
X88526944Y-102776128D01*
X88613887Y-102757647D01*
X88707288Y-102737794D01*
X88767442Y-102711012D01*
X88875722Y-102662803D01*
X88875724Y-102662802D01*
X88881752Y-102660118D01*
X89036253Y-102547866D01*
X89040668Y-102542963D01*
X89045580Y-102538540D01*
X89046705Y-102539789D01*
X89100014Y-102506949D01*
X89133200Y-102502500D01*
X100066406Y-102502500D01*
X100134527Y-102522502D01*
X100181020Y-102576158D01*
X100191124Y-102646432D01*
X100161630Y-102711012D01*
X100155501Y-102717595D01*
X91141345Y-111731750D01*
X91079033Y-111765776D01*
X91030154Y-111766702D01*
X90817373Y-111728800D01*
X90817367Y-111728799D01*
X90812284Y-111727894D01*
X90738452Y-111726992D01*
X90594081Y-111725228D01*
X90594079Y-111725228D01*
X90588911Y-111725165D01*
X90368091Y-111758955D01*
X90155756Y-111828357D01*
X89957607Y-111931507D01*
X89953474Y-111934610D01*
X89953471Y-111934612D01*
X89783100Y-112062530D01*
X89778965Y-112065635D01*
X89722537Y-112124684D01*
X89698283Y-112150064D01*
X89636759Y-112185494D01*
X89565846Y-112182037D01*
X89508060Y-112140791D01*
X89489207Y-112107243D01*
X89447767Y-111996703D01*
X89444615Y-111988295D01*
X89357261Y-111871739D01*
X89240705Y-111784385D01*
X89104316Y-111733255D01*
X89042134Y-111726500D01*
X87245866Y-111726500D01*
X87183684Y-111733255D01*
X87047295Y-111784385D01*
X86930739Y-111871739D01*
X86843385Y-111988295D01*
X86792255Y-112124684D01*
X86785500Y-112186866D01*
X86785500Y-113983134D01*
X86792255Y-114045316D01*
X86843385Y-114181705D01*
X86930739Y-114298261D01*
X87047295Y-114385615D01*
X87055704Y-114388767D01*
X87055705Y-114388768D01*
X87164451Y-114429535D01*
X87221216Y-114472176D01*
X87245916Y-114538738D01*
X87230709Y-114608087D01*
X87211316Y-114634568D01*
X87112763Y-114737698D01*
X87084629Y-114767138D01*
X87081720Y-114771403D01*
X87081714Y-114771411D01*
X86996556Y-114896249D01*
X86958743Y-114951680D01*
X86943003Y-114985590D01*
X86878171Y-115125259D01*
X86864688Y-115154305D01*
X86804989Y-115369570D01*
X86781251Y-115591695D01*
X86781548Y-115596848D01*
X86781548Y-115596851D01*
X86787011Y-115691590D01*
X86794110Y-115814715D01*
X86795247Y-115819761D01*
X86795248Y-115819767D01*
X86816275Y-115913069D01*
X86843222Y-116032639D01*
X86927266Y-116239616D01*
X86978019Y-116322438D01*
X87041291Y-116425688D01*
X87043987Y-116430088D01*
X87190250Y-116598938D01*
X87362126Y-116741632D01*
X87555000Y-116854338D01*
X87559825Y-116856180D01*
X87559826Y-116856181D01*
X87589240Y-116867413D01*
X87763692Y-116934030D01*
X87768760Y-116935061D01*
X87768763Y-116935062D01*
X87867750Y-116955201D01*
X87982597Y-116978567D01*
X87987772Y-116978757D01*
X87987774Y-116978757D01*
X88200673Y-116986564D01*
X88200677Y-116986564D01*
X88205837Y-116986753D01*
X88210957Y-116986097D01*
X88210959Y-116986097D01*
X88422288Y-116959025D01*
X88422289Y-116959025D01*
X88427416Y-116958368D01*
X88477350Y-116943387D01*
X88636429Y-116895661D01*
X88636434Y-116895659D01*
X88641384Y-116894174D01*
X88841994Y-116795896D01*
X89023860Y-116666173D01*
X89182096Y-116508489D01*
X89241594Y-116425689D01*
X89312453Y-116327077D01*
X89313776Y-116328028D01*
X89360645Y-116284857D01*
X89430580Y-116272625D01*
X89496026Y-116300144D01*
X89523875Y-116331994D01*
X89583987Y-116430088D01*
X89730250Y-116598938D01*
X89902126Y-116741632D01*
X90095000Y-116854338D01*
X90099825Y-116856180D01*
X90099826Y-116856181D01*
X90129240Y-116867413D01*
X90303692Y-116934030D01*
X90308760Y-116935061D01*
X90308763Y-116935062D01*
X90407750Y-116955201D01*
X90522597Y-116978567D01*
X90527772Y-116978757D01*
X90527774Y-116978757D01*
X90740673Y-116986564D01*
X90740677Y-116986564D01*
X90745837Y-116986753D01*
X90750957Y-116986097D01*
X90750959Y-116986097D01*
X90962288Y-116959025D01*
X90962289Y-116959025D01*
X90967416Y-116958368D01*
X91017350Y-116943387D01*
X91176429Y-116895661D01*
X91176434Y-116895659D01*
X91181384Y-116894174D01*
X91381994Y-116795896D01*
X91563860Y-116666173D01*
X91722096Y-116508489D01*
X91781594Y-116425689D01*
X91852453Y-116327077D01*
X91853776Y-116328028D01*
X91900645Y-116284857D01*
X91970580Y-116272625D01*
X92036026Y-116300144D01*
X92063875Y-116331994D01*
X92123987Y-116430088D01*
X92270250Y-116598938D01*
X92442126Y-116741632D01*
X92635000Y-116854338D01*
X92639825Y-116856180D01*
X92639826Y-116856181D01*
X92669240Y-116867413D01*
X92843692Y-116934030D01*
X92848760Y-116935061D01*
X92848763Y-116935062D01*
X92947750Y-116955201D01*
X93062597Y-116978567D01*
X93067772Y-116978757D01*
X93067774Y-116978757D01*
X93280673Y-116986564D01*
X93280677Y-116986564D01*
X93285837Y-116986753D01*
X93290957Y-116986097D01*
X93290959Y-116986097D01*
X93502288Y-116959025D01*
X93502289Y-116959025D01*
X93507416Y-116958368D01*
X93557350Y-116943387D01*
X93716429Y-116895661D01*
X93716434Y-116895659D01*
X93721384Y-116894174D01*
X93921994Y-116795896D01*
X94103860Y-116666173D01*
X94262096Y-116508489D01*
X94321594Y-116425689D01*
X94392453Y-116327077D01*
X94393776Y-116328028D01*
X94440645Y-116284857D01*
X94510580Y-116272625D01*
X94576026Y-116300144D01*
X94603875Y-116331994D01*
X94663987Y-116430088D01*
X94810250Y-116598938D01*
X94982126Y-116741632D01*
X95175000Y-116854338D01*
X95179825Y-116856180D01*
X95179826Y-116856181D01*
X95209240Y-116867413D01*
X95383692Y-116934030D01*
X95388760Y-116935061D01*
X95388763Y-116935062D01*
X95487750Y-116955201D01*
X95602597Y-116978567D01*
X95607772Y-116978757D01*
X95607774Y-116978757D01*
X95820673Y-116986564D01*
X95820677Y-116986564D01*
X95825837Y-116986753D01*
X95830957Y-116986097D01*
X95830959Y-116986097D01*
X96042288Y-116959025D01*
X96042289Y-116959025D01*
X96047416Y-116958368D01*
X96097350Y-116943387D01*
X96256429Y-116895661D01*
X96256434Y-116895659D01*
X96261384Y-116894174D01*
X96461994Y-116795896D01*
X96643860Y-116666173D01*
X96775675Y-116534818D01*
X100155177Y-116534818D01*
X100161932Y-116597000D01*
X100213062Y-116733389D01*
X100300416Y-116849945D01*
X100416972Y-116937299D01*
X100553361Y-116988429D01*
X100615543Y-116995184D01*
X102411811Y-116995184D01*
X102473993Y-116988429D01*
X102610382Y-116937299D01*
X102726938Y-116849945D01*
X102814292Y-116733389D01*
X102858475Y-116615532D01*
X102901117Y-116558768D01*
X102967678Y-116534068D01*
X103037027Y-116549276D01*
X103071694Y-116577264D01*
X103096895Y-116606357D01*
X103104257Y-116613567D01*
X103268111Y-116749600D01*
X103276558Y-116755515D01*
X103460433Y-116862963D01*
X103469719Y-116867413D01*
X103668678Y-116943387D01*
X103678576Y-116946263D01*
X103781927Y-116967290D01*
X103795976Y-116966094D01*
X103799677Y-116955749D01*
X103799677Y-116955201D01*
X104307677Y-116955201D01*
X104311741Y-116969043D01*
X104325155Y-116971077D01*
X104331861Y-116970218D01*
X104341939Y-116968076D01*
X104545932Y-116906875D01*
X104555519Y-116903117D01*
X104746772Y-116809423D01*
X104755622Y-116804148D01*
X104929005Y-116680476D01*
X104936877Y-116673823D01*
X105087729Y-116523496D01*
X105094407Y-116515649D01*
X105218680Y-116342704D01*
X105223990Y-116333867D01*
X105318347Y-116142951D01*
X105322146Y-116133356D01*
X105384054Y-115929594D01*
X105386232Y-115919521D01*
X105387663Y-115908646D01*
X105385452Y-115894462D01*
X105372294Y-115890684D01*
X104325792Y-115890684D01*
X104310553Y-115895159D01*
X104309348Y-115896549D01*
X104307677Y-115904232D01*
X104307677Y-116955201D01*
X103799677Y-116955201D01*
X103799677Y-115364569D01*
X104307677Y-115364569D01*
X104312152Y-115379808D01*
X104313542Y-115381013D01*
X104321225Y-115382684D01*
X105372021Y-115382684D01*
X105385552Y-115378711D01*
X105386857Y-115369631D01*
X105344891Y-115202559D01*
X105341571Y-115192808D01*
X105256649Y-114997498D01*
X105251782Y-114988423D01*
X105136103Y-114809610D01*
X105129813Y-114801441D01*
X104986483Y-114643924D01*
X104978950Y-114636899D01*
X104811816Y-114504906D01*
X104803229Y-114499201D01*
X104616794Y-114396283D01*
X104607382Y-114392053D01*
X104406636Y-114320964D01*
X104396665Y-114318330D01*
X104325514Y-114305656D01*
X104312217Y-114307116D01*
X104307677Y-114321673D01*
X104307677Y-115364569D01*
X103799677Y-115364569D01*
X103799677Y-114319786D01*
X103795759Y-114306442D01*
X103781483Y-114304455D01*
X103743001Y-114310344D01*
X103732965Y-114312735D01*
X103530545Y-114378896D01*
X103521036Y-114382893D01*
X103332140Y-114481226D01*
X103323415Y-114486720D01*
X103153110Y-114614589D01*
X103145403Y-114621432D01*
X103068155Y-114702268D01*
X103006631Y-114737698D01*
X102935719Y-114734241D01*
X102877932Y-114692995D01*
X102859079Y-114659447D01*
X102817444Y-114548387D01*
X102814292Y-114539979D01*
X102726938Y-114423423D01*
X102610382Y-114336069D01*
X102473993Y-114284939D01*
X102411811Y-114278184D01*
X100615543Y-114278184D01*
X100553361Y-114284939D01*
X100416972Y-114336069D01*
X100300416Y-114423423D01*
X100213062Y-114539979D01*
X100161932Y-114676368D01*
X100155177Y-114738550D01*
X100155177Y-116534818D01*
X96775675Y-116534818D01*
X96802096Y-116508489D01*
X96861594Y-116425689D01*
X96929435Y-116331277D01*
X96932453Y-116327077D01*
X96953320Y-116284857D01*
X97029136Y-116131453D01*
X97029137Y-116131451D01*
X97031430Y-116126811D01*
X97096370Y-115913069D01*
X97125529Y-115691590D01*
X97125611Y-115688240D01*
X97127074Y-115628365D01*
X97127074Y-115628361D01*
X97127156Y-115625000D01*
X97108852Y-115402361D01*
X97054431Y-115185702D01*
X96965354Y-114980840D01*
X96923589Y-114916281D01*
X96846822Y-114797617D01*
X96846820Y-114797614D01*
X96844014Y-114793277D01*
X96693670Y-114628051D01*
X96689619Y-114624852D01*
X96689615Y-114624848D01*
X96522414Y-114492800D01*
X96522410Y-114492798D01*
X96518359Y-114489598D01*
X96477053Y-114466796D01*
X96427084Y-114416364D01*
X96412312Y-114346921D01*
X96437428Y-114280516D01*
X96464780Y-114253909D01*
X96526955Y-114209560D01*
X96643860Y-114126173D01*
X96802096Y-113968489D01*
X96932453Y-113787077D01*
X96953320Y-113744857D01*
X97029136Y-113591453D01*
X97029137Y-113591451D01*
X97031430Y-113586811D01*
X97096370Y-113373069D01*
X97125529Y-113151590D01*
X97127156Y-113085000D01*
X97108852Y-112862361D01*
X97104758Y-112846061D01*
X109430610Y-112846061D01*
X109431941Y-112872789D01*
X109445985Y-113154908D01*
X109447147Y-113178255D01*
X109447788Y-113181986D01*
X109447789Y-113181994D01*
X109481474Y-113378023D01*
X109503474Y-113506057D01*
X109504562Y-113509696D01*
X109504563Y-113509699D01*
X109586130Y-113782438D01*
X109598774Y-113824718D01*
X109600287Y-113828189D01*
X109600289Y-113828195D01*
X109659607Y-113964292D01*
X109731666Y-114129622D01*
X109733589Y-114132893D01*
X109733591Y-114132897D01*
X109774749Y-114202909D01*
X109900226Y-114416352D01*
X109902527Y-114419367D01*
X110099712Y-114677742D01*
X110099717Y-114677748D01*
X110102012Y-114680755D01*
X110334102Y-114919002D01*
X110593132Y-115127640D01*
X110875352Y-115303648D01*
X111176672Y-115444476D01*
X111492729Y-115548085D01*
X111818944Y-115612973D01*
X111822716Y-115613260D01*
X111822724Y-115613261D01*
X112146815Y-115637914D01*
X112146820Y-115637914D01*
X112150592Y-115638201D01*
X112482869Y-115623403D01*
X112493425Y-115621646D01*
X112807220Y-115569417D01*
X112807225Y-115569416D01*
X112810961Y-115568794D01*
X113130116Y-115475164D01*
X113133583Y-115473674D01*
X113133587Y-115473673D01*
X113432228Y-115345366D01*
X113432230Y-115345365D01*
X113435712Y-115343869D01*
X113723321Y-115176813D01*
X113726343Y-115174532D01*
X113726347Y-115174529D01*
X113985753Y-114978697D01*
X113985754Y-114978696D01*
X113988777Y-114976414D01*
X114205867Y-114767138D01*
X114225508Y-114748204D01*
X114225509Y-114748203D01*
X114228235Y-114745575D01*
X114438227Y-114487641D01*
X114566122Y-114284939D01*
X114613683Y-114209560D01*
X114613685Y-114209557D01*
X114615710Y-114206347D01*
X114627385Y-114181705D01*
X114726670Y-113972137D01*
X114758114Y-113905767D01*
X114863377Y-113590257D01*
X114929972Y-113264386D01*
X114956936Y-112932875D01*
X114957542Y-112875000D01*
X114956780Y-112862361D01*
X114937755Y-112546772D01*
X114937754Y-112546765D01*
X114937527Y-112542997D01*
X114884614Y-112253277D01*
X114878451Y-112219530D01*
X114878450Y-112219525D01*
X114877770Y-112215803D01*
X114867286Y-112182037D01*
X114789494Y-111931507D01*
X114779139Y-111898157D01*
X114643061Y-111594662D01*
X114496876Y-111351850D01*
X114473466Y-111312966D01*
X114473462Y-111312960D01*
X114471507Y-111309713D01*
X114469180Y-111306729D01*
X114469175Y-111306722D01*
X114269294Y-111050425D01*
X114269288Y-111050418D01*
X114266963Y-111047437D01*
X114032392Y-110811634D01*
X113771191Y-110605720D01*
X113487144Y-110432677D01*
X113366046Y-110377617D01*
X113187817Y-110296580D01*
X113187809Y-110296577D01*
X113184365Y-110295011D01*
X112867240Y-110194718D01*
X112644896Y-110152906D01*
X112544087Y-110133949D01*
X112544085Y-110133949D01*
X112540364Y-110133249D01*
X112208470Y-110111496D01*
X112204690Y-110111704D01*
X112204689Y-110111704D01*
X112106918Y-110117085D01*
X111876366Y-110129773D01*
X111872639Y-110130434D01*
X111872635Y-110130434D01*
X111613510Y-110176358D01*
X111548864Y-110187815D01*
X111545239Y-110188920D01*
X111545234Y-110188921D01*
X111337683Y-110252178D01*
X111230707Y-110284782D01*
X111227243Y-110286313D01*
X111227236Y-110286316D01*
X111040051Y-110369070D01*
X110926503Y-110419269D01*
X110923249Y-110421205D01*
X110923243Y-110421208D01*
X110643918Y-110587389D01*
X110640659Y-110589328D01*
X110377316Y-110792496D01*
X110140288Y-111025829D01*
X109933009Y-111285949D01*
X109758481Y-111569086D01*
X109619232Y-111871140D01*
X109618073Y-111874740D01*
X109618070Y-111874747D01*
X109539967Y-112117285D01*
X109517280Y-112187735D01*
X109516561Y-112191451D01*
X109516559Y-112191459D01*
X109468310Y-112440840D01*
X109454100Y-112514285D01*
X109453833Y-112518061D01*
X109453832Y-112518066D01*
X109444440Y-112650720D01*
X109431789Y-112829413D01*
X109430610Y-112846061D01*
X97104758Y-112846061D01*
X97054431Y-112645702D01*
X96965354Y-112440840D01*
X96844014Y-112253277D01*
X96693670Y-112088051D01*
X96689619Y-112084852D01*
X96689615Y-112084848D01*
X96522414Y-111952800D01*
X96522410Y-111952798D01*
X96518359Y-111949598D01*
X96513831Y-111947098D01*
X96417103Y-111893702D01*
X96322789Y-111841638D01*
X96317920Y-111839914D01*
X96317916Y-111839912D01*
X96117087Y-111768795D01*
X96117083Y-111768794D01*
X96112212Y-111767069D01*
X96107119Y-111766162D01*
X96107116Y-111766161D01*
X95897373Y-111728800D01*
X95897367Y-111728799D01*
X95892284Y-111727894D01*
X95818452Y-111726992D01*
X95674081Y-111725228D01*
X95674079Y-111725228D01*
X95668911Y-111725165D01*
X95448091Y-111758955D01*
X95235756Y-111828357D01*
X95037607Y-111931507D01*
X95033474Y-111934610D01*
X95033471Y-111934612D01*
X94863100Y-112062530D01*
X94858965Y-112065635D01*
X94855393Y-112069373D01*
X94747729Y-112182037D01*
X94704629Y-112227138D01*
X94597201Y-112384621D01*
X94542293Y-112429621D01*
X94471768Y-112437792D01*
X94408021Y-112406538D01*
X94387324Y-112382054D01*
X94306822Y-112257617D01*
X94306820Y-112257614D01*
X94304014Y-112253277D01*
X94153670Y-112088051D01*
X94149619Y-112084852D01*
X94149615Y-112084848D01*
X93982414Y-111952800D01*
X93982410Y-111952798D01*
X93978359Y-111949598D01*
X93973835Y-111947100D01*
X93973831Y-111947098D01*
X93877105Y-111893702D01*
X93827135Y-111843270D01*
X93812363Y-111773827D01*
X93837480Y-111707421D01*
X93848904Y-111694299D01*
X100691798Y-104851405D01*
X100754110Y-104817379D01*
X100780893Y-104814500D01*
X104004233Y-104814500D01*
X104015416Y-104815027D01*
X104022909Y-104816702D01*
X104030835Y-104816453D01*
X104030836Y-104816453D01*
X104090986Y-104814562D01*
X104094945Y-104814500D01*
X104122856Y-104814500D01*
X104126791Y-104814003D01*
X104126856Y-104813995D01*
X104138693Y-104813062D01*
X104170951Y-104812048D01*
X104174970Y-104811922D01*
X104182889Y-104811673D01*
X104202343Y-104806021D01*
X104221700Y-104802013D01*
X104233930Y-104800468D01*
X104233931Y-104800468D01*
X104241797Y-104799474D01*
X104249168Y-104796555D01*
X104249170Y-104796555D01*
X104282912Y-104783196D01*
X104294142Y-104779351D01*
X104328983Y-104769229D01*
X104328984Y-104769229D01*
X104336593Y-104767018D01*
X104343412Y-104762985D01*
X104343417Y-104762983D01*
X104354028Y-104756707D01*
X104371776Y-104748012D01*
X104390617Y-104740552D01*
X104426387Y-104714564D01*
X104436307Y-104708048D01*
X104467535Y-104689580D01*
X104467538Y-104689578D01*
X104474362Y-104685542D01*
X104488683Y-104671221D01*
X104503717Y-104658380D01*
X104513694Y-104651131D01*
X104520107Y-104646472D01*
X104548298Y-104612395D01*
X104556288Y-104603616D01*
X110764499Y-98395405D01*
X110826811Y-98361379D01*
X110853594Y-98358500D01*
X110909487Y-98358500D01*
X110915939Y-98357128D01*
X110915944Y-98357128D01*
X111021508Y-98334689D01*
X111096288Y-98318794D01*
X111161511Y-98289755D01*
X111264722Y-98243803D01*
X111264724Y-98243802D01*
X111270752Y-98241118D01*
X111278496Y-98235492D01*
X111351527Y-98182431D01*
X111425253Y-98128866D01*
X111437719Y-98115021D01*
X111548621Y-97991852D01*
X111548622Y-97991851D01*
X111553040Y-97986944D01*
X111648527Y-97821556D01*
X111707542Y-97639928D01*
X111727504Y-97450000D01*
X111710431Y-97287556D01*
X111708232Y-97266635D01*
X111708232Y-97266633D01*
X111707542Y-97260072D01*
X111648527Y-97078444D01*
X111620582Y-97030041D01*
X111567956Y-96938891D01*
X111553040Y-96913056D01*
X111425253Y-96771134D01*
X111270752Y-96658882D01*
X111264724Y-96656198D01*
X111264722Y-96656197D01*
X111102319Y-96583891D01*
X111102318Y-96583891D01*
X111096288Y-96581206D01*
X111002888Y-96561353D01*
X110915944Y-96542872D01*
X110915939Y-96542872D01*
X110909487Y-96541500D01*
X110718513Y-96541500D01*
X110712061Y-96542872D01*
X110712056Y-96542872D01*
X110625113Y-96561353D01*
X110531712Y-96581206D01*
X110525682Y-96583891D01*
X110525681Y-96583891D01*
X110363278Y-96656197D01*
X110363276Y-96656198D01*
X110357248Y-96658882D01*
X110202747Y-96771134D01*
X110074960Y-96913056D01*
X110060044Y-96938891D01*
X110007419Y-97030041D01*
X109979473Y-97078444D01*
X109971545Y-97102842D01*
X109931474Y-97161447D01*
X109866078Y-97189084D01*
X109796121Y-97176979D01*
X109758077Y-97148217D01*
X109647253Y-97025134D01*
X109522745Y-96934673D01*
X109498094Y-96916763D01*
X109498093Y-96916762D01*
X109492752Y-96912882D01*
X109486724Y-96910198D01*
X109486722Y-96910197D01*
X109324319Y-96837891D01*
X109324318Y-96837891D01*
X109318288Y-96835206D01*
X109152484Y-96799963D01*
X109090013Y-96766236D01*
X109055691Y-96704086D01*
X109060419Y-96633247D01*
X109089588Y-96587622D01*
X109391253Y-96285957D01*
X109399539Y-96278417D01*
X109406018Y-96274305D01*
X109417722Y-96261842D01*
X109452643Y-96224654D01*
X109455398Y-96221812D01*
X109475135Y-96202075D01*
X109477615Y-96198878D01*
X109485320Y-96189856D01*
X109510159Y-96163405D01*
X109515586Y-96157626D01*
X109519405Y-96150680D01*
X109519407Y-96150677D01*
X109525348Y-96139871D01*
X109536199Y-96123352D01*
X109543758Y-96113606D01*
X109548614Y-96107346D01*
X109551759Y-96100077D01*
X109551762Y-96100073D01*
X109566174Y-96066768D01*
X109571391Y-96056118D01*
X109592695Y-96017365D01*
X109597733Y-95997742D01*
X109604137Y-95979039D01*
X109609033Y-95967725D01*
X109609033Y-95967724D01*
X109612181Y-95960450D01*
X109613420Y-95952627D01*
X109613423Y-95952617D01*
X109619099Y-95916781D01*
X109621505Y-95905161D01*
X109630528Y-95870016D01*
X109630528Y-95870015D01*
X109632500Y-95862335D01*
X109632500Y-95842081D01*
X109634051Y-95822370D01*
X109635980Y-95810191D01*
X109637220Y-95802362D01*
X109633059Y-95758343D01*
X109632500Y-95746486D01*
X109632500Y-92411524D01*
X109652502Y-92343403D01*
X109664858Y-92327221D01*
X109738040Y-92245944D01*
X109833527Y-92080556D01*
X109892542Y-91898928D01*
X109893285Y-91891865D01*
X109911814Y-91715565D01*
X109912504Y-91709000D01*
X109898466Y-91575435D01*
X109893232Y-91525635D01*
X109893232Y-91525633D01*
X109892542Y-91519072D01*
X109833527Y-91337444D01*
X109738040Y-91172056D01*
X109633682Y-91056154D01*
X109611312Y-91031310D01*
X109580594Y-90967303D01*
X109589359Y-90896849D01*
X109611312Y-90862690D01*
X109733621Y-90726852D01*
X109733622Y-90726851D01*
X109738040Y-90721944D01*
X109833527Y-90556556D01*
X109892542Y-90374928D01*
X109912504Y-90185000D01*
X109892542Y-89995072D01*
X109833527Y-89813444D01*
X109738040Y-89648056D01*
X109611312Y-89507310D01*
X109580594Y-89443303D01*
X109589359Y-89372849D01*
X109611312Y-89338690D01*
X109733621Y-89202852D01*
X109733622Y-89202851D01*
X109738040Y-89197944D01*
X109833527Y-89032556D01*
X109892542Y-88850928D01*
X109894209Y-88835074D01*
X109911814Y-88667565D01*
X109912504Y-88661000D01*
X109892542Y-88471072D01*
X109833527Y-88289444D01*
X109827754Y-88279444D01*
X109796314Y-88224990D01*
X109738040Y-88124056D01*
X109610253Y-87982134D01*
X109455752Y-87869882D01*
X109449724Y-87867198D01*
X109449722Y-87867197D01*
X109287319Y-87794891D01*
X109287318Y-87794891D01*
X109281288Y-87792206D01*
X109187887Y-87772353D01*
X109100944Y-87753872D01*
X109100939Y-87753872D01*
X109094487Y-87752500D01*
X108903513Y-87752500D01*
X108897061Y-87753872D01*
X108897056Y-87753872D01*
X108810113Y-87772353D01*
X108716712Y-87792206D01*
X108710682Y-87794891D01*
X108710681Y-87794891D01*
X108548278Y-87867197D01*
X108548276Y-87867198D01*
X108542248Y-87869882D01*
X108387747Y-87982134D01*
X108259960Y-88124056D01*
X108201686Y-88224990D01*
X108170247Y-88279444D01*
X108164473Y-88289444D01*
X108162432Y-88295726D01*
X108162431Y-88295728D01*
X108151260Y-88330110D01*
X108120522Y-88380269D01*
X104188828Y-92311962D01*
X100261747Y-96239043D01*
X100253461Y-96246583D01*
X100246982Y-96250695D01*
X100241557Y-96256472D01*
X100200357Y-96300346D01*
X100197602Y-96303188D01*
X100177865Y-96322925D01*
X100175385Y-96326122D01*
X100167682Y-96335142D01*
X100137414Y-96367374D01*
X100133595Y-96374320D01*
X100133593Y-96374323D01*
X100127652Y-96385129D01*
X100116801Y-96401648D01*
X100104386Y-96417654D01*
X100101241Y-96424923D01*
X100101238Y-96424927D01*
X100086826Y-96458232D01*
X100081609Y-96468882D01*
X100060305Y-96507635D01*
X100058334Y-96515310D01*
X100058334Y-96515311D01*
X100055267Y-96527257D01*
X100048863Y-96545961D01*
X100040819Y-96564550D01*
X100039580Y-96572373D01*
X100039577Y-96572383D01*
X100033901Y-96608219D01*
X100031495Y-96619839D01*
X100020500Y-96662665D01*
X100020500Y-96682919D01*
X100018949Y-96702629D01*
X100015780Y-96722638D01*
X100016526Y-96730530D01*
X100019941Y-96766656D01*
X100020500Y-96778514D01*
X100020500Y-96945405D01*
X100000498Y-97013526D01*
X99983595Y-97034500D01*
X98816867Y-98201228D01*
X98754555Y-98235254D01*
X98727772Y-98238133D01*
X97762208Y-98238133D01*
X97694087Y-98218131D01*
X97674861Y-98201790D01*
X97674588Y-98202093D01*
X97669676Y-98197670D01*
X97665261Y-98192767D01*
X97544521Y-98105044D01*
X97516102Y-98084396D01*
X97516101Y-98084395D01*
X97510760Y-98080515D01*
X97504732Y-98077831D01*
X97504730Y-98077830D01*
X97342327Y-98005524D01*
X97342326Y-98005524D01*
X97336296Y-98002839D01*
X97240760Y-97982532D01*
X97155952Y-97964505D01*
X97155947Y-97964505D01*
X97149495Y-97963133D01*
X96958521Y-97963133D01*
X96952069Y-97964505D01*
X96952064Y-97964505D01*
X96867256Y-97982532D01*
X96771720Y-98002839D01*
X96765690Y-98005524D01*
X96765689Y-98005524D01*
X96603286Y-98077830D01*
X96603284Y-98077831D01*
X96597256Y-98080515D01*
X96591915Y-98084395D01*
X96591914Y-98084396D01*
X96563495Y-98105044D01*
X96442755Y-98192767D01*
X96438334Y-98197677D01*
X96438333Y-98197678D01*
X96328045Y-98320166D01*
X96314968Y-98334689D01*
X96219481Y-98500077D01*
X96160466Y-98681705D01*
X96159776Y-98688266D01*
X96159776Y-98688268D01*
X96146776Y-98811962D01*
X96140504Y-98871633D01*
X96141194Y-98878198D01*
X96156868Y-99027330D01*
X96144096Y-99097168D01*
X96095594Y-99149015D01*
X96031558Y-99166500D01*
X94717000Y-99166500D01*
X94648879Y-99146498D01*
X94602386Y-99092842D01*
X94591000Y-99040500D01*
X94591000Y-98873640D01*
X94592226Y-98856104D01*
X94595245Y-98834625D01*
X94595851Y-98826741D01*
X94596058Y-98811962D01*
X94595671Y-98804061D01*
X94591785Y-98769414D01*
X94591000Y-98755369D01*
X94591000Y-97573641D01*
X94592226Y-97556107D01*
X94595244Y-97534630D01*
X94595851Y-97526740D01*
X94596058Y-97511963D01*
X94595671Y-97504061D01*
X94591785Y-97469413D01*
X94591000Y-97455369D01*
X94591000Y-96273642D01*
X94592226Y-96256108D01*
X94595244Y-96234630D01*
X94595851Y-96226740D01*
X94596058Y-96211963D01*
X94595671Y-96204060D01*
X94591785Y-96169411D01*
X94591000Y-96155367D01*
X94591000Y-95830115D01*
X94586525Y-95814876D01*
X94585135Y-95813671D01*
X94577452Y-95812000D01*
X94556326Y-95812000D01*
X94530681Y-95819530D01*
X94142210Y-96208000D01*
X93872095Y-96478116D01*
X93809783Y-96512141D01*
X93738967Y-96507076D01*
X93693905Y-96478115D01*
X93423790Y-96208000D01*
X93145812Y-95930023D01*
X93131868Y-95922409D01*
X93130033Y-95922540D01*
X93123423Y-95926788D01*
X92842210Y-96208000D01*
X92572095Y-96478116D01*
X92509783Y-96512141D01*
X92438967Y-96507076D01*
X92393905Y-96478115D01*
X92123790Y-96208000D01*
X91845812Y-95930023D01*
X91831868Y-95922409D01*
X91830033Y-95922540D01*
X91823423Y-95926788D01*
X91542210Y-96208000D01*
X91272095Y-96478116D01*
X91209783Y-96512141D01*
X91138967Y-96507076D01*
X91093905Y-96478115D01*
X90823790Y-96208000D01*
X90440601Y-95824812D01*
X90423067Y-95815237D01*
X91153301Y-95815237D01*
X91156539Y-95822328D01*
X91170189Y-95835979D01*
X91184131Y-95843592D01*
X91185966Y-95843461D01*
X91192578Y-95839211D01*
X91206980Y-95824809D01*
X91212207Y-95815237D01*
X92453301Y-95815237D01*
X92456539Y-95822328D01*
X92470189Y-95835979D01*
X92484131Y-95843592D01*
X92485966Y-95843461D01*
X92492578Y-95839211D01*
X92506980Y-95824809D01*
X92512207Y-95815237D01*
X93753301Y-95815237D01*
X93756539Y-95822328D01*
X93770189Y-95835979D01*
X93784131Y-95843592D01*
X93785966Y-95843461D01*
X93792578Y-95839211D01*
X93806980Y-95824809D01*
X93812487Y-95814724D01*
X93805184Y-95812000D01*
X93764326Y-95812000D01*
X93753301Y-95815237D01*
X92512207Y-95815237D01*
X92512487Y-95814724D01*
X92505184Y-95812000D01*
X92464326Y-95812000D01*
X92453301Y-95815237D01*
X91212207Y-95815237D01*
X91212487Y-95814724D01*
X91205184Y-95812000D01*
X91164326Y-95812000D01*
X91153301Y-95815237D01*
X90423067Y-95815237D01*
X90417139Y-95812000D01*
X90393116Y-95812000D01*
X90377877Y-95816475D01*
X90376672Y-95817865D01*
X90375001Y-95825548D01*
X90375001Y-96148869D01*
X90374007Y-96164663D01*
X90370850Y-96189654D01*
X90370654Y-96203659D01*
X90374400Y-96241866D01*
X90375001Y-96254162D01*
X90375001Y-97448868D01*
X90374007Y-97464661D01*
X90370850Y-97489653D01*
X90370654Y-97503659D01*
X90374400Y-97541867D01*
X90375001Y-97554163D01*
X90375001Y-98748868D01*
X90374007Y-98764660D01*
X90370850Y-98789653D01*
X90370654Y-98803660D01*
X90374400Y-98841869D01*
X90375001Y-98854164D01*
X90375001Y-99040500D01*
X90354999Y-99108621D01*
X90301343Y-99155114D01*
X90249001Y-99166500D01*
X85273594Y-99166500D01*
X85205473Y-99146498D01*
X85184499Y-99129595D01*
X83022122Y-96967217D01*
X82988096Y-96904905D01*
X82985907Y-96891292D01*
X82969232Y-96732635D01*
X82969232Y-96732633D01*
X82968542Y-96726072D01*
X82909527Y-96544444D01*
X82814040Y-96379056D01*
X82740863Y-96297785D01*
X82710147Y-96233779D01*
X82708500Y-96213476D01*
X82708500Y-95586524D01*
X82728502Y-95518403D01*
X82740858Y-95502221D01*
X82814040Y-95420944D01*
X82882523Y-95302329D01*
X82906223Y-95261279D01*
X82906224Y-95261278D01*
X82909527Y-95255556D01*
X82968542Y-95073928D01*
X82978926Y-94975135D01*
X82987814Y-94890565D01*
X82988504Y-94884000D01*
X82968542Y-94694072D01*
X82909527Y-94512444D01*
X82814040Y-94347056D01*
X82740863Y-94265785D01*
X82710147Y-94201779D01*
X82708500Y-94181476D01*
X82708500Y-93935524D01*
X82728502Y-93867403D01*
X82740858Y-93851221D01*
X82814040Y-93769944D01*
X82909527Y-93604556D01*
X82968542Y-93422928D01*
X82988504Y-93233000D01*
X82977678Y-93129999D01*
X82969232Y-93049635D01*
X82969232Y-93049633D01*
X82968542Y-93043072D01*
X82909527Y-92861444D01*
X82814040Y-92696056D01*
X82740863Y-92614785D01*
X82710147Y-92550779D01*
X82708500Y-92530476D01*
X82708500Y-92284524D01*
X82728502Y-92216403D01*
X82740858Y-92200221D01*
X82814040Y-92118944D01*
X82872314Y-92018010D01*
X82906223Y-91959279D01*
X82906224Y-91959278D01*
X82909527Y-91953556D01*
X82968542Y-91771928D01*
X82970390Y-91754351D01*
X82975209Y-91708500D01*
X86855734Y-91708500D01*
X86875696Y-91898428D01*
X86934711Y-92080056D01*
X87030198Y-92245444D01*
X87034616Y-92250351D01*
X87034617Y-92250352D01*
X87129844Y-92356112D01*
X87157985Y-92387366D01*
X87163327Y-92391247D01*
X87163329Y-92391249D01*
X87194465Y-92413870D01*
X87236725Y-92444574D01*
X87280078Y-92500795D01*
X87286153Y-92571531D01*
X87253022Y-92634323D01*
X87236724Y-92648445D01*
X87189052Y-92683081D01*
X87061265Y-92825003D01*
X86965778Y-92990391D01*
X86906763Y-93172019D01*
X86886801Y-93361947D01*
X86906763Y-93551875D01*
X86965778Y-93733503D01*
X87061265Y-93898891D01*
X87065683Y-93903798D01*
X87065684Y-93903799D01*
X87094249Y-93935524D01*
X87189052Y-94040813D01*
X87227588Y-94068811D01*
X87233268Y-94072938D01*
X87276622Y-94129161D01*
X87282697Y-94199897D01*
X87269622Y-94235574D01*
X87263654Y-94246430D01*
X87252801Y-94262953D01*
X87240386Y-94278959D01*
X87237241Y-94286228D01*
X87237238Y-94286232D01*
X87222826Y-94319537D01*
X87217609Y-94330187D01*
X87196305Y-94368940D01*
X87192068Y-94385444D01*
X87191267Y-94388562D01*
X87184863Y-94407266D01*
X87176819Y-94425855D01*
X87175579Y-94433684D01*
X87175578Y-94433687D01*
X87171908Y-94456853D01*
X87141097Y-94521448D01*
X87050960Y-94621556D01*
X86955473Y-94786944D01*
X86896458Y-94968572D01*
X86895768Y-94975133D01*
X86895768Y-94975135D01*
X86885385Y-95073928D01*
X86876496Y-95158500D01*
X86877186Y-95165065D01*
X86890365Y-95290452D01*
X86896458Y-95348428D01*
X86955473Y-95530056D01*
X86958776Y-95535778D01*
X86958777Y-95535779D01*
X86976353Y-95566221D01*
X87050960Y-95695444D01*
X87055378Y-95700351D01*
X87055379Y-95700352D01*
X87167441Y-95824809D01*
X87178747Y-95837366D01*
X87333248Y-95949618D01*
X87339276Y-95952302D01*
X87339278Y-95952303D01*
X87501681Y-96024609D01*
X87507712Y-96027294D01*
X87601112Y-96047147D01*
X87688056Y-96065628D01*
X87688061Y-96065628D01*
X87694513Y-96067000D01*
X87885487Y-96067000D01*
X87891939Y-96065628D01*
X87891944Y-96065628D01*
X87978888Y-96047147D01*
X88072288Y-96027294D01*
X88078319Y-96024609D01*
X88240722Y-95952303D01*
X88240724Y-95952302D01*
X88246752Y-95949618D01*
X88401253Y-95837366D01*
X88412559Y-95824809D01*
X88524621Y-95700352D01*
X88524622Y-95700351D01*
X88529040Y-95695444D01*
X88603647Y-95566221D01*
X88621223Y-95535779D01*
X88621224Y-95535778D01*
X88624527Y-95530056D01*
X88683542Y-95348428D01*
X88689636Y-95290452D01*
X88702814Y-95165065D01*
X88703504Y-95158500D01*
X88694615Y-95073928D01*
X88684232Y-94975135D01*
X88684232Y-94975133D01*
X88683542Y-94968572D01*
X88633838Y-94815601D01*
X88626568Y-94793225D01*
X88626567Y-94793224D01*
X88624527Y-94786944D01*
X88621726Y-94782092D01*
X88612341Y-94712093D01*
X88642448Y-94647796D01*
X88647787Y-94642117D01*
X90159905Y-93129999D01*
X90222217Y-93095973D01*
X90293032Y-93101038D01*
X90349868Y-93143585D01*
X90374679Y-93210105D01*
X90375000Y-93219094D01*
X90375000Y-93548874D01*
X90374007Y-93564665D01*
X90370849Y-93589660D01*
X90370654Y-93603660D01*
X90374399Y-93641861D01*
X90375000Y-93654156D01*
X90375000Y-94848866D01*
X90374007Y-94864657D01*
X90370849Y-94889660D01*
X90370653Y-94903657D01*
X90374399Y-94941863D01*
X90375000Y-94954157D01*
X90375000Y-95285885D01*
X90379475Y-95301124D01*
X90380865Y-95302329D01*
X90388548Y-95304000D01*
X90409674Y-95304000D01*
X90418951Y-95301276D01*
X91153513Y-95301276D01*
X91160816Y-95304000D01*
X91201674Y-95304000D01*
X91210952Y-95301276D01*
X93753513Y-95301276D01*
X93760816Y-95304000D01*
X93801674Y-95304000D01*
X93812699Y-95300763D01*
X93809461Y-95293672D01*
X93795811Y-95280021D01*
X93781869Y-95272408D01*
X93780034Y-95272539D01*
X93773422Y-95276789D01*
X93759020Y-95291191D01*
X93753513Y-95301276D01*
X91210952Y-95301276D01*
X91212699Y-95300763D01*
X91209461Y-95293672D01*
X91195811Y-95280021D01*
X91181869Y-95272408D01*
X91180034Y-95272539D01*
X91173422Y-95276789D01*
X91159020Y-95291191D01*
X91153513Y-95301276D01*
X90418951Y-95301276D01*
X90435319Y-95296470D01*
X91093905Y-94637885D01*
X91156217Y-94603860D01*
X91227033Y-94608925D01*
X91272095Y-94637885D01*
X91820192Y-95185981D01*
X91834130Y-95193592D01*
X91835966Y-95193460D01*
X91842578Y-95189211D01*
X92216189Y-94815601D01*
X92229000Y-94792139D01*
X92229000Y-94784675D01*
X92737000Y-94784675D01*
X92744530Y-94810320D01*
X93120192Y-95185981D01*
X93134130Y-95193592D01*
X93135966Y-95193460D01*
X93142578Y-95189211D01*
X93693905Y-94637885D01*
X93756217Y-94603860D01*
X93827033Y-94608925D01*
X93872095Y-94637885D01*
X94525403Y-95291192D01*
X94548859Y-95304000D01*
X94572884Y-95304000D01*
X94588123Y-95299525D01*
X94589328Y-95298135D01*
X94590999Y-95290452D01*
X94590999Y-94973647D01*
X94592225Y-94956110D01*
X94595245Y-94934624D01*
X94595851Y-94926743D01*
X94596058Y-94911961D01*
X94595671Y-94904063D01*
X94591784Y-94869408D01*
X94590999Y-94855362D01*
X94590999Y-93673648D01*
X94592225Y-93656112D01*
X94595245Y-93634626D01*
X94595851Y-93626743D01*
X94596058Y-93611962D01*
X94595671Y-93604062D01*
X94591784Y-93569407D01*
X94590999Y-93555362D01*
X94590999Y-92373648D01*
X94592225Y-92356112D01*
X94595245Y-92334626D01*
X94595851Y-92326742D01*
X94596058Y-92311962D01*
X94595671Y-92304061D01*
X94591784Y-92269406D01*
X94590999Y-92255361D01*
X94590999Y-91963331D01*
X94590629Y-91956510D01*
X94585105Y-91905648D01*
X94581479Y-91890396D01*
X94536324Y-91769946D01*
X94527786Y-91754351D01*
X94451285Y-91652276D01*
X94438724Y-91639715D01*
X94336649Y-91563214D01*
X94321054Y-91554676D01*
X94200606Y-91509522D01*
X94185351Y-91505895D01*
X94134486Y-91500369D01*
X94127672Y-91500000D01*
X93838877Y-91500000D01*
X93823959Y-91499114D01*
X93795670Y-91495741D01*
X93781673Y-91495643D01*
X93746783Y-91499310D01*
X93733613Y-91500000D01*
X92755115Y-91500000D01*
X92739876Y-91504475D01*
X92738671Y-91505865D01*
X92737000Y-91513548D01*
X92737000Y-94784675D01*
X92229000Y-94784675D01*
X92229000Y-91518116D01*
X92224525Y-91502877D01*
X92223135Y-91501672D01*
X92215452Y-91500001D01*
X92094093Y-91500001D01*
X92025972Y-91479999D01*
X91979479Y-91426343D01*
X91969375Y-91356069D01*
X91998869Y-91291489D01*
X92004998Y-91284906D01*
X98530499Y-84759405D01*
X98592811Y-84725379D01*
X98619594Y-84722500D01*
X108290800Y-84722500D01*
X108358921Y-84742502D01*
X108378147Y-84758843D01*
X108378420Y-84758540D01*
X108383332Y-84762963D01*
X108387747Y-84767866D01*
X108400937Y-84777449D01*
X108514502Y-84859959D01*
X108542248Y-84880118D01*
X108548276Y-84882802D01*
X108548278Y-84882803D01*
X108710681Y-84955109D01*
X108716712Y-84957794D01*
X108810112Y-84977647D01*
X108897056Y-84996128D01*
X108897061Y-84996128D01*
X108903513Y-84997500D01*
X109094487Y-84997500D01*
X109100939Y-84996128D01*
X109100944Y-84996128D01*
X109187888Y-84977647D01*
X109281288Y-84957794D01*
X109287319Y-84955109D01*
X109449722Y-84882803D01*
X109449724Y-84882802D01*
X109455752Y-84880118D01*
X109483499Y-84859959D01*
X109543138Y-84816628D01*
X109610253Y-84767866D01*
X109633091Y-84742502D01*
X109733621Y-84630852D01*
X109733622Y-84630851D01*
X109738040Y-84625944D01*
X109833527Y-84460556D01*
X109892542Y-84278928D01*
X109912504Y-84089000D01*
X109892542Y-83899072D01*
X109833527Y-83717444D01*
X109738040Y-83552056D01*
X109668485Y-83474808D01*
X109637770Y-83410803D01*
X109646533Y-83340350D01*
X109668484Y-83306194D01*
X109738040Y-83228944D01*
X109796314Y-83128010D01*
X109830223Y-83069279D01*
X109830224Y-83069278D01*
X109833527Y-83063556D01*
X109892542Y-82881928D01*
X109912504Y-82692000D01*
X109892542Y-82502072D01*
X109833527Y-82320444D01*
X109738040Y-82155056D01*
X109611312Y-82014310D01*
X109580594Y-81950303D01*
X109589359Y-81879849D01*
X109611312Y-81845690D01*
X109733621Y-81709852D01*
X109733622Y-81709851D01*
X109738040Y-81704944D01*
X109833527Y-81539556D01*
X109892542Y-81357928D01*
X109912504Y-81168000D01*
X109892542Y-80978072D01*
X109833527Y-80796444D01*
X109738040Y-80631056D01*
X109721882Y-80613110D01*
X109614675Y-80494045D01*
X109614674Y-80494044D01*
X109610253Y-80489134D01*
X109455752Y-80376882D01*
X109449724Y-80374198D01*
X109449722Y-80374197D01*
X109287319Y-80301891D01*
X109287318Y-80301891D01*
X109281288Y-80299206D01*
X109187887Y-80279353D01*
X109100944Y-80260872D01*
X109100939Y-80260872D01*
X109094487Y-80259500D01*
X108903513Y-80259500D01*
X108897061Y-80260872D01*
X108897056Y-80260872D01*
X108810113Y-80279353D01*
X108716712Y-80299206D01*
X108710682Y-80301891D01*
X108710681Y-80301891D01*
X108548278Y-80374197D01*
X108548276Y-80374198D01*
X108542248Y-80376882D01*
X108387747Y-80489134D01*
X108383332Y-80494037D01*
X108378420Y-80498460D01*
X108377295Y-80497211D01*
X108323986Y-80530051D01*
X108290800Y-80534500D01*
X98388505Y-80534500D01*
X98377322Y-80533973D01*
X98369829Y-80532298D01*
X98361903Y-80532547D01*
X98361902Y-80532547D01*
X98301752Y-80534438D01*
X98297793Y-80534500D01*
X98269882Y-80534500D01*
X98265948Y-80534997D01*
X98265947Y-80534997D01*
X98265882Y-80535005D01*
X98254045Y-80535938D01*
X98221787Y-80536952D01*
X98217768Y-80537078D01*
X98209849Y-80537327D01*
X98190395Y-80542979D01*
X98171038Y-80546987D01*
X98158808Y-80548532D01*
X98158807Y-80548532D01*
X98150941Y-80549526D01*
X98143570Y-80552445D01*
X98143568Y-80552445D01*
X98109826Y-80565804D01*
X98098596Y-80569649D01*
X98063755Y-80579771D01*
X98063754Y-80579771D01*
X98056145Y-80581982D01*
X98049326Y-80586015D01*
X98049321Y-80586017D01*
X98038710Y-80592293D01*
X98020962Y-80600988D01*
X98002121Y-80608448D01*
X97995705Y-80613110D01*
X97995704Y-80613110D01*
X97966351Y-80634436D01*
X97956431Y-80640952D01*
X97925203Y-80659420D01*
X97925200Y-80659422D01*
X97918376Y-80663458D01*
X97904055Y-80677779D01*
X97889022Y-80690619D01*
X97872631Y-80702528D01*
X97867580Y-80708634D01*
X97844440Y-80736605D01*
X97836450Y-80745384D01*
X87818738Y-90763095D01*
X87756426Y-90797121D01*
X87729643Y-90800000D01*
X87673751Y-90800000D01*
X87667299Y-90801372D01*
X87667294Y-90801372D01*
X87587238Y-90818389D01*
X87486950Y-90839706D01*
X87480920Y-90842391D01*
X87480919Y-90842391D01*
X87318516Y-90914697D01*
X87318514Y-90914698D01*
X87312486Y-90917382D01*
X87157985Y-91029634D01*
X87030198Y-91171556D01*
X87026897Y-91177274D01*
X86960955Y-91291489D01*
X86934711Y-91336944D01*
X86875696Y-91518572D01*
X86875006Y-91525133D01*
X86875006Y-91525135D01*
X86861643Y-91652276D01*
X86855734Y-91708500D01*
X82975209Y-91708500D01*
X82987814Y-91588565D01*
X82988504Y-91582000D01*
X82981790Y-91518116D01*
X82969232Y-91398635D01*
X82969232Y-91398633D01*
X82968542Y-91392072D01*
X82909527Y-91210444D01*
X82814040Y-91045056D01*
X82773572Y-91000111D01*
X82690675Y-90908045D01*
X82690674Y-90908044D01*
X82686253Y-90903134D01*
X82531752Y-90790882D01*
X82525724Y-90788198D01*
X82525722Y-90788197D01*
X82363319Y-90715891D01*
X82363318Y-90715891D01*
X82357288Y-90713206D01*
X82235425Y-90687303D01*
X82176944Y-90674872D01*
X82176939Y-90674872D01*
X82170487Y-90673500D01*
X81979513Y-90673500D01*
X81973061Y-90674872D01*
X81973056Y-90674872D01*
X81914575Y-90687303D01*
X81792712Y-90713206D01*
X81786682Y-90715891D01*
X81786681Y-90715891D01*
X81624278Y-90788197D01*
X81624276Y-90788198D01*
X81618248Y-90790882D01*
X81463747Y-90903134D01*
X81459326Y-90908044D01*
X81459325Y-90908045D01*
X81376429Y-91000111D01*
X81335960Y-91045056D01*
X81240473Y-91210444D01*
X81181458Y-91392072D01*
X81180768Y-91398633D01*
X81180768Y-91398635D01*
X81168210Y-91518116D01*
X81161496Y-91582000D01*
X81162186Y-91588565D01*
X81179611Y-91754351D01*
X81181458Y-91771928D01*
X81240473Y-91953556D01*
X81243776Y-91959278D01*
X81243777Y-91959279D01*
X81277686Y-92018010D01*
X81335960Y-92118944D01*
X81409137Y-92200215D01*
X81439853Y-92264221D01*
X81441500Y-92284524D01*
X81441500Y-92530476D01*
X81421498Y-92598597D01*
X81409142Y-92614779D01*
X81335960Y-92696056D01*
X81240473Y-92861444D01*
X81181458Y-93043072D01*
X81180768Y-93049633D01*
X81180768Y-93049635D01*
X81172322Y-93129999D01*
X81161496Y-93233000D01*
X81181458Y-93422928D01*
X81240473Y-93604556D01*
X81335960Y-93769944D01*
X81409137Y-93851215D01*
X81439853Y-93915221D01*
X81441500Y-93935524D01*
X81441500Y-94181476D01*
X81421498Y-94249597D01*
X81409142Y-94265779D01*
X81335960Y-94347056D01*
X81240473Y-94512444D01*
X81181458Y-94694072D01*
X81161496Y-94884000D01*
X81162186Y-94890565D01*
X81171075Y-94975135D01*
X81181458Y-95073928D01*
X81240473Y-95255556D01*
X81243776Y-95261278D01*
X81243777Y-95261279D01*
X81267477Y-95302329D01*
X81335960Y-95420944D01*
X81409137Y-95502215D01*
X81439853Y-95566221D01*
X81441500Y-95586524D01*
X81441500Y-96213476D01*
X81421498Y-96281597D01*
X81409142Y-96297779D01*
X81335960Y-96379056D01*
X81240473Y-96544444D01*
X81181458Y-96726072D01*
X81180768Y-96732633D01*
X81180768Y-96732635D01*
X81163401Y-96897872D01*
X81161496Y-96916000D01*
X77792500Y-96916000D01*
X77792500Y-91178768D01*
X77793027Y-91167585D01*
X77794702Y-91160092D01*
X77792562Y-91092001D01*
X77792500Y-91088044D01*
X77792500Y-91060144D01*
X77791996Y-91056153D01*
X77791063Y-91044311D01*
X77790933Y-91040148D01*
X77789674Y-91000111D01*
X77787462Y-90992497D01*
X77787461Y-90992492D01*
X77784023Y-90980659D01*
X77780012Y-90961295D01*
X77778467Y-90949064D01*
X77777474Y-90941203D01*
X77774557Y-90933836D01*
X77774556Y-90933831D01*
X77761198Y-90900092D01*
X77757354Y-90888865D01*
X77753393Y-90875233D01*
X77745018Y-90846407D01*
X77734707Y-90828972D01*
X77726012Y-90811224D01*
X77718552Y-90792383D01*
X77692564Y-90756613D01*
X77686048Y-90746693D01*
X77667580Y-90715465D01*
X77667578Y-90715462D01*
X77663542Y-90708638D01*
X77649221Y-90694317D01*
X77636380Y-90679283D01*
X77629131Y-90669306D01*
X77624472Y-90662893D01*
X77590395Y-90634702D01*
X77581616Y-90626712D01*
X73153122Y-86198217D01*
X73119096Y-86135905D01*
X73116907Y-86122292D01*
X73100232Y-85963635D01*
X73100232Y-85963633D01*
X73099542Y-85957072D01*
X73040527Y-85775444D01*
X72945040Y-85610056D01*
X72817253Y-85468134D01*
X72662752Y-85355882D01*
X72656724Y-85353198D01*
X72656722Y-85353197D01*
X72494319Y-85280891D01*
X72494318Y-85280891D01*
X72488288Y-85278206D01*
X72394887Y-85258353D01*
X72307944Y-85239872D01*
X72307939Y-85239872D01*
X72301487Y-85238500D01*
X72110513Y-85238500D01*
X72104061Y-85239872D01*
X72104056Y-85239872D01*
X72017113Y-85258353D01*
X71923712Y-85278206D01*
X71917682Y-85280891D01*
X71917681Y-85280891D01*
X71755278Y-85353197D01*
X71755276Y-85353198D01*
X71749248Y-85355882D01*
X71594747Y-85468134D01*
X71466960Y-85610056D01*
X71371473Y-85775444D01*
X71312458Y-85957072D01*
X71292496Y-86147000D01*
X41152500Y-86147000D01*
X41152500Y-85499594D01*
X41172502Y-85431473D01*
X41189405Y-85410499D01*
X43353500Y-83246405D01*
X43415812Y-83212379D01*
X43442595Y-83209500D01*
X43498487Y-83209500D01*
X43504939Y-83208128D01*
X43504944Y-83208128D01*
X43591888Y-83189647D01*
X43685288Y-83169794D01*
X43691319Y-83167109D01*
X43853722Y-83094803D01*
X43853724Y-83094802D01*
X43859752Y-83092118D01*
X44014253Y-82979866D01*
X44018668Y-82974963D01*
X44023580Y-82970540D01*
X44024705Y-82971789D01*
X44078014Y-82938949D01*
X44111200Y-82934500D01*
X44726800Y-82934500D01*
X44794921Y-82954502D01*
X44814147Y-82970843D01*
X44814420Y-82970540D01*
X44819332Y-82974963D01*
X44823747Y-82979866D01*
X44978248Y-83092118D01*
X44984276Y-83094802D01*
X44984278Y-83094803D01*
X45146681Y-83167109D01*
X45152712Y-83169794D01*
X45246112Y-83189647D01*
X45333056Y-83208128D01*
X45333061Y-83208128D01*
X45339513Y-83209500D01*
X45530487Y-83209500D01*
X45536939Y-83208128D01*
X45536944Y-83208128D01*
X45623888Y-83189647D01*
X45717288Y-83169794D01*
X45723319Y-83167109D01*
X45885722Y-83094803D01*
X45885724Y-83094802D01*
X45891752Y-83092118D01*
X46046253Y-82979866D01*
X46050668Y-82974963D01*
X46055580Y-82970540D01*
X46056705Y-82971789D01*
X46110014Y-82938949D01*
X46143200Y-82934500D01*
X46377800Y-82934500D01*
X46445921Y-82954502D01*
X46465147Y-82970843D01*
X46465420Y-82970540D01*
X46470332Y-82974963D01*
X46474747Y-82979866D01*
X46629248Y-83092118D01*
X46635276Y-83094802D01*
X46635278Y-83094803D01*
X46797681Y-83167109D01*
X46803712Y-83169794D01*
X46897112Y-83189647D01*
X46984056Y-83208128D01*
X46984061Y-83208128D01*
X46990513Y-83209500D01*
X47181487Y-83209500D01*
X47187939Y-83208128D01*
X47187944Y-83208128D01*
X47274888Y-83189647D01*
X47368288Y-83169794D01*
X47374319Y-83167109D01*
X47536722Y-83094803D01*
X47536724Y-83094802D01*
X47542752Y-83092118D01*
X47697253Y-82979866D01*
X47701668Y-82974963D01*
X47706580Y-82970540D01*
X47707705Y-82971789D01*
X47761014Y-82938949D01*
X47794200Y-82934500D01*
X48028800Y-82934500D01*
X48096921Y-82954502D01*
X48116147Y-82970843D01*
X48116420Y-82970540D01*
X48121332Y-82974963D01*
X48125747Y-82979866D01*
X48280248Y-83092118D01*
X48286276Y-83094802D01*
X48286278Y-83094803D01*
X48448681Y-83167109D01*
X48454712Y-83169794D01*
X48548112Y-83189647D01*
X48635056Y-83208128D01*
X48635061Y-83208128D01*
X48641513Y-83209500D01*
X48832487Y-83209500D01*
X48838939Y-83208128D01*
X48838944Y-83208128D01*
X48925888Y-83189647D01*
X49019288Y-83169794D01*
X49025319Y-83167109D01*
X49187722Y-83094803D01*
X49187724Y-83094802D01*
X49193752Y-83092118D01*
X49348253Y-82979866D01*
X49476040Y-82837944D01*
X49571527Y-82672556D01*
X49630542Y-82490928D01*
X49650504Y-82301000D01*
X49630542Y-82111072D01*
X49571527Y-81929444D01*
X49476040Y-81764056D01*
X49422816Y-81704944D01*
X49352675Y-81627045D01*
X49352674Y-81627044D01*
X49348253Y-81622134D01*
X49193752Y-81509882D01*
X49187724Y-81507198D01*
X49187722Y-81507197D01*
X49025319Y-81434891D01*
X49025318Y-81434891D01*
X49019288Y-81432206D01*
X48925888Y-81412353D01*
X48838944Y-81393872D01*
X48838939Y-81393872D01*
X48832487Y-81392500D01*
X48641513Y-81392500D01*
X48635061Y-81393872D01*
X48635056Y-81393872D01*
X48548112Y-81412353D01*
X48454712Y-81432206D01*
X48448682Y-81434891D01*
X48448681Y-81434891D01*
X48286278Y-81507197D01*
X48286276Y-81507198D01*
X48280248Y-81509882D01*
X48125747Y-81622134D01*
X48121332Y-81627037D01*
X48116420Y-81631460D01*
X48115295Y-81630211D01*
X48061986Y-81663051D01*
X48028800Y-81667500D01*
X47794200Y-81667500D01*
X47726079Y-81647498D01*
X47706853Y-81631157D01*
X47706580Y-81631460D01*
X47701668Y-81627037D01*
X47697253Y-81622134D01*
X47542752Y-81509882D01*
X47536724Y-81507198D01*
X47536722Y-81507197D01*
X47374319Y-81434891D01*
X47374318Y-81434891D01*
X47368288Y-81432206D01*
X47274888Y-81412353D01*
X47187944Y-81393872D01*
X47187939Y-81393872D01*
X47181487Y-81392500D01*
X46990513Y-81392500D01*
X46984061Y-81393872D01*
X46984056Y-81393872D01*
X46897112Y-81412353D01*
X46803712Y-81432206D01*
X46797682Y-81434891D01*
X46797681Y-81434891D01*
X46635278Y-81507197D01*
X46635276Y-81507198D01*
X46629248Y-81509882D01*
X46474747Y-81622134D01*
X46470332Y-81627037D01*
X46465420Y-81631460D01*
X46464295Y-81630211D01*
X46410986Y-81663051D01*
X46377800Y-81667500D01*
X46143200Y-81667500D01*
X46075079Y-81647498D01*
X46055853Y-81631157D01*
X46055580Y-81631460D01*
X46050668Y-81627037D01*
X46046253Y-81622134D01*
X45891752Y-81509882D01*
X45885724Y-81507198D01*
X45885722Y-81507197D01*
X45723319Y-81434891D01*
X45723318Y-81434891D01*
X45717288Y-81432206D01*
X45623888Y-81412353D01*
X45536944Y-81393872D01*
X45536939Y-81393872D01*
X45530487Y-81392500D01*
X45339513Y-81392500D01*
X45333061Y-81393872D01*
X45333056Y-81393872D01*
X45246112Y-81412353D01*
X45152712Y-81432206D01*
X45146682Y-81434891D01*
X45146681Y-81434891D01*
X44984278Y-81507197D01*
X44984276Y-81507198D01*
X44978248Y-81509882D01*
X44823747Y-81622134D01*
X44819332Y-81627037D01*
X44814420Y-81631460D01*
X44813295Y-81630211D01*
X44759986Y-81663051D01*
X44726800Y-81667500D01*
X44111200Y-81667500D01*
X44043079Y-81647498D01*
X44023853Y-81631157D01*
X44023580Y-81631460D01*
X44018668Y-81627037D01*
X44014253Y-81622134D01*
X43859752Y-81509882D01*
X43853724Y-81507198D01*
X43853722Y-81507197D01*
X43691319Y-81434891D01*
X43691318Y-81434891D01*
X43685288Y-81432206D01*
X43591888Y-81412353D01*
X43504944Y-81393872D01*
X43504939Y-81393872D01*
X43498487Y-81392500D01*
X43307513Y-81392500D01*
X43301061Y-81393872D01*
X43301056Y-81393872D01*
X43214112Y-81412353D01*
X43120712Y-81432206D01*
X43114682Y-81434891D01*
X43114681Y-81434891D01*
X42952278Y-81507197D01*
X42952276Y-81507198D01*
X42946248Y-81509882D01*
X42791747Y-81622134D01*
X42787326Y-81627044D01*
X42787325Y-81627045D01*
X42717185Y-81704944D01*
X42663960Y-81764056D01*
X42568473Y-81929444D01*
X42509458Y-82111072D01*
X42508768Y-82117633D01*
X42508768Y-82117635D01*
X42492093Y-82276293D01*
X42465080Y-82341950D01*
X42455878Y-82352218D01*
X40126747Y-84681348D01*
X40118461Y-84688888D01*
X40111982Y-84693000D01*
X40106557Y-84698777D01*
X40065357Y-84742651D01*
X40062602Y-84745493D01*
X40042865Y-84765230D01*
X40040385Y-84768427D01*
X40032682Y-84777447D01*
X40002414Y-84809679D01*
X39998595Y-84816625D01*
X39998593Y-84816628D01*
X39992652Y-84827434D01*
X39981801Y-84843953D01*
X39969386Y-84859959D01*
X39966241Y-84867228D01*
X39966238Y-84867232D01*
X39951826Y-84900537D01*
X39946609Y-84911187D01*
X39925305Y-84949940D01*
X39923334Y-84957615D01*
X39923334Y-84957616D01*
X39920267Y-84969562D01*
X39913863Y-84988266D01*
X39905819Y-85006855D01*
X39904580Y-85014678D01*
X39904577Y-85014688D01*
X39898901Y-85050524D01*
X39896495Y-85062144D01*
X39885500Y-85104970D01*
X39885500Y-85125224D01*
X39883949Y-85144934D01*
X39880780Y-85164943D01*
X39881526Y-85172835D01*
X39884941Y-85208961D01*
X39885500Y-85220819D01*
X39885500Y-94513774D01*
X39865498Y-94581895D01*
X39811842Y-94628388D01*
X39741568Y-94638492D01*
X39733308Y-94637022D01*
X39670888Y-94623754D01*
X39567944Y-94601872D01*
X39567939Y-94601872D01*
X39561487Y-94600500D01*
X39370513Y-94600500D01*
X39364061Y-94601872D01*
X39364056Y-94601872D01*
X39235697Y-94629156D01*
X39164906Y-94623754D01*
X39108274Y-94580937D01*
X39083780Y-94514299D01*
X39083500Y-94505909D01*
X39083500Y-89353524D01*
X39103502Y-89285403D01*
X39115858Y-89269221D01*
X39189040Y-89187944D01*
X39275449Y-89038279D01*
X39281223Y-89028279D01*
X39281224Y-89028278D01*
X39284527Y-89022556D01*
X39343542Y-88840928D01*
X39346814Y-88809803D01*
X39362814Y-88657565D01*
X39363504Y-88651000D01*
X39343542Y-88461072D01*
X39284527Y-88279444D01*
X39189040Y-88114056D01*
X39061253Y-87972134D01*
X38962157Y-87900136D01*
X38912094Y-87863763D01*
X38912093Y-87863762D01*
X38906752Y-87859882D01*
X38900724Y-87857198D01*
X38900722Y-87857197D01*
X38738319Y-87784891D01*
X38738318Y-87784891D01*
X38732288Y-87782206D01*
X38638887Y-87762353D01*
X38551944Y-87743872D01*
X38551939Y-87743872D01*
X38545487Y-87742500D01*
X38354513Y-87742500D01*
X38348061Y-87743872D01*
X38348056Y-87743872D01*
X38261113Y-87762353D01*
X38167712Y-87782206D01*
X38161682Y-87784891D01*
X38161681Y-87784891D01*
X37999278Y-87857197D01*
X37999276Y-87857198D01*
X37993248Y-87859882D01*
X37987907Y-87863762D01*
X37987906Y-87863763D01*
X37937843Y-87900136D01*
X37838747Y-87972134D01*
X37710960Y-88114056D01*
X37615473Y-88279444D01*
X37556458Y-88461072D01*
X37536496Y-88651000D01*
X20452500Y-88651000D01*
X20452500Y-58332000D01*
X30180496Y-58332000D01*
X30200458Y-58521928D01*
X30259473Y-58703556D01*
X30354960Y-58868944D01*
X30359378Y-58873851D01*
X30359379Y-58873852D01*
X30441452Y-58965003D01*
X30482747Y-59010866D01*
X30581342Y-59082500D01*
X30608873Y-59102502D01*
X30637248Y-59123118D01*
X30643276Y-59125802D01*
X30643278Y-59125803D01*
X30805681Y-59198109D01*
X30811712Y-59200794D01*
X30905113Y-59220647D01*
X30992056Y-59239128D01*
X30992061Y-59239128D01*
X30998513Y-59240500D01*
X31189487Y-59240500D01*
X31195939Y-59239128D01*
X31195944Y-59239128D01*
X31282887Y-59220647D01*
X31376288Y-59200794D01*
X31382319Y-59198109D01*
X31544722Y-59125803D01*
X31544724Y-59125802D01*
X31550752Y-59123118D01*
X31579128Y-59102502D01*
X31683671Y-59026546D01*
X31705253Y-59010866D01*
X31709668Y-59005963D01*
X31714580Y-59001540D01*
X31715705Y-59002789D01*
X31769014Y-58969949D01*
X31802200Y-58965500D01*
X41704495Y-58965500D01*
X41715678Y-58966027D01*
X41723171Y-58967702D01*
X41731097Y-58967453D01*
X41731098Y-58967453D01*
X41791248Y-58965562D01*
X41795207Y-58965500D01*
X41823118Y-58965500D01*
X41827053Y-58965003D01*
X41827118Y-58964995D01*
X41838955Y-58964062D01*
X41871213Y-58963048D01*
X41875232Y-58962922D01*
X41883151Y-58962673D01*
X41902605Y-58957021D01*
X41921962Y-58953013D01*
X41934192Y-58951468D01*
X41934193Y-58951468D01*
X41942059Y-58950474D01*
X41949430Y-58947555D01*
X41949432Y-58947555D01*
X41983174Y-58934196D01*
X41994404Y-58930351D01*
X42029245Y-58920229D01*
X42029246Y-58920229D01*
X42036855Y-58918018D01*
X42043674Y-58913985D01*
X42043679Y-58913983D01*
X42054290Y-58907707D01*
X42072038Y-58899012D01*
X42090879Y-58891552D01*
X42126649Y-58865564D01*
X42136569Y-58859048D01*
X42167797Y-58840580D01*
X42167800Y-58840578D01*
X42174624Y-58836542D01*
X42188945Y-58822221D01*
X42203979Y-58809380D01*
X42213956Y-58802131D01*
X42220369Y-58797472D01*
X42248560Y-58763395D01*
X42256550Y-58754616D01*
X48011167Y-53000000D01*
X74086496Y-53000000D01*
X74087186Y-53006565D01*
X74105033Y-53176366D01*
X74106458Y-53189928D01*
X74165473Y-53371556D01*
X74260960Y-53536944D01*
X74265378Y-53541851D01*
X74265379Y-53541852D01*
X74356003Y-53642500D01*
X74388747Y-53678866D01*
X74543248Y-53791118D01*
X74549276Y-53793802D01*
X74549278Y-53793803D01*
X74711681Y-53866109D01*
X74717712Y-53868794D01*
X74811112Y-53888647D01*
X74898056Y-53907128D01*
X74898061Y-53907128D01*
X74904513Y-53908500D01*
X75095487Y-53908500D01*
X75101939Y-53907128D01*
X75101944Y-53907128D01*
X75188887Y-53888647D01*
X75282288Y-53868794D01*
X75288319Y-53866109D01*
X75450722Y-53793803D01*
X75450724Y-53793802D01*
X75456752Y-53791118D01*
X75611253Y-53678866D01*
X75643997Y-53642500D01*
X75734621Y-53541852D01*
X75734622Y-53541851D01*
X75739040Y-53536944D01*
X75834527Y-53371556D01*
X75893542Y-53189928D01*
X75894968Y-53176366D01*
X75912814Y-53006565D01*
X75913504Y-53000000D01*
X75907001Y-52938127D01*
X75894232Y-52816635D01*
X75894232Y-52816633D01*
X75893542Y-52810072D01*
X75834527Y-52628444D01*
X75739040Y-52463056D01*
X75665863Y-52381785D01*
X75635147Y-52317779D01*
X75633500Y-52297476D01*
X75633500Y-50527524D01*
X75653502Y-50459403D01*
X75665858Y-50443221D01*
X75739040Y-50361944D01*
X75834527Y-50196556D01*
X75893542Y-50014928D01*
X75913504Y-49825000D01*
X75893542Y-49635072D01*
X75834527Y-49453444D01*
X75821047Y-49430095D01*
X75752583Y-49311513D01*
X75739040Y-49288056D01*
X75611253Y-49146134D01*
X75456752Y-49033882D01*
X75450724Y-49031198D01*
X75450722Y-49031197D01*
X75288319Y-48958891D01*
X75288318Y-48958891D01*
X75282288Y-48956206D01*
X75188888Y-48936353D01*
X75101944Y-48917872D01*
X75101939Y-48917872D01*
X75095487Y-48916500D01*
X74904513Y-48916500D01*
X74898061Y-48917872D01*
X74898056Y-48917872D01*
X74811112Y-48936353D01*
X74717712Y-48956206D01*
X74711682Y-48958891D01*
X74711681Y-48958891D01*
X74549278Y-49031197D01*
X74549276Y-49031198D01*
X74543248Y-49033882D01*
X74388747Y-49146134D01*
X74260960Y-49288056D01*
X74247417Y-49311513D01*
X74178954Y-49430095D01*
X74165473Y-49453444D01*
X74106458Y-49635072D01*
X74086496Y-49825000D01*
X74106458Y-50014928D01*
X74165473Y-50196556D01*
X74260960Y-50361944D01*
X74334137Y-50443215D01*
X74364853Y-50507221D01*
X74366500Y-50527524D01*
X74366500Y-52297476D01*
X74346498Y-52365597D01*
X74334142Y-52381779D01*
X74260960Y-52463056D01*
X74165473Y-52628444D01*
X74106458Y-52810072D01*
X74105768Y-52816633D01*
X74105768Y-52816635D01*
X74092999Y-52938127D01*
X74086496Y-53000000D01*
X48011167Y-53000000D01*
X52274262Y-48736905D01*
X52336574Y-48702879D01*
X52363357Y-48700000D01*
X52419249Y-48700000D01*
X52425701Y-48698628D01*
X52425706Y-48698628D01*
X52521866Y-48678188D01*
X52606050Y-48660294D01*
X52612081Y-48657609D01*
X52774484Y-48585303D01*
X52774486Y-48585302D01*
X52780514Y-48582618D01*
X52935015Y-48470366D01*
X52954050Y-48449226D01*
X53058383Y-48333352D01*
X53058384Y-48333351D01*
X53062802Y-48328444D01*
X53128245Y-48215094D01*
X53154985Y-48168779D01*
X53154986Y-48168778D01*
X53158289Y-48163056D01*
X53217304Y-47981428D01*
X53218047Y-47974365D01*
X53236576Y-47798065D01*
X53237266Y-47791500D01*
X53217304Y-47601572D01*
X53158289Y-47419944D01*
X53062802Y-47254556D01*
X52974600Y-47156597D01*
X52939437Y-47117545D01*
X52939436Y-47117544D01*
X52935015Y-47112634D01*
X52901765Y-47088476D01*
X52898535Y-47086130D01*
X52856275Y-47055426D01*
X52812922Y-46999205D01*
X52806847Y-46928469D01*
X52839978Y-46865677D01*
X52856276Y-46851555D01*
X52885813Y-46830095D01*
X52903948Y-46816919D01*
X52974976Y-46738034D01*
X53027316Y-46679905D01*
X53027317Y-46679904D01*
X53031735Y-46674997D01*
X53127222Y-46509609D01*
X53186237Y-46327981D01*
X53206199Y-46138053D01*
X53186237Y-45948125D01*
X53127222Y-45766497D01*
X53031735Y-45601109D01*
X53017032Y-45584779D01*
X52908370Y-45464098D01*
X52908369Y-45464097D01*
X52903948Y-45459187D01*
X52859729Y-45427060D01*
X52816377Y-45370838D01*
X52810302Y-45300102D01*
X52823379Y-45264422D01*
X52829348Y-45253565D01*
X52840202Y-45237041D01*
X52847757Y-45227302D01*
X52847758Y-45227300D01*
X52852614Y-45221040D01*
X52870174Y-45180460D01*
X52875391Y-45169812D01*
X52892875Y-45138009D01*
X52892876Y-45138007D01*
X52896695Y-45131060D01*
X52901733Y-45111437D01*
X52908137Y-45092734D01*
X52913033Y-45081420D01*
X52913033Y-45081419D01*
X52916181Y-45074145D01*
X52917422Y-45066313D01*
X52921092Y-45043147D01*
X52951903Y-44978551D01*
X53042040Y-44878444D01*
X53137527Y-44713056D01*
X53196542Y-44531428D01*
X53200717Y-44491710D01*
X53215814Y-44348065D01*
X53216504Y-44341500D01*
X53204518Y-44227461D01*
X53197232Y-44158135D01*
X53197232Y-44158133D01*
X53196542Y-44151572D01*
X53137527Y-43969944D01*
X53042040Y-43804556D01*
X52938722Y-43689809D01*
X52918675Y-43667545D01*
X52918674Y-43667544D01*
X52914253Y-43662634D01*
X52759752Y-43550382D01*
X52753724Y-43547698D01*
X52753722Y-43547697D01*
X52591319Y-43475391D01*
X52591318Y-43475391D01*
X52585288Y-43472706D01*
X52491887Y-43452853D01*
X52404944Y-43434372D01*
X52404939Y-43434372D01*
X52398487Y-43433000D01*
X52207513Y-43433000D01*
X52201061Y-43434372D01*
X52201056Y-43434372D01*
X52114113Y-43452853D01*
X52020712Y-43472706D01*
X52014682Y-43475391D01*
X52014681Y-43475391D01*
X51852278Y-43547697D01*
X51852276Y-43547698D01*
X51846248Y-43550382D01*
X51691747Y-43662634D01*
X51687326Y-43667544D01*
X51687325Y-43667545D01*
X51667279Y-43689809D01*
X51563960Y-43804556D01*
X51468473Y-43969944D01*
X51409458Y-44151572D01*
X51408768Y-44158133D01*
X51408768Y-44158135D01*
X51401482Y-44227461D01*
X51389496Y-44341500D01*
X51390186Y-44348065D01*
X51405284Y-44491710D01*
X51409458Y-44531428D01*
X51411498Y-44537706D01*
X51461561Y-44691782D01*
X51468473Y-44713056D01*
X51471274Y-44717908D01*
X51480659Y-44787907D01*
X51450552Y-44852204D01*
X51445213Y-44857883D01*
X49933095Y-46370001D01*
X49870783Y-46404027D01*
X49799968Y-46398962D01*
X49743132Y-46356415D01*
X49718321Y-46289895D01*
X49718000Y-46280906D01*
X49718000Y-45957641D01*
X49719226Y-45940107D01*
X49722244Y-45918630D01*
X49722851Y-45910740D01*
X49723058Y-45895963D01*
X49722671Y-45888061D01*
X49718785Y-45853413D01*
X49718000Y-45839369D01*
X49718000Y-44657642D01*
X49719226Y-44640108D01*
X49722244Y-44618630D01*
X49722851Y-44610740D01*
X49723058Y-44595963D01*
X49722671Y-44588060D01*
X49718785Y-44553411D01*
X49718000Y-44539367D01*
X49718000Y-44214115D01*
X49713525Y-44198876D01*
X49712135Y-44197671D01*
X49704452Y-44196000D01*
X49683326Y-44196000D01*
X49657681Y-44203530D01*
X48999095Y-44862115D01*
X48936783Y-44896140D01*
X48865967Y-44891075D01*
X48820905Y-44862115D01*
X48272808Y-44314019D01*
X48258870Y-44306408D01*
X48257034Y-44306540D01*
X48250422Y-44310789D01*
X47876811Y-44684399D01*
X47864000Y-44707861D01*
X47864000Y-47981884D01*
X47868475Y-47997123D01*
X47869865Y-47998328D01*
X47877548Y-47999999D01*
X47998907Y-47999999D01*
X48067028Y-48020001D01*
X48113521Y-48073657D01*
X48123625Y-48143931D01*
X48094131Y-48208511D01*
X48088007Y-48215089D01*
X44822308Y-51480787D01*
X41562500Y-54740595D01*
X41500188Y-54774621D01*
X41473405Y-54777500D01*
X31802200Y-54777500D01*
X31734079Y-54757498D01*
X31714853Y-54741157D01*
X31714580Y-54741460D01*
X31709668Y-54737037D01*
X31705253Y-54732134D01*
X31550752Y-54619882D01*
X31544724Y-54617198D01*
X31544722Y-54617197D01*
X31382319Y-54544891D01*
X31382318Y-54544891D01*
X31376288Y-54542206D01*
X31282888Y-54522353D01*
X31195944Y-54503872D01*
X31195939Y-54503872D01*
X31189487Y-54502500D01*
X30998513Y-54502500D01*
X30992061Y-54503872D01*
X30992056Y-54503872D01*
X30905113Y-54522353D01*
X30811712Y-54542206D01*
X30805682Y-54544891D01*
X30805681Y-54544891D01*
X30643278Y-54617197D01*
X30643276Y-54617198D01*
X30637248Y-54619882D01*
X30482747Y-54732134D01*
X30478326Y-54737044D01*
X30478325Y-54737045D01*
X30444492Y-54774621D01*
X30354960Y-54874056D01*
X30259473Y-55039444D01*
X30200458Y-55221072D01*
X30199768Y-55227633D01*
X30199768Y-55227635D01*
X30190215Y-55318527D01*
X30180496Y-55411000D01*
X30200458Y-55600928D01*
X30259473Y-55782556D01*
X30354960Y-55947944D01*
X30424515Y-56025192D01*
X30455230Y-56089197D01*
X30446467Y-56159650D01*
X30424516Y-56193806D01*
X30354960Y-56271056D01*
X30259473Y-56436444D01*
X30200458Y-56618072D01*
X30180496Y-56808000D01*
X30200458Y-56997928D01*
X30259473Y-57179556D01*
X30354960Y-57344944D01*
X30359378Y-57349851D01*
X30359379Y-57349852D01*
X30481688Y-57485690D01*
X30512406Y-57549697D01*
X30503641Y-57620151D01*
X30481688Y-57654310D01*
X30369276Y-57779157D01*
X30354960Y-57795056D01*
X30343157Y-57815500D01*
X30290244Y-57907148D01*
X30259473Y-57960444D01*
X30200458Y-58142072D01*
X30180496Y-58332000D01*
X20452500Y-58332000D01*
X20452500Y-50839000D01*
X30180496Y-50839000D01*
X30200458Y-51028928D01*
X30259473Y-51210556D01*
X30354960Y-51375944D01*
X30482747Y-51517866D01*
X30637248Y-51630118D01*
X30643276Y-51632802D01*
X30643278Y-51632803D01*
X30805681Y-51705109D01*
X30811712Y-51707794D01*
X30904157Y-51727444D01*
X30992056Y-51746128D01*
X30992061Y-51746128D01*
X30998513Y-51747500D01*
X31189487Y-51747500D01*
X31195939Y-51746128D01*
X31195944Y-51746128D01*
X31283843Y-51727444D01*
X31376288Y-51707794D01*
X31382319Y-51705109D01*
X31544722Y-51632803D01*
X31544724Y-51632802D01*
X31550752Y-51630118D01*
X31705253Y-51517866D01*
X31833040Y-51375944D01*
X31928527Y-51210556D01*
X31941741Y-51169889D01*
X31972478Y-51119731D01*
X35904549Y-47187660D01*
X45497654Y-47187660D01*
X45501400Y-47225869D01*
X45502001Y-47238164D01*
X45502001Y-47536669D01*
X45502371Y-47543490D01*
X45507895Y-47594352D01*
X45511521Y-47609604D01*
X45556676Y-47730054D01*
X45565214Y-47745649D01*
X45641715Y-47847724D01*
X45654276Y-47860285D01*
X45756351Y-47936786D01*
X45771946Y-47945324D01*
X45892394Y-47990478D01*
X45907649Y-47994105D01*
X45958514Y-47999631D01*
X45965328Y-48000000D01*
X46247618Y-48000000D01*
X46264283Y-48001107D01*
X46285991Y-48004004D01*
X46299986Y-48004297D01*
X46341494Y-48000519D01*
X46352914Y-48000000D01*
X47337885Y-48000000D01*
X47353124Y-47995525D01*
X47354329Y-47994135D01*
X47356000Y-47986452D01*
X47356000Y-44715325D01*
X47348470Y-44689680D01*
X46972808Y-44314019D01*
X46958870Y-44306408D01*
X46957034Y-44306540D01*
X46950422Y-44310789D01*
X46399095Y-44862115D01*
X46336783Y-44896140D01*
X46265967Y-44891075D01*
X46220905Y-44862115D01*
X45567597Y-44208808D01*
X45550069Y-44199237D01*
X46280301Y-44199237D01*
X46283539Y-44206328D01*
X46297189Y-44219979D01*
X46311131Y-44227592D01*
X46312966Y-44227461D01*
X46319578Y-44223211D01*
X46333980Y-44208809D01*
X46339207Y-44199237D01*
X48880301Y-44199237D01*
X48883539Y-44206328D01*
X48897189Y-44219979D01*
X48911131Y-44227592D01*
X48912966Y-44227461D01*
X48919578Y-44223211D01*
X48933980Y-44208809D01*
X48939487Y-44198724D01*
X48932184Y-44196000D01*
X48891326Y-44196000D01*
X48880301Y-44199237D01*
X46339207Y-44199237D01*
X46339487Y-44198724D01*
X46332184Y-44196000D01*
X46291326Y-44196000D01*
X46280301Y-44199237D01*
X45550069Y-44199237D01*
X45544141Y-44196000D01*
X45520116Y-44196000D01*
X45504877Y-44200475D01*
X45503672Y-44201865D01*
X45502001Y-44209548D01*
X45502001Y-44532869D01*
X45501007Y-44548663D01*
X45497850Y-44573654D01*
X45497654Y-44587659D01*
X45501400Y-44625866D01*
X45502001Y-44638162D01*
X45502001Y-45832868D01*
X45501007Y-45848661D01*
X45497850Y-45873653D01*
X45497654Y-45887659D01*
X45501400Y-45925867D01*
X45502001Y-45938163D01*
X45502001Y-47132868D01*
X45501007Y-47148660D01*
X45497850Y-47173653D01*
X45497654Y-47187660D01*
X35904549Y-47187660D01*
X39831247Y-43260962D01*
X39839537Y-43253418D01*
X39846018Y-43249305D01*
X39892659Y-43199637D01*
X39895413Y-43196796D01*
X39915135Y-43177074D01*
X39917612Y-43173881D01*
X39925317Y-43164860D01*
X39950159Y-43138405D01*
X39955586Y-43132626D01*
X39962008Y-43120944D01*
X39965346Y-43114873D01*
X39976202Y-43098346D01*
X39983757Y-43088607D01*
X39983758Y-43088605D01*
X39988614Y-43082345D01*
X40006174Y-43041765D01*
X40011391Y-43031117D01*
X40028875Y-42999314D01*
X40028876Y-42999312D01*
X40032695Y-42992365D01*
X40037733Y-42972742D01*
X40044137Y-42954039D01*
X40049033Y-42942725D01*
X40049033Y-42942724D01*
X40052181Y-42935450D01*
X40053420Y-42927627D01*
X40053423Y-42927617D01*
X40059099Y-42891781D01*
X40061505Y-42880161D01*
X40070528Y-42845016D01*
X40070528Y-42845015D01*
X40072500Y-42837335D01*
X40072500Y-42817081D01*
X40074051Y-42797370D01*
X40075980Y-42785191D01*
X40077220Y-42777362D01*
X40073059Y-42733343D01*
X40072500Y-42721486D01*
X40072500Y-42554594D01*
X40092502Y-42486473D01*
X40109405Y-42465499D01*
X41276132Y-41298772D01*
X41338444Y-41264746D01*
X41365227Y-41261867D01*
X42330792Y-41261867D01*
X42398913Y-41281869D01*
X42418139Y-41298210D01*
X42418412Y-41297907D01*
X42423324Y-41302330D01*
X42427739Y-41307233D01*
X42582240Y-41419485D01*
X42588268Y-41422169D01*
X42588270Y-41422170D01*
X42750673Y-41494476D01*
X42756704Y-41497161D01*
X42850105Y-41517014D01*
X42937048Y-41535495D01*
X42937053Y-41535495D01*
X42943505Y-41536867D01*
X43134479Y-41536867D01*
X43140931Y-41535495D01*
X43140936Y-41535495D01*
X43227879Y-41517014D01*
X43321280Y-41497161D01*
X43327311Y-41494476D01*
X43489714Y-41422170D01*
X43489716Y-41422169D01*
X43495744Y-41419485D01*
X43650245Y-41307233D01*
X43673083Y-41281869D01*
X43773613Y-41170219D01*
X43773614Y-41170218D01*
X43778032Y-41165311D01*
X43873519Y-40999923D01*
X43932534Y-40818295D01*
X43951341Y-40639361D01*
X43951806Y-40634932D01*
X43952496Y-40628367D01*
X43943251Y-40540405D01*
X43936132Y-40472670D01*
X43948904Y-40402832D01*
X43997406Y-40350985D01*
X44061442Y-40333500D01*
X45376000Y-40333500D01*
X45444121Y-40353502D01*
X45490614Y-40407158D01*
X45502000Y-40459500D01*
X45502000Y-40632875D01*
X45501006Y-40648667D01*
X45497850Y-40673653D01*
X45497654Y-40687660D01*
X45501399Y-40725859D01*
X45502000Y-40738154D01*
X45502000Y-41932874D01*
X45501007Y-41948665D01*
X45497849Y-41973660D01*
X45497654Y-41987660D01*
X45501399Y-42025861D01*
X45502000Y-42038156D01*
X45502000Y-43232866D01*
X45501007Y-43248657D01*
X45497849Y-43273660D01*
X45497653Y-43287657D01*
X45501399Y-43325863D01*
X45502000Y-43338157D01*
X45502000Y-43669885D01*
X45506475Y-43685124D01*
X45507865Y-43686329D01*
X45515548Y-43688000D01*
X45536674Y-43688000D01*
X45545951Y-43685276D01*
X46280513Y-43685276D01*
X46287816Y-43688000D01*
X46328674Y-43688000D01*
X46337952Y-43685276D01*
X47580513Y-43685276D01*
X47587816Y-43688000D01*
X47628674Y-43688000D01*
X47637952Y-43685276D01*
X48880513Y-43685276D01*
X48887816Y-43688000D01*
X48928674Y-43688000D01*
X48939699Y-43684763D01*
X48936461Y-43677672D01*
X48922811Y-43664021D01*
X48908869Y-43656408D01*
X48907034Y-43656539D01*
X48900422Y-43660789D01*
X48886020Y-43675191D01*
X48880513Y-43685276D01*
X47637952Y-43685276D01*
X47639699Y-43684763D01*
X47636461Y-43677672D01*
X47622811Y-43664021D01*
X47608869Y-43656408D01*
X47607034Y-43656539D01*
X47600422Y-43660789D01*
X47586020Y-43675191D01*
X47580513Y-43685276D01*
X46337952Y-43685276D01*
X46339699Y-43684763D01*
X46336461Y-43677672D01*
X46322811Y-43664021D01*
X46308869Y-43656408D01*
X46307034Y-43656539D01*
X46300422Y-43660789D01*
X46286020Y-43675191D01*
X46280513Y-43685276D01*
X45545951Y-43685276D01*
X45562319Y-43680470D01*
X46220905Y-43021885D01*
X46283217Y-42987860D01*
X46354033Y-42992925D01*
X46399095Y-43021885D01*
X46947192Y-43569981D01*
X46961130Y-43577592D01*
X46962966Y-43577460D01*
X46969578Y-43573211D01*
X47520905Y-43021885D01*
X47583217Y-42987860D01*
X47654033Y-42992925D01*
X47699095Y-43021885D01*
X48247192Y-43569981D01*
X48261130Y-43577592D01*
X48262966Y-43577460D01*
X48269578Y-43573211D01*
X48820905Y-43021885D01*
X48883217Y-42987860D01*
X48954033Y-42992925D01*
X48999095Y-43021885D01*
X49652403Y-43675192D01*
X49675859Y-43688000D01*
X49699884Y-43688000D01*
X49715123Y-43683525D01*
X49716328Y-43682135D01*
X49717999Y-43674452D01*
X49717999Y-43357647D01*
X49719225Y-43340110D01*
X49722245Y-43318624D01*
X49722851Y-43310743D01*
X49723058Y-43295961D01*
X49722671Y-43288063D01*
X49718784Y-43253408D01*
X49717999Y-43239362D01*
X49717999Y-42057648D01*
X49719225Y-42040112D01*
X49722245Y-42018626D01*
X49722851Y-42010743D01*
X49723058Y-41995962D01*
X49722671Y-41988062D01*
X49718784Y-41953407D01*
X49717999Y-41939362D01*
X49717999Y-40757648D01*
X49719225Y-40740112D01*
X49722245Y-40718626D01*
X49722851Y-40710742D01*
X49723058Y-40695962D01*
X49722671Y-40688061D01*
X49718784Y-40653406D01*
X49717999Y-40639361D01*
X49717999Y-40459500D01*
X49738001Y-40391379D01*
X49791657Y-40344886D01*
X49843999Y-40333500D01*
X54819406Y-40333500D01*
X54887527Y-40353502D01*
X54908501Y-40370405D01*
X57070878Y-42532783D01*
X57104904Y-42595095D01*
X57107093Y-42608706D01*
X57108274Y-42619945D01*
X57120193Y-42733344D01*
X57124458Y-42773928D01*
X57183473Y-42955556D01*
X57278960Y-43120944D01*
X57352137Y-43202215D01*
X57382853Y-43266221D01*
X57384500Y-43286524D01*
X57384500Y-43913476D01*
X57364498Y-43981597D01*
X57352142Y-43997779D01*
X57278960Y-44079056D01*
X57238660Y-44148858D01*
X57193203Y-44227592D01*
X57183473Y-44244444D01*
X57124458Y-44426072D01*
X57123768Y-44432633D01*
X57123768Y-44432635D01*
X57113385Y-44531428D01*
X57104496Y-44616000D01*
X57124458Y-44805928D01*
X57183473Y-44987556D01*
X57278960Y-45152944D01*
X57352137Y-45234215D01*
X57382853Y-45298221D01*
X57384500Y-45318524D01*
X57384500Y-45564476D01*
X57364498Y-45632597D01*
X57352142Y-45648779D01*
X57278960Y-45730056D01*
X57275659Y-45735774D01*
X57187736Y-45888061D01*
X57183473Y-45895444D01*
X57124458Y-46077072D01*
X57123768Y-46083633D01*
X57123768Y-46083635D01*
X57114890Y-46168105D01*
X57104496Y-46267000D01*
X57105186Y-46273565D01*
X57118366Y-46398962D01*
X57124458Y-46456928D01*
X57183473Y-46638556D01*
X57278960Y-46803944D01*
X57352137Y-46885215D01*
X57382853Y-46949221D01*
X57384500Y-46969524D01*
X57384500Y-47215476D01*
X57364498Y-47283597D01*
X57352142Y-47299779D01*
X57278960Y-47381056D01*
X57271506Y-47393967D01*
X57189117Y-47536669D01*
X57183473Y-47546444D01*
X57124458Y-47728072D01*
X57123768Y-47734633D01*
X57123768Y-47734635D01*
X57111882Y-47847724D01*
X57104496Y-47918000D01*
X57105186Y-47924565D01*
X57122052Y-48085032D01*
X57124458Y-48107928D01*
X57183473Y-48289556D01*
X57186776Y-48295278D01*
X57186777Y-48295279D01*
X57194438Y-48308548D01*
X57278960Y-48454944D01*
X57283378Y-48459851D01*
X57283379Y-48459852D01*
X57393559Y-48582219D01*
X57406747Y-48596866D01*
X57460795Y-48636134D01*
X57540395Y-48693967D01*
X57561248Y-48709118D01*
X57567276Y-48711802D01*
X57567278Y-48711803D01*
X57705062Y-48773148D01*
X57735712Y-48786794D01*
X57829113Y-48806647D01*
X57916056Y-48825128D01*
X57916061Y-48825128D01*
X57922513Y-48826500D01*
X58113487Y-48826500D01*
X58119939Y-48825128D01*
X58119944Y-48825128D01*
X58206887Y-48806647D01*
X58300288Y-48786794D01*
X58330938Y-48773148D01*
X58468722Y-48711803D01*
X58468724Y-48711802D01*
X58474752Y-48709118D01*
X58495606Y-48693967D01*
X58575205Y-48636134D01*
X58629253Y-48596866D01*
X58642441Y-48582219D01*
X58752621Y-48459852D01*
X58752622Y-48459851D01*
X58757040Y-48454944D01*
X58841562Y-48308548D01*
X58849223Y-48295279D01*
X58849224Y-48295278D01*
X58852527Y-48289556D01*
X58911542Y-48107928D01*
X58913949Y-48085032D01*
X58930814Y-47924565D01*
X58931504Y-47918000D01*
X58924118Y-47847724D01*
X58912232Y-47734635D01*
X58912232Y-47734633D01*
X58911542Y-47728072D01*
X58852527Y-47546444D01*
X58846884Y-47536669D01*
X58764494Y-47393967D01*
X58757040Y-47381056D01*
X58683863Y-47299785D01*
X58653147Y-47235779D01*
X58651500Y-47215476D01*
X58651500Y-46969524D01*
X58671502Y-46901403D01*
X58683858Y-46885221D01*
X58757040Y-46803944D01*
X58852527Y-46638556D01*
X58911542Y-46456928D01*
X58917635Y-46398962D01*
X58930814Y-46273565D01*
X58931504Y-46267000D01*
X58921110Y-46168105D01*
X58912232Y-46083635D01*
X58912232Y-46083633D01*
X58911542Y-46077072D01*
X58852527Y-45895444D01*
X58848265Y-45888061D01*
X58760341Y-45735774D01*
X58757040Y-45730056D01*
X58683863Y-45648785D01*
X58653147Y-45584779D01*
X58651500Y-45564476D01*
X58651500Y-45318524D01*
X58671502Y-45250403D01*
X58683858Y-45234221D01*
X58757040Y-45152944D01*
X58852527Y-44987556D01*
X58911542Y-44805928D01*
X58931504Y-44616000D01*
X58922615Y-44531428D01*
X58912232Y-44432635D01*
X58912232Y-44432633D01*
X58911542Y-44426072D01*
X58852527Y-44244444D01*
X58842798Y-44227592D01*
X58797340Y-44148858D01*
X58757040Y-44079056D01*
X58683863Y-43997785D01*
X58653147Y-43933779D01*
X58651500Y-43913476D01*
X58651500Y-43286524D01*
X58671502Y-43218403D01*
X58683858Y-43202221D01*
X58757040Y-43120944D01*
X58852527Y-42955556D01*
X58911542Y-42773928D01*
X58915808Y-42733344D01*
X58930814Y-42590565D01*
X58931504Y-42584000D01*
X58929542Y-42565328D01*
X58912232Y-42400635D01*
X58912232Y-42400633D01*
X58911542Y-42394072D01*
X58852527Y-42212444D01*
X58757040Y-42047056D01*
X58749027Y-42038156D01*
X58633675Y-41910045D01*
X58633674Y-41910044D01*
X58629253Y-41905134D01*
X58474752Y-41792882D01*
X58468724Y-41790198D01*
X58468722Y-41790197D01*
X58306319Y-41717891D01*
X58306318Y-41717891D01*
X58300288Y-41715206D01*
X58206887Y-41695353D01*
X58119944Y-41676872D01*
X58119939Y-41676872D01*
X58113487Y-41675500D01*
X58057594Y-41675500D01*
X57989473Y-41655498D01*
X57968499Y-41638595D01*
X56814328Y-40484423D01*
X55637652Y-39307747D01*
X55630112Y-39299461D01*
X55626000Y-39292982D01*
X55576348Y-39246356D01*
X55573507Y-39243602D01*
X55553770Y-39223865D01*
X55550573Y-39221385D01*
X55541551Y-39213680D01*
X55515100Y-39188841D01*
X55509321Y-39183414D01*
X55502375Y-39179595D01*
X55502372Y-39179593D01*
X55491566Y-39173652D01*
X55475047Y-39162801D01*
X55474583Y-39162441D01*
X55459041Y-39150386D01*
X55451772Y-39147241D01*
X55451768Y-39147238D01*
X55418463Y-39132826D01*
X55407813Y-39127609D01*
X55369060Y-39106305D01*
X55349437Y-39101267D01*
X55330734Y-39094863D01*
X55319420Y-39089967D01*
X55319419Y-39089967D01*
X55312145Y-39086819D01*
X55304322Y-39085580D01*
X55304312Y-39085577D01*
X55268476Y-39079901D01*
X55256856Y-39077495D01*
X55221711Y-39068472D01*
X55221710Y-39068472D01*
X55214030Y-39066500D01*
X55193776Y-39066500D01*
X55174065Y-39064949D01*
X55161886Y-39063020D01*
X55154057Y-39061780D01*
X55146165Y-39062526D01*
X55110039Y-39065941D01*
X55098181Y-39066500D01*
X45802373Y-39066500D01*
X45734252Y-39046498D01*
X45687759Y-38992842D01*
X45677655Y-38922568D01*
X45682538Y-38901570D01*
X45703542Y-38836928D01*
X45723504Y-38647000D01*
X45722814Y-38640435D01*
X45704232Y-38463635D01*
X45704232Y-38463633D01*
X45703542Y-38457072D01*
X45701503Y-38450797D01*
X45701502Y-38450792D01*
X45694563Y-38429438D01*
X45692534Y-38358471D01*
X45729195Y-38297672D01*
X45792907Y-38266346D01*
X45814395Y-38264500D01*
X50959800Y-38264500D01*
X51027921Y-38284502D01*
X51047147Y-38300843D01*
X51047420Y-38300540D01*
X51052332Y-38304963D01*
X51056747Y-38309866D01*
X51211248Y-38422118D01*
X51217276Y-38424802D01*
X51217278Y-38424803D01*
X51275651Y-38450792D01*
X51385712Y-38499794D01*
X51478157Y-38519444D01*
X51566056Y-38538128D01*
X51566061Y-38538128D01*
X51572513Y-38539500D01*
X51763487Y-38539500D01*
X51769939Y-38538128D01*
X51769944Y-38538128D01*
X51857843Y-38519444D01*
X51950288Y-38499794D01*
X52060349Y-38450792D01*
X52118722Y-38424803D01*
X52118724Y-38424802D01*
X52124752Y-38422118D01*
X52279253Y-38309866D01*
X52310247Y-38275444D01*
X52402621Y-38172852D01*
X52402622Y-38172851D01*
X52407040Y-38167944D01*
X52502527Y-38002556D01*
X52561542Y-37820928D01*
X52575255Y-37690461D01*
X52580814Y-37637565D01*
X52581504Y-37631000D01*
X52568976Y-37511805D01*
X52562232Y-37447635D01*
X52562232Y-37447633D01*
X52561542Y-37441072D01*
X52502527Y-37259444D01*
X52407040Y-37094056D01*
X52390882Y-37076110D01*
X52283675Y-36957045D01*
X52283674Y-36957044D01*
X52279253Y-36952134D01*
X52124752Y-36839882D01*
X52118724Y-36837198D01*
X52118722Y-36837197D01*
X51956319Y-36764891D01*
X51956318Y-36764891D01*
X51950288Y-36762206D01*
X51856887Y-36742353D01*
X51769944Y-36723872D01*
X51769939Y-36723872D01*
X51763487Y-36722500D01*
X51572513Y-36722500D01*
X51566061Y-36723872D01*
X51566056Y-36723872D01*
X51479113Y-36742353D01*
X51385712Y-36762206D01*
X51379682Y-36764891D01*
X51379681Y-36764891D01*
X51217278Y-36837197D01*
X51217276Y-36837198D01*
X51211248Y-36839882D01*
X51056747Y-36952134D01*
X51052332Y-36957037D01*
X51047420Y-36961460D01*
X51046295Y-36960211D01*
X50992986Y-36993051D01*
X50959800Y-36997500D01*
X37259461Y-36997500D01*
X37248278Y-36996973D01*
X37240785Y-36995298D01*
X37232859Y-36995547D01*
X37232858Y-36995547D01*
X37172695Y-36997438D01*
X37168737Y-36997500D01*
X37140838Y-36997500D01*
X37136848Y-36998004D01*
X37125014Y-36998936D01*
X37080805Y-37000326D01*
X37073191Y-37002538D01*
X37073186Y-37002539D01*
X37061353Y-37005977D01*
X37041990Y-37009988D01*
X37021897Y-37012526D01*
X37014530Y-37015443D01*
X37014525Y-37015444D01*
X36980786Y-37028802D01*
X36969559Y-37032646D01*
X36927101Y-37044982D01*
X36920275Y-37049019D01*
X36909666Y-37055293D01*
X36891918Y-37063988D01*
X36873077Y-37071448D01*
X36866661Y-37076110D01*
X36866660Y-37076110D01*
X36837307Y-37097436D01*
X36827387Y-37103952D01*
X36796159Y-37122420D01*
X36796156Y-37122422D01*
X36789332Y-37126458D01*
X36775008Y-37140782D01*
X36759981Y-37153617D01*
X36743587Y-37165528D01*
X36738534Y-37171636D01*
X36738532Y-37171638D01*
X36715403Y-37199597D01*
X36707423Y-37208367D01*
X36666985Y-37248804D01*
X36666984Y-37248805D01*
X30701747Y-43214043D01*
X30693461Y-43221583D01*
X30686982Y-43225695D01*
X30681557Y-43231472D01*
X30640357Y-43275346D01*
X30637602Y-43278188D01*
X30617865Y-43297925D01*
X30615385Y-43301122D01*
X30607682Y-43310142D01*
X30577414Y-43342374D01*
X30573595Y-43349320D01*
X30573593Y-43349323D01*
X30567652Y-43360129D01*
X30556801Y-43376648D01*
X30544386Y-43392654D01*
X30541241Y-43399923D01*
X30541238Y-43399927D01*
X30526826Y-43433232D01*
X30521609Y-43443882D01*
X30500305Y-43482635D01*
X30498334Y-43490310D01*
X30498334Y-43490311D01*
X30495267Y-43502257D01*
X30488863Y-43520961D01*
X30480819Y-43539550D01*
X30479580Y-43547373D01*
X30479577Y-43547383D01*
X30473901Y-43583219D01*
X30471495Y-43594839D01*
X30460500Y-43637665D01*
X30460500Y-43657919D01*
X30458949Y-43677629D01*
X30455780Y-43697638D01*
X30456526Y-43705530D01*
X30459941Y-43741656D01*
X30460500Y-43753514D01*
X30460500Y-47088476D01*
X30440498Y-47156597D01*
X30428142Y-47172779D01*
X30354960Y-47254056D01*
X30259473Y-47419444D01*
X30200458Y-47601072D01*
X30199768Y-47607633D01*
X30199768Y-47607635D01*
X30182820Y-47768885D01*
X30180496Y-47791000D01*
X30181186Y-47797565D01*
X30197408Y-47951905D01*
X30200458Y-47980928D01*
X30259473Y-48162556D01*
X30354960Y-48327944D01*
X30359378Y-48332851D01*
X30359379Y-48332852D01*
X30481688Y-48468690D01*
X30512406Y-48532697D01*
X30503641Y-48603151D01*
X30481688Y-48637310D01*
X30372268Y-48758834D01*
X30354960Y-48778056D01*
X30259473Y-48943444D01*
X30200458Y-49125072D01*
X30180496Y-49315000D01*
X30181186Y-49321565D01*
X30187857Y-49385032D01*
X30200458Y-49504928D01*
X30259473Y-49686556D01*
X30354960Y-49851944D01*
X30359378Y-49856851D01*
X30359379Y-49856852D01*
X30481688Y-49992690D01*
X30512406Y-50056697D01*
X30503641Y-50127151D01*
X30481688Y-50161310D01*
X30444800Y-50202279D01*
X30354960Y-50302056D01*
X30259473Y-50467444D01*
X30200458Y-50649072D01*
X30180496Y-50839000D01*
X20452500Y-50839000D01*
X20452500Y-31525000D01*
X80073496Y-31525000D01*
X80093458Y-31714928D01*
X80152473Y-31896556D01*
X80247960Y-32061944D01*
X80321137Y-32143215D01*
X80351853Y-32207221D01*
X80353500Y-32227524D01*
X80353500Y-42135495D01*
X80352973Y-42146678D01*
X80351298Y-42154171D01*
X80351547Y-42162097D01*
X80351547Y-42162098D01*
X80353438Y-42222248D01*
X80353500Y-42226207D01*
X80353500Y-42254118D01*
X80353997Y-42258052D01*
X80353997Y-42258053D01*
X80354005Y-42258118D01*
X80354938Y-42269955D01*
X80356327Y-42314151D01*
X80361978Y-42333601D01*
X80365987Y-42352962D01*
X80368526Y-42373059D01*
X80371445Y-42380430D01*
X80371445Y-42380432D01*
X80384804Y-42414174D01*
X80388649Y-42425404D01*
X80398771Y-42460245D01*
X80400982Y-42467855D01*
X80405015Y-42474674D01*
X80405017Y-42474679D01*
X80411293Y-42485290D01*
X80419988Y-42503038D01*
X80427448Y-42521879D01*
X80432110Y-42528295D01*
X80432110Y-42528296D01*
X80453436Y-42557649D01*
X80459952Y-42567569D01*
X80482458Y-42605624D01*
X80496779Y-42619945D01*
X80509619Y-42634978D01*
X80521528Y-42651369D01*
X80555605Y-42679560D01*
X80564384Y-42687550D01*
X90580378Y-52703545D01*
X90614404Y-52765857D01*
X90616593Y-52779468D01*
X90619149Y-52803794D01*
X90632436Y-52930206D01*
X90633958Y-52944690D01*
X90692973Y-53126318D01*
X90788460Y-53291706D01*
X90792878Y-53296613D01*
X90792879Y-53296614D01*
X90878620Y-53391839D01*
X90916247Y-53433628D01*
X91015343Y-53505626D01*
X91058449Y-53536944D01*
X91070748Y-53545880D01*
X91076776Y-53548564D01*
X91076778Y-53548565D01*
X91201661Y-53604166D01*
X91245212Y-53623556D01*
X91334336Y-53642500D01*
X91425556Y-53661890D01*
X91425561Y-53661890D01*
X91432013Y-53663262D01*
X91622987Y-53663262D01*
X91629439Y-53661890D01*
X91629444Y-53661890D01*
X91720664Y-53642500D01*
X91809788Y-53623556D01*
X91853339Y-53604166D01*
X91978222Y-53548565D01*
X91978224Y-53548564D01*
X91984252Y-53545880D01*
X91996552Y-53536944D01*
X92039657Y-53505626D01*
X92138753Y-53433628D01*
X92266540Y-53291706D01*
X92267054Y-53290815D01*
X92321635Y-53248726D01*
X92392371Y-53242649D01*
X92455163Y-53275779D01*
X92460980Y-53281822D01*
X92569694Y-53402561D01*
X92724195Y-53514813D01*
X92730223Y-53517497D01*
X92730225Y-53517498D01*
X92892628Y-53589804D01*
X92898659Y-53592489D01*
X92992060Y-53612342D01*
X93079003Y-53630823D01*
X93079008Y-53630823D01*
X93085460Y-53632195D01*
X93276434Y-53632195D01*
X93282886Y-53630823D01*
X93282891Y-53630823D01*
X93369834Y-53612342D01*
X93463235Y-53592489D01*
X93469266Y-53589804D01*
X93631669Y-53517498D01*
X93631671Y-53517497D01*
X93637699Y-53514813D01*
X93792200Y-53402561D01*
X93901498Y-53281174D01*
X93961943Y-53243934D01*
X94032926Y-53245286D01*
X94055833Y-53255069D01*
X94065432Y-53260346D01*
X94081959Y-53271202D01*
X94091698Y-53278757D01*
X94091700Y-53278758D01*
X94097960Y-53283614D01*
X94138540Y-53301174D01*
X94149188Y-53306391D01*
X94187940Y-53327695D01*
X94195616Y-53329666D01*
X94195619Y-53329667D01*
X94207562Y-53332733D01*
X94226267Y-53339137D01*
X94244855Y-53347181D01*
X94252678Y-53348420D01*
X94252688Y-53348423D01*
X94273391Y-53351702D01*
X94337543Y-53382115D01*
X94347314Y-53391839D01*
X94352550Y-53397654D01*
X94366247Y-53412866D01*
X94371589Y-53416747D01*
X94371591Y-53416749D01*
X94506564Y-53514813D01*
X94520748Y-53525118D01*
X94526776Y-53527802D01*
X94526778Y-53527803D01*
X94672066Y-53592489D01*
X94695212Y-53602794D01*
X94780257Y-53620871D01*
X94875556Y-53641128D01*
X94875561Y-53641128D01*
X94882013Y-53642500D01*
X95072987Y-53642500D01*
X95079439Y-53641128D01*
X95079444Y-53641128D01*
X95174743Y-53620871D01*
X95259788Y-53602794D01*
X95282934Y-53592489D01*
X95428222Y-53527803D01*
X95428224Y-53527802D01*
X95434252Y-53525118D01*
X95588753Y-53412866D01*
X95593175Y-53407955D01*
X95712121Y-53275852D01*
X95712122Y-53275851D01*
X95716540Y-53270944D01*
X95812027Y-53105556D01*
X95871042Y-52923928D01*
X95874314Y-52892803D01*
X95890314Y-52740565D01*
X95891004Y-52734000D01*
X95871042Y-52544072D01*
X95812027Y-52362444D01*
X95716540Y-52197056D01*
X95588753Y-52055134D01*
X95434252Y-51942882D01*
X95428224Y-51940198D01*
X95428222Y-51940197D01*
X95265819Y-51867891D01*
X95265818Y-51867891D01*
X95259788Y-51865206D01*
X95166388Y-51845353D01*
X95079444Y-51826872D01*
X95079439Y-51826872D01*
X95072987Y-51825500D01*
X94882013Y-51825500D01*
X94875561Y-51826872D01*
X94875556Y-51826872D01*
X94788612Y-51845353D01*
X94695212Y-51865206D01*
X94689182Y-51867891D01*
X94689181Y-51867891D01*
X94604728Y-51905492D01*
X94534361Y-51914926D01*
X94470064Y-51884820D01*
X94464384Y-51879480D01*
X92948999Y-50364095D01*
X92914973Y-50301783D01*
X92920038Y-50230968D01*
X92962585Y-50174132D01*
X93029105Y-50149321D01*
X93038094Y-50149000D01*
X93364617Y-50149000D01*
X93381281Y-50150107D01*
X93402990Y-50153003D01*
X93416986Y-50153297D01*
X93458495Y-50149519D01*
X93469915Y-50149000D01*
X94664617Y-50149000D01*
X94681280Y-50150107D01*
X94702989Y-50153003D01*
X94716987Y-50153297D01*
X94758497Y-50149519D01*
X94769916Y-50149000D01*
X95104885Y-50149000D01*
X95120124Y-50144525D01*
X95121329Y-50143135D01*
X95123000Y-50135452D01*
X95123000Y-50114326D01*
X95115469Y-50088679D01*
X94456885Y-49430095D01*
X94422859Y-49367783D01*
X94424694Y-49342131D01*
X95091408Y-49342131D01*
X95091539Y-49343966D01*
X95095789Y-49350578D01*
X95110191Y-49364980D01*
X95120276Y-49370487D01*
X95123000Y-49363184D01*
X95123000Y-49359674D01*
X95631000Y-49359674D01*
X95634237Y-49370699D01*
X95641328Y-49367461D01*
X95654979Y-49353811D01*
X95662592Y-49339869D01*
X95662461Y-49338034D01*
X95658211Y-49331422D01*
X95643809Y-49317020D01*
X95633724Y-49311513D01*
X95631000Y-49318816D01*
X95631000Y-49359674D01*
X95123000Y-49359674D01*
X95123000Y-49322326D01*
X95119763Y-49311301D01*
X95112672Y-49314539D01*
X95099021Y-49328189D01*
X95091408Y-49342131D01*
X94424694Y-49342131D01*
X94427924Y-49296968D01*
X94456885Y-49251905D01*
X94727000Y-48981790D01*
X95004977Y-48703812D01*
X95012591Y-48689868D01*
X95012460Y-48688033D01*
X95008212Y-48681423D01*
X94634601Y-48307811D01*
X94611139Y-48295000D01*
X91337116Y-48295000D01*
X91321877Y-48299475D01*
X91320672Y-48300865D01*
X91319001Y-48308548D01*
X91319001Y-48429907D01*
X91298999Y-48498028D01*
X91245343Y-48544521D01*
X91175069Y-48554625D01*
X91110489Y-48525131D01*
X91103906Y-48519002D01*
X90644578Y-48059674D01*
X95631000Y-48059674D01*
X95634237Y-48070699D01*
X95641328Y-48067461D01*
X95654979Y-48053811D01*
X95662592Y-48039869D01*
X95662461Y-48038034D01*
X95658211Y-48031422D01*
X95643809Y-48017020D01*
X95633724Y-48011513D01*
X95631000Y-48018816D01*
X95631000Y-48059674D01*
X90644578Y-48059674D01*
X89514076Y-46929171D01*
X89321565Y-46736660D01*
X91314654Y-46736660D01*
X91318399Y-46774860D01*
X91319000Y-46787155D01*
X91319000Y-47768885D01*
X91323475Y-47784124D01*
X91324865Y-47785329D01*
X91332548Y-47787000D01*
X94603675Y-47787000D01*
X94629320Y-47779470D01*
X94727000Y-47681790D01*
X95004977Y-47403812D01*
X95012591Y-47389868D01*
X95012460Y-47388033D01*
X95008210Y-47381420D01*
X94456885Y-46830095D01*
X94422859Y-46767783D01*
X94424694Y-46742131D01*
X95091408Y-46742131D01*
X95091539Y-46743966D01*
X95095789Y-46750578D01*
X95110191Y-46764980D01*
X95120276Y-46770487D01*
X95123000Y-46763184D01*
X95123000Y-46759674D01*
X95631000Y-46759674D01*
X95634237Y-46770699D01*
X95641328Y-46767461D01*
X95654979Y-46753811D01*
X95662592Y-46739869D01*
X95662461Y-46738034D01*
X95658211Y-46731422D01*
X95643809Y-46717020D01*
X95633724Y-46711513D01*
X95631000Y-46718816D01*
X95631000Y-46759674D01*
X95123000Y-46759674D01*
X95123000Y-46722326D01*
X95119763Y-46711301D01*
X95112672Y-46714539D01*
X95099021Y-46728189D01*
X95091408Y-46742131D01*
X94424694Y-46742131D01*
X94427924Y-46696968D01*
X94456885Y-46651905D01*
X94727000Y-46381790D01*
X95110188Y-45998601D01*
X95123000Y-45975139D01*
X95123000Y-45951116D01*
X95118525Y-45935877D01*
X95117135Y-45934672D01*
X95109452Y-45933001D01*
X94782884Y-45933001D01*
X94767964Y-45932115D01*
X94739669Y-45928741D01*
X94725673Y-45928643D01*
X94690778Y-45932311D01*
X94677607Y-45933001D01*
X93482885Y-45933001D01*
X93467966Y-45932115D01*
X93439670Y-45928741D01*
X93425673Y-45928643D01*
X93390777Y-45932311D01*
X93377606Y-45933001D01*
X92182886Y-45933001D01*
X92167967Y-45932115D01*
X92139670Y-45928741D01*
X92125673Y-45928643D01*
X92090775Y-45932311D01*
X92077605Y-45933001D01*
X91782331Y-45933001D01*
X91775510Y-45933371D01*
X91724648Y-45938895D01*
X91709396Y-45942521D01*
X91588946Y-45987676D01*
X91573351Y-45996214D01*
X91471276Y-46072715D01*
X91458715Y-46085276D01*
X91382214Y-46187351D01*
X91373676Y-46202946D01*
X91328522Y-46323394D01*
X91324895Y-46338649D01*
X91319369Y-46389514D01*
X91319000Y-46396328D01*
X91319000Y-46681875D01*
X91318006Y-46697667D01*
X91314850Y-46722653D01*
X91314654Y-46736660D01*
X89321565Y-46736660D01*
X84578405Y-41993500D01*
X84544379Y-41931188D01*
X84541500Y-41904405D01*
X84541500Y-32227524D01*
X84561502Y-32159403D01*
X84573858Y-32143221D01*
X84647040Y-32061944D01*
X84742527Y-31896556D01*
X84801542Y-31714928D01*
X84821504Y-31525000D01*
X87566496Y-31525000D01*
X87586458Y-31714928D01*
X87645473Y-31896556D01*
X87740960Y-32061944D01*
X87745375Y-32066847D01*
X87745379Y-32066852D01*
X87779325Y-32104553D01*
X87868747Y-32203866D01*
X88023248Y-32316118D01*
X88029276Y-32318802D01*
X88029278Y-32318803D01*
X88161732Y-32377775D01*
X88199578Y-32403787D01*
X96058038Y-40262247D01*
X96065582Y-40270537D01*
X96069695Y-40277018D01*
X96075472Y-40282443D01*
X96119362Y-40323658D01*
X96122204Y-40326413D01*
X96141926Y-40346135D01*
X96145050Y-40348558D01*
X96145054Y-40348562D01*
X96145119Y-40348612D01*
X96154140Y-40356317D01*
X96186374Y-40386586D01*
X96193322Y-40390405D01*
X96193324Y-40390407D01*
X96204127Y-40396346D01*
X96220654Y-40407202D01*
X96230393Y-40414757D01*
X96230395Y-40414758D01*
X96236655Y-40419614D01*
X96277235Y-40437174D01*
X96287883Y-40442391D01*
X96326635Y-40463695D01*
X96334311Y-40465666D01*
X96334314Y-40465667D01*
X96346257Y-40468733D01*
X96364962Y-40475137D01*
X96383550Y-40483181D01*
X96391373Y-40484420D01*
X96391383Y-40484423D01*
X96427219Y-40490099D01*
X96438839Y-40492505D01*
X96473984Y-40501528D01*
X96481665Y-40503500D01*
X96501919Y-40503500D01*
X96521629Y-40505051D01*
X96541638Y-40508220D01*
X96549530Y-40507474D01*
X96585656Y-40504059D01*
X96597514Y-40503500D01*
X96764406Y-40503500D01*
X96832527Y-40523502D01*
X96853501Y-40540405D01*
X98020228Y-41707132D01*
X98054254Y-41769444D01*
X98057133Y-41796227D01*
X98057133Y-42767468D01*
X98037131Y-42835589D01*
X98024775Y-42851771D01*
X97951593Y-42933048D01*
X97948292Y-42938766D01*
X97869594Y-43075075D01*
X97856106Y-43098436D01*
X97797091Y-43280064D01*
X97796401Y-43286625D01*
X97796401Y-43286627D01*
X97793038Y-43318624D01*
X97777129Y-43469992D01*
X97777819Y-43476557D01*
X97793945Y-43629984D01*
X97797091Y-43659920D01*
X97856106Y-43841548D01*
X97951593Y-44006936D01*
X97956011Y-44011843D01*
X97956012Y-44011844D01*
X98074958Y-44143947D01*
X98079380Y-44148858D01*
X98233881Y-44261110D01*
X98239909Y-44263794D01*
X98239911Y-44263795D01*
X98345462Y-44310789D01*
X98408345Y-44338786D01*
X98501746Y-44358639D01*
X98588689Y-44377120D01*
X98588694Y-44377120D01*
X98595146Y-44378492D01*
X98786120Y-44378492D01*
X98792572Y-44377120D01*
X98792577Y-44377120D01*
X98833303Y-44368463D01*
X98904094Y-44373865D01*
X98960727Y-44416682D01*
X98985220Y-44483320D01*
X98985500Y-44491710D01*
X98985500Y-45807000D01*
X98965498Y-45875121D01*
X98911842Y-45921614D01*
X98859500Y-45933000D01*
X98682878Y-45933000D01*
X98667960Y-45932114D01*
X98639671Y-45928741D01*
X98625673Y-45928643D01*
X98590784Y-45932310D01*
X98577614Y-45933000D01*
X97382878Y-45933000D01*
X97367960Y-45932114D01*
X97339670Y-45928741D01*
X97325672Y-45928643D01*
X97290782Y-45932310D01*
X97277612Y-45933000D01*
X96082879Y-45933000D01*
X96067961Y-45932114D01*
X96039670Y-45928741D01*
X96025672Y-45928643D01*
X95990781Y-45932310D01*
X95977612Y-45933000D01*
X95649115Y-45933000D01*
X95633876Y-45937475D01*
X95632671Y-45938865D01*
X95631000Y-45946548D01*
X95631000Y-45967674D01*
X95638531Y-45993321D01*
X96297115Y-46651905D01*
X96331141Y-46714217D01*
X96326076Y-46785032D01*
X96297115Y-46830095D01*
X96027000Y-47100210D01*
X95749023Y-47378188D01*
X95741409Y-47392132D01*
X95741540Y-47393967D01*
X95745790Y-47400580D01*
X96297115Y-47951905D01*
X96331141Y-48014217D01*
X96326076Y-48085032D01*
X96297115Y-48130095D01*
X96027000Y-48400210D01*
X95749023Y-48678188D01*
X95741409Y-48692132D01*
X95741540Y-48693967D01*
X95745790Y-48700580D01*
X96297115Y-49251905D01*
X96331141Y-49314217D01*
X96326076Y-49385032D01*
X96297115Y-49430095D01*
X96027000Y-49700210D01*
X95643812Y-50083399D01*
X95631000Y-50106861D01*
X95631000Y-50130884D01*
X95635475Y-50146123D01*
X95636865Y-50147328D01*
X95644548Y-50148999D01*
X95964611Y-50148999D01*
X95981277Y-50150106D01*
X96002991Y-50153004D01*
X96016986Y-50153297D01*
X96058500Y-50149518D01*
X96069921Y-50148999D01*
X97264611Y-50148999D01*
X97281276Y-50150106D01*
X97302991Y-50153004D01*
X97316986Y-50153297D01*
X97358502Y-50149518D01*
X97369923Y-50148999D01*
X98564609Y-50148999D01*
X98581273Y-50150106D01*
X98602989Y-50153004D01*
X98616986Y-50153297D01*
X98658503Y-50149518D01*
X98669923Y-50148999D01*
X98859500Y-50148999D01*
X98927621Y-50169001D01*
X98974114Y-50222657D01*
X98985500Y-50274999D01*
X98985500Y-55250406D01*
X98965498Y-55318527D01*
X98948595Y-55339501D01*
X96784500Y-57503595D01*
X96722188Y-57537621D01*
X96695405Y-57540500D01*
X96639513Y-57540500D01*
X96633061Y-57541872D01*
X96633056Y-57541872D01*
X96546113Y-57560353D01*
X96452712Y-57580206D01*
X96446682Y-57582891D01*
X96446681Y-57582891D01*
X96284278Y-57655197D01*
X96284276Y-57655198D01*
X96278248Y-57657882D01*
X96272907Y-57661762D01*
X96272906Y-57661763D01*
X96226305Y-57695621D01*
X96123747Y-57770134D01*
X96119332Y-57775037D01*
X96114420Y-57779460D01*
X96113295Y-57778211D01*
X96059986Y-57811051D01*
X96026800Y-57815500D01*
X95411200Y-57815500D01*
X95343079Y-57795498D01*
X95323853Y-57779157D01*
X95323580Y-57779460D01*
X95318668Y-57775037D01*
X95314253Y-57770134D01*
X95211695Y-57695621D01*
X95165094Y-57661763D01*
X95165093Y-57661762D01*
X95159752Y-57657882D01*
X95153724Y-57655198D01*
X95153722Y-57655197D01*
X94991319Y-57582891D01*
X94991318Y-57582891D01*
X94985288Y-57580206D01*
X94891887Y-57560353D01*
X94804944Y-57541872D01*
X94804939Y-57541872D01*
X94798487Y-57540500D01*
X94607513Y-57540500D01*
X94601061Y-57541872D01*
X94601056Y-57541872D01*
X94514113Y-57560353D01*
X94420712Y-57580206D01*
X94414682Y-57582891D01*
X94414681Y-57582891D01*
X94252278Y-57655197D01*
X94252276Y-57655198D01*
X94246248Y-57657882D01*
X94240907Y-57661762D01*
X94240906Y-57661763D01*
X94194305Y-57695621D01*
X94091747Y-57770134D01*
X94087332Y-57775037D01*
X94082420Y-57779460D01*
X94081295Y-57778211D01*
X94027986Y-57811051D01*
X93994800Y-57815500D01*
X93760200Y-57815500D01*
X93692079Y-57795498D01*
X93672853Y-57779157D01*
X93672580Y-57779460D01*
X93667668Y-57775037D01*
X93663253Y-57770134D01*
X93560695Y-57695621D01*
X93514094Y-57661763D01*
X93514093Y-57661762D01*
X93508752Y-57657882D01*
X93502724Y-57655198D01*
X93502722Y-57655197D01*
X93340319Y-57582891D01*
X93340318Y-57582891D01*
X93334288Y-57580206D01*
X93240887Y-57560353D01*
X93153944Y-57541872D01*
X93153939Y-57541872D01*
X93147487Y-57540500D01*
X92956513Y-57540500D01*
X92950061Y-57541872D01*
X92950056Y-57541872D01*
X92863113Y-57560353D01*
X92769712Y-57580206D01*
X92763682Y-57582891D01*
X92763681Y-57582891D01*
X92601278Y-57655197D01*
X92601276Y-57655198D01*
X92595248Y-57657882D01*
X92589907Y-57661762D01*
X92589906Y-57661763D01*
X92543305Y-57695621D01*
X92440747Y-57770134D01*
X92436332Y-57775037D01*
X92431420Y-57779460D01*
X92430295Y-57778211D01*
X92376986Y-57811051D01*
X92343800Y-57815500D01*
X92109200Y-57815500D01*
X92041079Y-57795498D01*
X92021853Y-57779157D01*
X92021580Y-57779460D01*
X92016668Y-57775037D01*
X92012253Y-57770134D01*
X91909695Y-57695621D01*
X91863094Y-57661763D01*
X91863093Y-57661762D01*
X91857752Y-57657882D01*
X91851724Y-57655198D01*
X91851722Y-57655197D01*
X91689319Y-57582891D01*
X91689318Y-57582891D01*
X91683288Y-57580206D01*
X91589887Y-57560353D01*
X91502944Y-57541872D01*
X91502939Y-57541872D01*
X91496487Y-57540500D01*
X91305513Y-57540500D01*
X91299061Y-57541872D01*
X91299056Y-57541872D01*
X91212113Y-57560353D01*
X91118712Y-57580206D01*
X91112682Y-57582891D01*
X91112681Y-57582891D01*
X90950278Y-57655197D01*
X90950276Y-57655198D01*
X90944248Y-57657882D01*
X90938907Y-57661762D01*
X90938906Y-57661763D01*
X90892305Y-57695621D01*
X90789747Y-57770134D01*
X90661960Y-57912056D01*
X90566473Y-58077444D01*
X90507458Y-58259072D01*
X90487496Y-58449000D01*
X90507458Y-58638928D01*
X90566473Y-58820556D01*
X90569776Y-58826278D01*
X90569777Y-58826279D01*
X90603686Y-58885010D01*
X90661960Y-58985944D01*
X90666378Y-58990851D01*
X90666379Y-58990852D01*
X90687896Y-59014749D01*
X90789747Y-59127866D01*
X90944248Y-59240118D01*
X90950276Y-59242802D01*
X90950278Y-59242803D01*
X91112681Y-59315109D01*
X91118712Y-59317794D01*
X91212112Y-59337647D01*
X91299056Y-59356128D01*
X91299061Y-59356128D01*
X91305513Y-59357500D01*
X91496487Y-59357500D01*
X91502939Y-59356128D01*
X91502944Y-59356128D01*
X91589888Y-59337647D01*
X91683288Y-59317794D01*
X91689319Y-59315109D01*
X91851722Y-59242803D01*
X91851724Y-59242802D01*
X91857752Y-59240118D01*
X92012253Y-59127866D01*
X92016668Y-59122963D01*
X92021580Y-59118540D01*
X92022705Y-59119789D01*
X92076014Y-59086949D01*
X92109200Y-59082500D01*
X92343800Y-59082500D01*
X92411921Y-59102502D01*
X92431147Y-59118843D01*
X92431420Y-59118540D01*
X92436332Y-59122963D01*
X92440747Y-59127866D01*
X92595248Y-59240118D01*
X92601276Y-59242802D01*
X92601278Y-59242803D01*
X92763681Y-59315109D01*
X92769712Y-59317794D01*
X92863112Y-59337647D01*
X92950056Y-59356128D01*
X92950061Y-59356128D01*
X92956513Y-59357500D01*
X93147487Y-59357500D01*
X93153939Y-59356128D01*
X93153944Y-59356128D01*
X93240888Y-59337647D01*
X93334288Y-59317794D01*
X93340319Y-59315109D01*
X93502722Y-59242803D01*
X93502724Y-59242802D01*
X93508752Y-59240118D01*
X93663253Y-59127866D01*
X93667668Y-59122963D01*
X93672580Y-59118540D01*
X93673705Y-59119789D01*
X93727014Y-59086949D01*
X93760200Y-59082500D01*
X93994800Y-59082500D01*
X94062921Y-59102502D01*
X94082147Y-59118843D01*
X94082420Y-59118540D01*
X94087332Y-59122963D01*
X94091747Y-59127866D01*
X94246248Y-59240118D01*
X94252276Y-59242802D01*
X94252278Y-59242803D01*
X94414681Y-59315109D01*
X94420712Y-59317794D01*
X94514112Y-59337647D01*
X94601056Y-59356128D01*
X94601061Y-59356128D01*
X94607513Y-59357500D01*
X94798487Y-59357500D01*
X94804939Y-59356128D01*
X94804944Y-59356128D01*
X94891888Y-59337647D01*
X94985288Y-59317794D01*
X94991319Y-59315109D01*
X95153722Y-59242803D01*
X95153724Y-59242802D01*
X95159752Y-59240118D01*
X95314253Y-59127866D01*
X95318668Y-59122963D01*
X95323580Y-59118540D01*
X95324705Y-59119789D01*
X95378014Y-59086949D01*
X95411200Y-59082500D01*
X96026800Y-59082500D01*
X96094921Y-59102502D01*
X96114147Y-59118843D01*
X96114420Y-59118540D01*
X96119332Y-59122963D01*
X96123747Y-59127866D01*
X96278248Y-59240118D01*
X96284276Y-59242802D01*
X96284278Y-59242803D01*
X96446681Y-59315109D01*
X96452712Y-59317794D01*
X96546112Y-59337647D01*
X96633056Y-59356128D01*
X96633061Y-59356128D01*
X96639513Y-59357500D01*
X96830487Y-59357500D01*
X96836939Y-59356128D01*
X96836944Y-59356128D01*
X96923888Y-59337647D01*
X97017288Y-59317794D01*
X97023319Y-59315109D01*
X97185722Y-59242803D01*
X97185724Y-59242802D01*
X97191752Y-59240118D01*
X97346253Y-59127866D01*
X97448104Y-59014749D01*
X97469621Y-58990852D01*
X97469622Y-58990851D01*
X97474040Y-58985944D01*
X97532314Y-58885010D01*
X97566223Y-58826279D01*
X97566224Y-58826278D01*
X97569527Y-58820556D01*
X97628542Y-58638928D01*
X97645907Y-58473706D01*
X97672920Y-58408050D01*
X97682122Y-58397782D01*
X100011253Y-56068652D01*
X100019539Y-56061112D01*
X100026018Y-56057000D01*
X100072644Y-56007348D01*
X100075398Y-56004507D01*
X100095135Y-55984770D01*
X100097615Y-55981573D01*
X100105320Y-55972551D01*
X100123823Y-55952847D01*
X100135586Y-55940321D01*
X100139405Y-55933375D01*
X100139407Y-55933372D01*
X100145348Y-55922566D01*
X100156199Y-55906047D01*
X100163758Y-55896301D01*
X100168614Y-55890041D01*
X100171759Y-55882772D01*
X100171762Y-55882768D01*
X100186174Y-55849463D01*
X100191391Y-55838813D01*
X100212695Y-55800060D01*
X100217733Y-55780437D01*
X100224137Y-55761734D01*
X100229033Y-55750420D01*
X100229033Y-55750419D01*
X100232181Y-55743145D01*
X100233420Y-55735322D01*
X100233423Y-55735312D01*
X100239099Y-55699476D01*
X100241505Y-55687856D01*
X100250528Y-55652711D01*
X100250528Y-55652710D01*
X100252500Y-55645030D01*
X100252500Y-55624776D01*
X100254051Y-55605065D01*
X100255980Y-55592886D01*
X100257220Y-55585057D01*
X100253059Y-55541038D01*
X100252500Y-55529181D01*
X100252500Y-46236226D01*
X100272502Y-46168105D01*
X100326158Y-46121612D01*
X100396432Y-46111508D01*
X100404692Y-46112978D01*
X100441698Y-46120844D01*
X100570056Y-46148128D01*
X100570061Y-46148128D01*
X100576513Y-46149500D01*
X100767487Y-46149500D01*
X100773939Y-46148128D01*
X100773944Y-46148128D01*
X100902303Y-46120844D01*
X100973094Y-46126246D01*
X101029726Y-46169063D01*
X101054220Y-46235701D01*
X101054500Y-46244091D01*
X101054500Y-51396476D01*
X101034498Y-51464597D01*
X101022142Y-51480779D01*
X100948960Y-51562056D01*
X100853473Y-51727444D01*
X100794458Y-51909072D01*
X100793768Y-51915633D01*
X100793768Y-51915635D01*
X100779515Y-52051251D01*
X100774496Y-52099000D01*
X100794458Y-52288928D01*
X100853473Y-52470556D01*
X100948960Y-52635944D01*
X101076747Y-52777866D01*
X101231248Y-52890118D01*
X101237276Y-52892802D01*
X101237278Y-52892803D01*
X101353819Y-52944690D01*
X101405712Y-52967794D01*
X101499112Y-52987647D01*
X101586056Y-53006128D01*
X101586061Y-53006128D01*
X101592513Y-53007500D01*
X101783487Y-53007500D01*
X101789939Y-53006128D01*
X101789944Y-53006128D01*
X101876888Y-52987647D01*
X101970288Y-52967794D01*
X102022181Y-52944690D01*
X102138722Y-52892803D01*
X102138724Y-52892802D01*
X102144752Y-52890118D01*
X102299253Y-52777866D01*
X102427040Y-52635944D01*
X102522527Y-52470556D01*
X102581542Y-52288928D01*
X102601504Y-52099000D01*
X102596485Y-52051251D01*
X102582232Y-51915635D01*
X102582232Y-51915633D01*
X102581542Y-51909072D01*
X102522527Y-51727444D01*
X102427040Y-51562056D01*
X102353863Y-51480785D01*
X102323147Y-51416779D01*
X102321500Y-51396476D01*
X102321500Y-37690461D01*
X102322027Y-37679278D01*
X102323702Y-37671785D01*
X102321562Y-37603694D01*
X102321500Y-37599737D01*
X102321500Y-37571838D01*
X102320996Y-37567847D01*
X102320063Y-37556005D01*
X102318923Y-37519730D01*
X102318674Y-37511805D01*
X102316462Y-37504191D01*
X102316461Y-37504186D01*
X102313023Y-37492353D01*
X102309012Y-37472989D01*
X102307467Y-37460758D01*
X102306474Y-37452897D01*
X102303557Y-37445530D01*
X102303556Y-37445525D01*
X102290198Y-37411786D01*
X102286354Y-37400559D01*
X102276230Y-37365716D01*
X102274018Y-37358101D01*
X102263707Y-37340666D01*
X102255012Y-37322918D01*
X102247552Y-37304077D01*
X102221564Y-37268307D01*
X102215048Y-37258387D01*
X102196580Y-37227159D01*
X102196578Y-37227156D01*
X102192542Y-37220332D01*
X102178218Y-37206008D01*
X102165383Y-37190981D01*
X102153472Y-37174587D01*
X102142522Y-37165528D01*
X102119408Y-37146407D01*
X102110627Y-37138417D01*
X102048321Y-37076110D01*
X101985423Y-37013212D01*
X96104951Y-31132741D01*
X96097416Y-31124460D01*
X96093305Y-31117982D01*
X96043653Y-31071356D01*
X96040812Y-31068602D01*
X96021075Y-31048865D01*
X96017878Y-31046385D01*
X96008856Y-31038680D01*
X95976626Y-31008414D01*
X95969680Y-31004595D01*
X95969677Y-31004593D01*
X95958871Y-30998652D01*
X95942352Y-30987801D01*
X95936353Y-30983148D01*
X95926346Y-30975386D01*
X95919077Y-30972241D01*
X95919073Y-30972238D01*
X95885768Y-30957826D01*
X95875118Y-30952609D01*
X95836365Y-30931305D01*
X95816742Y-30926267D01*
X95798039Y-30919863D01*
X95786725Y-30914967D01*
X95786724Y-30914967D01*
X95779450Y-30911819D01*
X95771627Y-30910580D01*
X95771617Y-30910577D01*
X95735781Y-30904901D01*
X95724161Y-30902495D01*
X95689016Y-30893472D01*
X95689015Y-30893472D01*
X95681335Y-30891500D01*
X95661081Y-30891500D01*
X95641370Y-30889949D01*
X95629191Y-30888020D01*
X95621362Y-30886780D01*
X95613470Y-30887526D01*
X95577344Y-30890941D01*
X95565486Y-30891500D01*
X92236200Y-30891500D01*
X92168079Y-30871498D01*
X92148853Y-30855157D01*
X92148580Y-30855460D01*
X92143668Y-30851037D01*
X92139253Y-30846134D01*
X91984752Y-30733882D01*
X91978724Y-30731198D01*
X91978722Y-30731197D01*
X91816319Y-30658891D01*
X91816318Y-30658891D01*
X91810288Y-30656206D01*
X91716888Y-30636353D01*
X91629944Y-30617872D01*
X91629939Y-30617872D01*
X91623487Y-30616500D01*
X91432513Y-30616500D01*
X91426061Y-30617872D01*
X91426056Y-30617872D01*
X91339112Y-30636353D01*
X91245712Y-30656206D01*
X91239682Y-30658891D01*
X91239681Y-30658891D01*
X91077278Y-30731197D01*
X91077276Y-30731198D01*
X91071248Y-30733882D01*
X90916747Y-30846134D01*
X90859635Y-30909564D01*
X90799190Y-30946802D01*
X90728206Y-30945450D01*
X90672366Y-30909564D01*
X90615253Y-30846134D01*
X90460752Y-30733882D01*
X90454724Y-30731198D01*
X90454722Y-30731197D01*
X90292319Y-30658891D01*
X90292318Y-30658891D01*
X90286288Y-30656206D01*
X90192888Y-30636353D01*
X90105944Y-30617872D01*
X90105939Y-30617872D01*
X90099487Y-30616500D01*
X89908513Y-30616500D01*
X89902061Y-30617872D01*
X89902056Y-30617872D01*
X89815112Y-30636353D01*
X89721712Y-30656206D01*
X89715682Y-30658891D01*
X89715681Y-30658891D01*
X89553278Y-30731197D01*
X89553276Y-30731198D01*
X89547248Y-30733882D01*
X89392747Y-30846134D01*
X89335635Y-30909564D01*
X89275190Y-30946802D01*
X89204206Y-30945450D01*
X89148366Y-30909564D01*
X89091253Y-30846134D01*
X88936752Y-30733882D01*
X88930724Y-30731198D01*
X88930722Y-30731197D01*
X88768319Y-30658891D01*
X88768318Y-30658891D01*
X88762288Y-30656206D01*
X88668888Y-30636353D01*
X88581944Y-30617872D01*
X88581939Y-30617872D01*
X88575487Y-30616500D01*
X88384513Y-30616500D01*
X88378061Y-30617872D01*
X88378056Y-30617872D01*
X88291112Y-30636353D01*
X88197712Y-30656206D01*
X88191682Y-30658891D01*
X88191681Y-30658891D01*
X88029278Y-30731197D01*
X88029276Y-30731198D01*
X88023248Y-30733882D01*
X87868747Y-30846134D01*
X87864329Y-30851041D01*
X87864325Y-30851045D01*
X87755203Y-30972238D01*
X87740960Y-30988056D01*
X87645473Y-31153444D01*
X87586458Y-31335072D01*
X87566496Y-31525000D01*
X84821504Y-31525000D01*
X84801542Y-31335072D01*
X84742527Y-31153444D01*
X84647040Y-30988056D01*
X84632798Y-30972238D01*
X84523675Y-30851045D01*
X84523671Y-30851041D01*
X84519253Y-30846134D01*
X84364752Y-30733882D01*
X84358724Y-30731198D01*
X84358722Y-30731197D01*
X84196319Y-30658891D01*
X84196318Y-30658891D01*
X84190288Y-30656206D01*
X84096888Y-30636353D01*
X84009944Y-30617872D01*
X84009939Y-30617872D01*
X84003487Y-30616500D01*
X83812513Y-30616500D01*
X83806061Y-30617872D01*
X83806056Y-30617872D01*
X83719112Y-30636353D01*
X83625712Y-30656206D01*
X83619682Y-30658891D01*
X83619681Y-30658891D01*
X83457278Y-30731197D01*
X83457276Y-30731198D01*
X83451248Y-30733882D01*
X83296747Y-30846134D01*
X83293317Y-30849944D01*
X83229804Y-30880424D01*
X83159351Y-30871661D01*
X83125855Y-30850135D01*
X83122253Y-30846134D01*
X82967752Y-30733882D01*
X82961724Y-30731198D01*
X82961722Y-30731197D01*
X82799319Y-30658891D01*
X82799318Y-30658891D01*
X82793288Y-30656206D01*
X82699888Y-30636353D01*
X82612944Y-30617872D01*
X82612939Y-30617872D01*
X82606487Y-30616500D01*
X82415513Y-30616500D01*
X82409061Y-30617872D01*
X82409056Y-30617872D01*
X82322112Y-30636353D01*
X82228712Y-30656206D01*
X82222682Y-30658891D01*
X82222681Y-30658891D01*
X82060278Y-30731197D01*
X82060276Y-30731198D01*
X82054248Y-30733882D01*
X81899747Y-30846134D01*
X81842635Y-30909564D01*
X81782190Y-30946802D01*
X81711206Y-30945450D01*
X81655366Y-30909564D01*
X81598253Y-30846134D01*
X81443752Y-30733882D01*
X81437724Y-30731198D01*
X81437722Y-30731197D01*
X81275319Y-30658891D01*
X81275318Y-30658891D01*
X81269288Y-30656206D01*
X81175888Y-30636353D01*
X81088944Y-30617872D01*
X81088939Y-30617872D01*
X81082487Y-30616500D01*
X80891513Y-30616500D01*
X80885061Y-30617872D01*
X80885056Y-30617872D01*
X80798112Y-30636353D01*
X80704712Y-30656206D01*
X80698682Y-30658891D01*
X80698681Y-30658891D01*
X80536278Y-30731197D01*
X80536276Y-30731198D01*
X80530248Y-30733882D01*
X80375747Y-30846134D01*
X80371329Y-30851041D01*
X80371325Y-30851045D01*
X80262203Y-30972238D01*
X80247960Y-30988056D01*
X80152473Y-31153444D01*
X80093458Y-31335072D01*
X80073496Y-31525000D01*
X20452500Y-31525000D01*
X20452500Y-27846061D01*
X24680610Y-27846061D01*
X24697147Y-28178255D01*
X24697788Y-28181986D01*
X24697789Y-28181994D01*
X24712586Y-28268103D01*
X24753474Y-28506057D01*
X24848774Y-28824718D01*
X24850287Y-28828189D01*
X24850289Y-28828195D01*
X24932810Y-29017527D01*
X24981666Y-29129622D01*
X25150226Y-29416352D01*
X25152527Y-29419367D01*
X25349712Y-29677742D01*
X25349717Y-29677748D01*
X25352012Y-29680755D01*
X25584102Y-29919002D01*
X25843132Y-30127640D01*
X26125352Y-30303648D01*
X26426672Y-30444476D01*
X26742729Y-30548085D01*
X27068944Y-30612973D01*
X27072716Y-30613260D01*
X27072724Y-30613261D01*
X27396815Y-30637914D01*
X27396820Y-30637914D01*
X27400592Y-30638201D01*
X27732869Y-30623403D01*
X27737401Y-30622649D01*
X28057220Y-30569417D01*
X28057225Y-30569416D01*
X28060961Y-30568794D01*
X28380116Y-30475164D01*
X28383583Y-30473674D01*
X28383587Y-30473673D01*
X28682228Y-30345366D01*
X28682230Y-30345365D01*
X28685712Y-30343869D01*
X28973321Y-30176813D01*
X28976343Y-30174532D01*
X28976347Y-30174529D01*
X29235753Y-29978697D01*
X29235754Y-29978696D01*
X29238777Y-29976414D01*
X29478235Y-29745575D01*
X29688227Y-29487641D01*
X29865710Y-29206347D01*
X30008114Y-28905767D01*
X30113377Y-28590257D01*
X30179972Y-28264386D01*
X30206936Y-27932875D01*
X30207542Y-27875000D01*
X30206026Y-27849853D01*
X30205797Y-27846061D01*
X109680610Y-27846061D01*
X109697147Y-28178255D01*
X109697788Y-28181986D01*
X109697789Y-28181994D01*
X109712586Y-28268103D01*
X109753474Y-28506057D01*
X109848774Y-28824718D01*
X109850287Y-28828189D01*
X109850289Y-28828195D01*
X109932810Y-29017527D01*
X109981666Y-29129622D01*
X110150226Y-29416352D01*
X110152527Y-29419367D01*
X110349712Y-29677742D01*
X110349717Y-29677748D01*
X110352012Y-29680755D01*
X110584102Y-29919002D01*
X110843132Y-30127640D01*
X111125352Y-30303648D01*
X111426672Y-30444476D01*
X111742729Y-30548085D01*
X112068944Y-30612973D01*
X112072716Y-30613260D01*
X112072724Y-30613261D01*
X112396815Y-30637914D01*
X112396820Y-30637914D01*
X112400592Y-30638201D01*
X112732869Y-30623403D01*
X112737401Y-30622649D01*
X113057220Y-30569417D01*
X113057225Y-30569416D01*
X113060961Y-30568794D01*
X113380116Y-30475164D01*
X113383583Y-30473674D01*
X113383587Y-30473673D01*
X113682228Y-30345366D01*
X113682230Y-30345365D01*
X113685712Y-30343869D01*
X113973321Y-30176813D01*
X113976343Y-30174532D01*
X113976347Y-30174529D01*
X114235753Y-29978697D01*
X114235754Y-29978696D01*
X114238777Y-29976414D01*
X114478235Y-29745575D01*
X114688227Y-29487641D01*
X114865710Y-29206347D01*
X115008114Y-28905767D01*
X115113377Y-28590257D01*
X115179972Y-28264386D01*
X115206936Y-27932875D01*
X115207542Y-27875000D01*
X115206026Y-27849853D01*
X115187755Y-27546772D01*
X115187754Y-27546765D01*
X115187527Y-27542997D01*
X115127770Y-27215803D01*
X115099658Y-27125265D01*
X115030261Y-26901771D01*
X115029139Y-26898157D01*
X114893061Y-26594662D01*
X114746876Y-26351850D01*
X114723466Y-26312966D01*
X114723462Y-26312960D01*
X114721507Y-26309713D01*
X114719180Y-26306729D01*
X114719175Y-26306722D01*
X114519294Y-26050425D01*
X114519288Y-26050418D01*
X114516963Y-26047437D01*
X114282392Y-25811634D01*
X114021191Y-25605720D01*
X113737144Y-25432677D01*
X113616046Y-25377617D01*
X113437817Y-25296580D01*
X113437809Y-25296577D01*
X113434365Y-25295011D01*
X113117240Y-25194718D01*
X112894896Y-25152906D01*
X112794087Y-25133949D01*
X112794085Y-25133949D01*
X112790364Y-25133249D01*
X112458470Y-25111496D01*
X112454690Y-25111704D01*
X112454689Y-25111704D01*
X112356918Y-25117085D01*
X112126366Y-25129773D01*
X112122639Y-25130434D01*
X112122635Y-25130434D01*
X111863510Y-25176358D01*
X111798864Y-25187815D01*
X111795239Y-25188920D01*
X111795234Y-25188921D01*
X111587683Y-25252178D01*
X111480707Y-25284782D01*
X111477243Y-25286313D01*
X111477236Y-25286316D01*
X111290051Y-25369070D01*
X111176503Y-25419269D01*
X111173249Y-25421205D01*
X111173243Y-25421208D01*
X110893918Y-25587389D01*
X110890659Y-25589328D01*
X110627316Y-25792496D01*
X110390288Y-26025829D01*
X110183009Y-26285949D01*
X110008481Y-26569086D01*
X109869232Y-26871140D01*
X109868073Y-26874740D01*
X109868070Y-26874747D01*
X109859368Y-26901771D01*
X109767280Y-27187735D01*
X109766561Y-27191451D01*
X109766559Y-27191459D01*
X109704819Y-27510567D01*
X109704100Y-27514285D01*
X109703833Y-27518061D01*
X109703832Y-27518066D01*
X109702067Y-27542997D01*
X109681789Y-27829413D01*
X109680610Y-27846061D01*
X30205797Y-27846061D01*
X30187755Y-27546772D01*
X30187754Y-27546765D01*
X30187527Y-27542997D01*
X30127770Y-27215803D01*
X30099658Y-27125265D01*
X30030261Y-26901771D01*
X30029139Y-26898157D01*
X29893061Y-26594662D01*
X29746876Y-26351850D01*
X29723466Y-26312966D01*
X29723462Y-26312960D01*
X29721507Y-26309713D01*
X29719180Y-26306729D01*
X29719175Y-26306722D01*
X29519294Y-26050425D01*
X29519288Y-26050418D01*
X29516963Y-26047437D01*
X29282392Y-25811634D01*
X29021191Y-25605720D01*
X28737144Y-25432677D01*
X28616046Y-25377617D01*
X28437817Y-25296580D01*
X28437809Y-25296577D01*
X28434365Y-25295011D01*
X28117240Y-25194718D01*
X27894896Y-25152906D01*
X27794087Y-25133949D01*
X27794085Y-25133949D01*
X27790364Y-25133249D01*
X27458470Y-25111496D01*
X27454690Y-25111704D01*
X27454689Y-25111704D01*
X27356918Y-25117085D01*
X27126366Y-25129773D01*
X27122639Y-25130434D01*
X27122635Y-25130434D01*
X26863510Y-25176358D01*
X26798864Y-25187815D01*
X26795239Y-25188920D01*
X26795234Y-25188921D01*
X26587683Y-25252178D01*
X26480707Y-25284782D01*
X26477243Y-25286313D01*
X26477236Y-25286316D01*
X26290051Y-25369070D01*
X26176503Y-25419269D01*
X26173249Y-25421205D01*
X26173243Y-25421208D01*
X25893918Y-25587389D01*
X25890659Y-25589328D01*
X25627316Y-25792496D01*
X25390288Y-26025829D01*
X25183009Y-26285949D01*
X25008481Y-26569086D01*
X24869232Y-26871140D01*
X24868073Y-26874740D01*
X24868070Y-26874747D01*
X24859368Y-26901771D01*
X24767280Y-27187735D01*
X24766561Y-27191451D01*
X24766559Y-27191459D01*
X24704819Y-27510567D01*
X24704100Y-27514285D01*
X24703833Y-27518061D01*
X24703832Y-27518066D01*
X24702067Y-27542997D01*
X24681789Y-27829413D01*
X24680610Y-27846061D01*
X20452500Y-27846061D01*
X20452500Y-21009500D01*
X20472502Y-20941379D01*
X20526158Y-20894886D01*
X20578500Y-20883500D01*
X119309500Y-20883500D01*
X119377621Y-20903502D01*
G37*
G04 #@! TD.AperFunction*
M02*
