%TF.GenerationSoftware,KiCad,Pcbnew,6.0.7+dfsg-1build1*%
%TF.CreationDate,2023-04-07T12:24:45-07:00*%
%TF.ProjectId,Quad_Motor_Driver,51756164-5f4d-46f7-946f-725f44726976,rev?*%
%TF.SameCoordinates,Original*%
%TF.FileFunction,Drillmap*%
%TF.FilePolarity,Positive*%
%FSLAX45Y45*%
G04 Gerber Fmt 4.5, Leading zero omitted, Abs format (unit mm)*
G04 Created by KiCad (PCBNEW 6.0.7+dfsg-1build1) date 2023-04-07 12:24:45*
%MOMM*%
%LPD*%
G01*
G04 APERTURE LIST*
%ADD10C,0.100000*%
%ADD11C,0.200000*%
%ADD12C,0.030000*%
%ADD13C,0.040000*%
G04 APERTURE END LIST*
D10*
X1994400Y-12037500D02*
X1994400Y-2037500D01*
X2969400Y-2787500D02*
G75*
G03*
X2969400Y-2787500I-225000J0D01*
G01*
X11994400Y-2037500D02*
X11994400Y-12037500D01*
X11444400Y-11287500D02*
G75*
G03*
X11444400Y-11287500I-225000J0D01*
G01*
X11469400Y-2787500D02*
G75*
G03*
X11469400Y-2787500I-225000J0D01*
G01*
X2969400Y-11287500D02*
G75*
G03*
X2969400Y-11287500I-225000J0D01*
G01*
X11994400Y-12037500D02*
X1994400Y-12037500D01*
X1994400Y-2037500D02*
X11994400Y-2037500D01*
D11*
D12*
X4136100Y-9125900D02*
X4166100Y-9155900D01*
X4166100Y-9125900D02*
X4136100Y-9155900D01*
X4136100Y-9255900D02*
X4166100Y-9285900D01*
X4166100Y-9255900D02*
X4136100Y-9285900D01*
X4136100Y-9385900D02*
X4166100Y-9415900D01*
X4166100Y-9385900D02*
X4136100Y-9415900D01*
X4266100Y-9125900D02*
X4296100Y-9155900D01*
X4296100Y-9125900D02*
X4266100Y-9155900D01*
X4266100Y-9255900D02*
X4296100Y-9285900D01*
X4296100Y-9255900D02*
X4266100Y-9285900D01*
X4266100Y-9385900D02*
X4296100Y-9415900D01*
X4296100Y-9385900D02*
X4266100Y-9415900D01*
X4396100Y-9125900D02*
X4426100Y-9155900D01*
X4426100Y-9125900D02*
X4396100Y-9155900D01*
X4396100Y-9255900D02*
X4426100Y-9285900D01*
X4426100Y-9255900D02*
X4396100Y-9285900D01*
X4396100Y-9385900D02*
X4426100Y-9415900D01*
X4426100Y-9385900D02*
X4396100Y-9415900D01*
X4526100Y-9125900D02*
X4556100Y-9155900D01*
X4556100Y-9125900D02*
X4526100Y-9155900D01*
X4526100Y-9255900D02*
X4556100Y-9285900D01*
X4556100Y-9255900D02*
X4526100Y-9285900D01*
X4526100Y-9385900D02*
X4556100Y-9415900D01*
X4556100Y-9385900D02*
X4526100Y-9415900D01*
X4616000Y-4054200D02*
X4646000Y-4084200D01*
X4646000Y-4054200D02*
X4616000Y-4084200D01*
X4616000Y-4184200D02*
X4646000Y-4214200D01*
X4646000Y-4184200D02*
X4616000Y-4214200D01*
X4616000Y-4314200D02*
X4646000Y-4344200D01*
X4646000Y-4314200D02*
X4616000Y-4344200D01*
X4616000Y-4444200D02*
X4646000Y-4474200D01*
X4646000Y-4444200D02*
X4616000Y-4474200D01*
X4616000Y-4574200D02*
X4646000Y-4604200D01*
X4646000Y-4574200D02*
X4616000Y-4604200D01*
X4616000Y-4704200D02*
X4646000Y-4734200D01*
X4646000Y-4704200D02*
X4616000Y-4734200D01*
X4656100Y-9125900D02*
X4686100Y-9155900D01*
X4686100Y-9125900D02*
X4656100Y-9155900D01*
X4656100Y-9255900D02*
X4686100Y-9285900D01*
X4686100Y-9255900D02*
X4656100Y-9285900D01*
X4656100Y-9385900D02*
X4686100Y-9415900D01*
X4686100Y-9385900D02*
X4656100Y-9415900D01*
X4746000Y-4054200D02*
X4776000Y-4084200D01*
X4776000Y-4054200D02*
X4746000Y-4084200D01*
X4746000Y-4184200D02*
X4776000Y-4214200D01*
X4776000Y-4184200D02*
X4746000Y-4214200D01*
X4746000Y-4314200D02*
X4776000Y-4344200D01*
X4776000Y-4314200D02*
X4746000Y-4344200D01*
X4746000Y-4444200D02*
X4776000Y-4474200D01*
X4776000Y-4444200D02*
X4746000Y-4474200D01*
X4746000Y-4574200D02*
X4776000Y-4604200D01*
X4776000Y-4574200D02*
X4746000Y-4604200D01*
X4746000Y-4704200D02*
X4776000Y-4734200D01*
X4776000Y-4704200D02*
X4746000Y-4734200D01*
X4786100Y-9125900D02*
X4816100Y-9155900D01*
X4816100Y-9125900D02*
X4786100Y-9155900D01*
X4786100Y-9255900D02*
X4816100Y-9285900D01*
X4816100Y-9255900D02*
X4786100Y-9285900D01*
X4786100Y-9385900D02*
X4816100Y-9415900D01*
X4816100Y-9385900D02*
X4786100Y-9415900D01*
X4876000Y-4054200D02*
X4906000Y-4084200D01*
X4906000Y-4054200D02*
X4876000Y-4084200D01*
X4876000Y-4184200D02*
X4906000Y-4214200D01*
X4906000Y-4184200D02*
X4876000Y-4214200D01*
X4876000Y-4314200D02*
X4906000Y-4344200D01*
X4906000Y-4314200D02*
X4876000Y-4344200D01*
X4876000Y-4444200D02*
X4906000Y-4474200D01*
X4906000Y-4444200D02*
X4876000Y-4474200D01*
X4876000Y-4574200D02*
X4906000Y-4604200D01*
X4906000Y-4574200D02*
X4876000Y-4604200D01*
X4876000Y-4704200D02*
X4906000Y-4734200D01*
X4906000Y-4704200D02*
X4876000Y-4734200D01*
X9103300Y-9215800D02*
X9133300Y-9245800D01*
X9133300Y-9215800D02*
X9103300Y-9245800D01*
X9103300Y-9345800D02*
X9133300Y-9375800D01*
X9133300Y-9345800D02*
X9103300Y-9375800D01*
X9103300Y-9475800D02*
X9133300Y-9505800D01*
X9133300Y-9475800D02*
X9103300Y-9505800D01*
X9103300Y-9605800D02*
X9133300Y-9635800D01*
X9133300Y-9605800D02*
X9103300Y-9635800D01*
X9103300Y-9735800D02*
X9133300Y-9765800D01*
X9133300Y-9735800D02*
X9103300Y-9765800D01*
X9103300Y-9865800D02*
X9133300Y-9895800D01*
X9133300Y-9865800D02*
X9103300Y-9895800D01*
X9197700Y-4659100D02*
X9227700Y-4689100D01*
X9227700Y-4659100D02*
X9197700Y-4689100D01*
X9197700Y-4789100D02*
X9227700Y-4819100D01*
X9227700Y-4789100D02*
X9197700Y-4819100D01*
X9197700Y-4919100D02*
X9227700Y-4949100D01*
X9227700Y-4919100D02*
X9197700Y-4949100D01*
X9233300Y-9215800D02*
X9263300Y-9245800D01*
X9263300Y-9215800D02*
X9233300Y-9245800D01*
X9233300Y-9345800D02*
X9263300Y-9375800D01*
X9263300Y-9345800D02*
X9233300Y-9375800D01*
X9233300Y-9475800D02*
X9263300Y-9505800D01*
X9263300Y-9475800D02*
X9233300Y-9505800D01*
X9233300Y-9605800D02*
X9263300Y-9635800D01*
X9263300Y-9605800D02*
X9233300Y-9635800D01*
X9233300Y-9735800D02*
X9263300Y-9765800D01*
X9263300Y-9735800D02*
X9233300Y-9765800D01*
X9233300Y-9865800D02*
X9263300Y-9895800D01*
X9263300Y-9865800D02*
X9233300Y-9895800D01*
X9327700Y-4659100D02*
X9357700Y-4689100D01*
X9357700Y-4659100D02*
X9327700Y-4689100D01*
X9327700Y-4789100D02*
X9357700Y-4819100D01*
X9357700Y-4789100D02*
X9327700Y-4819100D01*
X9327700Y-4919100D02*
X9357700Y-4949100D01*
X9357700Y-4919100D02*
X9327700Y-4949100D01*
X9363300Y-9215800D02*
X9393300Y-9245800D01*
X9393300Y-9215800D02*
X9363300Y-9245800D01*
X9363300Y-9345800D02*
X9393300Y-9375800D01*
X9393300Y-9345800D02*
X9363300Y-9375800D01*
X9363300Y-9475800D02*
X9393300Y-9505800D01*
X9393300Y-9475800D02*
X9363300Y-9505800D01*
X9363300Y-9605800D02*
X9393300Y-9635800D01*
X9393300Y-9605800D02*
X9363300Y-9635800D01*
X9363300Y-9735800D02*
X9393300Y-9765800D01*
X9393300Y-9735800D02*
X9363300Y-9765800D01*
X9363300Y-9865800D02*
X9393300Y-9895800D01*
X9393300Y-9865800D02*
X9363300Y-9895800D01*
X9457700Y-4659100D02*
X9487700Y-4689100D01*
X9487700Y-4659100D02*
X9457700Y-4689100D01*
X9457700Y-4789100D02*
X9487700Y-4819100D01*
X9487700Y-4789100D02*
X9457700Y-4819100D01*
X9457700Y-4919100D02*
X9487700Y-4949100D01*
X9487700Y-4919100D02*
X9457700Y-4949100D01*
X9587700Y-4659100D02*
X9617700Y-4689100D01*
X9617700Y-4659100D02*
X9587700Y-4689100D01*
X9587700Y-4789100D02*
X9617700Y-4819100D01*
X9617700Y-4789100D02*
X9587700Y-4819100D01*
X9587700Y-4919100D02*
X9617700Y-4949100D01*
X9617700Y-4919100D02*
X9587700Y-4949100D01*
X9717700Y-4659100D02*
X9747700Y-4689100D01*
X9747700Y-4659100D02*
X9717700Y-4689100D01*
X9717700Y-4789100D02*
X9747700Y-4819100D01*
X9747700Y-4789100D02*
X9717700Y-4819100D01*
X9717700Y-4919100D02*
X9747700Y-4949100D01*
X9747700Y-4919100D02*
X9717700Y-4949100D01*
X9847700Y-4659100D02*
X9877700Y-4689100D01*
X9877700Y-4659100D02*
X9847700Y-4689100D01*
X9847700Y-4789100D02*
X9877700Y-4819100D01*
X9877700Y-4789100D02*
X9847700Y-4819100D01*
X9847700Y-4919100D02*
X9877700Y-4949100D01*
X9877700Y-4919100D02*
X9847700Y-4949100D01*
D13*
X3129400Y-4779100D02*
G75*
G03*
X3129400Y-4779100I-20000J0D01*
G01*
X3129400Y-4931500D02*
G75*
G03*
X3129400Y-4931500I-20000J0D01*
G01*
X3129400Y-5083900D02*
G75*
G03*
X3129400Y-5083900I-20000J0D01*
G01*
X3129400Y-5236300D02*
G75*
G03*
X3129400Y-5236300I-20000J0D01*
G01*
X3129400Y-5541100D02*
G75*
G03*
X3129400Y-5541100I-20000J0D01*
G01*
X3129400Y-5680800D02*
G75*
G03*
X3129400Y-5680800I-20000J0D01*
G01*
X3129400Y-5833200D02*
G75*
G03*
X3129400Y-5833200I-20000J0D01*
G01*
X3472300Y-4474300D02*
G75*
G03*
X3472300Y-4474300I-20000J0D01*
G01*
X3519500Y-3699800D02*
G75*
G03*
X3519500Y-3699800I-20000J0D01*
G01*
X3826900Y-10541500D02*
G75*
G03*
X3826900Y-10541500I-20000J0D01*
G01*
X3853300Y-4626700D02*
G75*
G03*
X3853300Y-4626700I-20000J0D01*
G01*
X3865000Y-8865100D02*
G75*
G03*
X3865000Y-8865100I-20000J0D01*
G01*
X3866000Y-4169500D02*
G75*
G03*
X3866000Y-4169500I-20000J0D01*
G01*
X3966600Y-9550900D02*
G75*
G03*
X3966600Y-9550900I-20000J0D01*
G01*
X3999450Y-8979400D02*
G75*
G03*
X3999450Y-8979400I-20000J0D01*
G01*
X4130945Y-4171255D02*
G75*
G03*
X4130945Y-4171255I-20000J0D01*
G01*
X4164737Y-9728001D02*
G75*
G03*
X4164737Y-9728001I-20000J0D01*
G01*
X4271400Y-10185900D02*
G75*
G03*
X4271400Y-10185900I-20000J0D01*
G01*
X4273155Y-9920955D02*
G75*
G03*
X4273155Y-9920955I-20000J0D01*
G01*
X4323899Y-4062837D02*
G75*
G03*
X4323899Y-4062837I-20000J0D01*
G01*
X4360300Y-8230100D02*
G75*
G03*
X4360300Y-8230100I-20000J0D01*
G01*
X4501000Y-3864700D02*
G75*
G03*
X4501000Y-3864700I-20000J0D01*
G01*
X4536050Y-8801600D02*
G75*
G03*
X4536050Y-8801600I-20000J0D01*
G01*
X4563500Y-8230100D02*
G75*
G03*
X4563500Y-8230100I-20000J0D01*
G01*
X4576200Y-10579600D02*
G75*
G03*
X4576200Y-10579600I-20000J0D01*
G01*
X4715705Y-8802631D02*
G75*
G03*
X4715705Y-8802631I-20000J0D01*
G01*
X4728600Y-8230100D02*
G75*
G03*
X4728600Y-8230100I-20000J0D01*
G01*
X4728600Y-10198600D02*
G75*
G03*
X4728600Y-10198600I-20000J0D01*
G01*
X4881000Y-10922500D02*
G75*
G03*
X4881000Y-10922500I-20000J0D01*
G01*
X4881050Y-8799524D02*
G75*
G03*
X4881050Y-8799524I-20000J0D01*
G01*
X4893700Y-8230100D02*
G75*
G03*
X4893700Y-8230100I-20000J0D01*
G01*
X4982600Y-8090400D02*
G75*
G03*
X4982600Y-8090400I-20000J0D01*
G01*
X5033400Y-10922500D02*
G75*
G03*
X5033400Y-10922500I-20000J0D01*
G01*
X5072500Y-3897550D02*
G75*
G03*
X5072500Y-3897550I-20000J0D01*
G01*
X5185800Y-10922500D02*
G75*
G03*
X5185800Y-10922500I-20000J0D01*
G01*
X5186800Y-3763100D02*
G75*
G03*
X5186800Y-3763100I-20000J0D01*
G01*
X5249270Y-4613805D02*
G75*
G03*
X5249270Y-4613805I-20000J0D01*
G01*
X5250300Y-4434150D02*
G75*
G03*
X5250300Y-4434150I-20000J0D01*
G01*
X5252376Y-4779150D02*
G75*
G03*
X5252376Y-4779150I-20000J0D01*
G01*
X5338200Y-10922500D02*
G75*
G03*
X5338200Y-10922500I-20000J0D01*
G01*
X5449900Y-10113300D02*
G75*
G03*
X5449900Y-10113300I-20000J0D01*
G01*
X5449900Y-10367300D02*
G75*
G03*
X5449900Y-10367300I-20000J0D01*
G01*
X5643000Y-10922500D02*
G75*
G03*
X5643000Y-10922500I-20000J0D01*
G01*
X5782700Y-10922500D02*
G75*
G03*
X5782700Y-10922500I-20000J0D01*
G01*
X5821800Y-4258400D02*
G75*
G03*
X5821800Y-4258400I-20000J0D01*
G01*
X5821800Y-4461600D02*
G75*
G03*
X5821800Y-4461600I-20000J0D01*
G01*
X5821800Y-4626700D02*
G75*
G03*
X5821800Y-4626700I-20000J0D01*
G01*
X5821800Y-4791800D02*
G75*
G03*
X5821800Y-4791800I-20000J0D01*
G01*
X5935100Y-10922500D02*
G75*
G03*
X5935100Y-10922500I-20000J0D01*
G01*
X5961500Y-4880700D02*
G75*
G03*
X5961500Y-4880700I-20000J0D01*
G01*
X7240600Y-8614700D02*
G75*
G03*
X7240600Y-8614700I-20000J0D01*
G01*
X7520000Y-4982500D02*
G75*
G03*
X7520000Y-4982500I-20000J0D01*
G01*
X7520000Y-5300000D02*
G75*
G03*
X7520000Y-5300000I-20000J0D01*
G01*
X8087800Y-9069300D02*
G75*
G03*
X8087800Y-9069300I-20000J0D01*
G01*
X8118700Y-3152500D02*
G75*
G03*
X8118700Y-3152500I-20000J0D01*
G01*
X8227500Y-9158200D02*
G75*
G03*
X8227500Y-9158200I-20000J0D01*
G01*
X8227500Y-9323300D02*
G75*
G03*
X8227500Y-9323300I-20000J0D01*
G01*
X8227500Y-9488400D02*
G75*
G03*
X8227500Y-9488400I-20000J0D01*
G01*
X8227500Y-9691600D02*
G75*
G03*
X8227500Y-9691600I-20000J0D01*
G01*
X8271100Y-3152500D02*
G75*
G03*
X8271100Y-3152500I-20000J0D01*
G01*
X8410800Y-3152500D02*
G75*
G03*
X8410800Y-3152500I-20000J0D01*
G01*
X8715600Y-3152500D02*
G75*
G03*
X8715600Y-3152500I-20000J0D01*
G01*
X8796924Y-9170850D02*
G75*
G03*
X8796924Y-9170850I-20000J0D01*
G01*
X8799000Y-9515850D02*
G75*
G03*
X8799000Y-9515850I-20000J0D01*
G01*
X8800031Y-9336195D02*
G75*
G03*
X8800031Y-9336195I-20000J0D01*
G01*
X8862500Y-10186900D02*
G75*
G03*
X8862500Y-10186900I-20000J0D01*
G01*
X8868000Y-3152500D02*
G75*
G03*
X8868000Y-3152500I-20000J0D01*
G01*
X8976800Y-10052450D02*
G75*
G03*
X8976800Y-10052450I-20000J0D01*
G01*
X9020400Y-3152500D02*
G75*
G03*
X9020400Y-3152500I-20000J0D01*
G01*
X9071200Y-5984600D02*
G75*
G03*
X9071200Y-5984600I-20000J0D01*
G01*
X9158300Y-10595900D02*
G75*
G03*
X9158300Y-10595900I-20000J0D01*
G01*
X9160100Y-5844900D02*
G75*
G03*
X9160100Y-5844900I-20000J0D01*
G01*
X9172750Y-5275476D02*
G75*
G03*
X9172750Y-5275476I-20000J0D01*
G01*
X9172800Y-3152500D02*
G75*
G03*
X9172800Y-3152500I-20000J0D01*
G01*
X9325200Y-3876400D02*
G75*
G03*
X9325200Y-3876400I-20000J0D01*
G01*
X9325200Y-5844900D02*
G75*
G03*
X9325200Y-5844900I-20000J0D01*
G01*
X9338095Y-5272370D02*
G75*
G03*
X9338095Y-5272370I-20000J0D01*
G01*
X9477600Y-3495400D02*
G75*
G03*
X9477600Y-3495400I-20000J0D01*
G01*
X9490300Y-5844900D02*
G75*
G03*
X9490300Y-5844900I-20000J0D01*
G01*
X9517750Y-5273400D02*
G75*
G03*
X9517750Y-5273400I-20000J0D01*
G01*
X9548300Y-10085300D02*
G75*
G03*
X9548300Y-10085300I-20000J0D01*
G01*
X9693500Y-5844900D02*
G75*
G03*
X9693500Y-5844900I-20000J0D01*
G01*
X9725401Y-9887163D02*
G75*
G03*
X9725401Y-9887163I-20000J0D01*
G01*
X9780645Y-4154045D02*
G75*
G03*
X9780645Y-4154045I-20000J0D01*
G01*
X9782400Y-3889100D02*
G75*
G03*
X9782400Y-3889100I-20000J0D01*
G01*
X9889063Y-4346999D02*
G75*
G03*
X9889063Y-4346999I-20000J0D01*
G01*
X9918355Y-9778745D02*
G75*
G03*
X9918355Y-9778745I-20000J0D01*
G01*
X10054350Y-5095600D02*
G75*
G03*
X10054350Y-5095600I-20000J0D01*
G01*
X10087200Y-4524100D02*
G75*
G03*
X10087200Y-4524100I-20000J0D01*
G01*
X10183300Y-9780500D02*
G75*
G03*
X10183300Y-9780500I-20000J0D01*
G01*
X10188800Y-5209900D02*
G75*
G03*
X10188800Y-5209900I-20000J0D01*
G01*
X10196000Y-9323300D02*
G75*
G03*
X10196000Y-9323300I-20000J0D01*
G01*
X10263200Y-3534700D02*
G75*
G03*
X10263200Y-3534700I-20000J0D01*
G01*
X10542600Y-10481600D02*
G75*
G03*
X10542600Y-10481600I-20000J0D01*
G01*
X10577000Y-9475700D02*
G75*
G03*
X10577000Y-9475700I-20000J0D01*
G01*
X10919900Y-8116800D02*
G75*
G03*
X10919900Y-8116800I-20000J0D01*
G01*
X10919900Y-8269200D02*
G75*
G03*
X10919900Y-8269200I-20000J0D01*
G01*
X10919900Y-8408900D02*
G75*
G03*
X10919900Y-8408900I-20000J0D01*
G01*
X10919900Y-8713700D02*
G75*
G03*
X10919900Y-8713700I-20000J0D01*
G01*
X10919900Y-8866100D02*
G75*
G03*
X10919900Y-8866100I-20000J0D01*
G01*
X10919900Y-9018500D02*
G75*
G03*
X10919900Y-9018500I-20000J0D01*
G01*
X10919900Y-9170900D02*
G75*
G03*
X10919900Y-9170900I-20000J0D01*
G01*
X10923600Y-9770400D02*
G75*
G03*
X10923600Y-9770400I-20000J0D01*
G01*
X11101400Y-9745000D02*
G75*
G03*
X11101400Y-9745000I-20000J0D01*
G01*
D10*
X8814400Y-11258500D02*
X8814400Y-11358500D01*
X8764400Y-11308500D02*
X8864400Y-11308500D01*
X8814400Y-11512500D02*
X8814400Y-11612500D01*
X8764400Y-11562500D02*
X8864400Y-11562500D01*
X9068400Y-11258500D02*
X9068400Y-11358500D01*
X9018400Y-11308500D02*
X9118400Y-11308500D01*
X9068400Y-11512500D02*
X9068400Y-11612500D01*
X9018400Y-11562500D02*
X9118400Y-11562500D01*
X9322400Y-11258500D02*
X9322400Y-11358500D01*
X9272400Y-11308500D02*
X9372400Y-11308500D01*
X9322400Y-11512500D02*
X9322400Y-11612500D01*
X9272400Y-11562500D02*
X9372400Y-11562500D01*
X9576400Y-11258500D02*
X9576400Y-11358500D01*
X9526400Y-11308500D02*
X9626400Y-11308500D01*
X9576400Y-11512500D02*
X9576400Y-11612500D01*
X9526400Y-11562500D02*
X9626400Y-11562500D01*
X10151368Y-11513668D02*
X10151368Y-11613668D01*
X10101368Y-11563668D02*
X10201368Y-11563668D01*
X10405368Y-11513668D02*
X10405368Y-11613668D01*
X10355368Y-11563668D02*
X10455368Y-11563668D01*
D11*
X2247019Y-12352976D02*
X2247019Y-12152976D01*
X2294638Y-12152976D01*
X2323210Y-12162500D01*
X2342257Y-12181548D01*
X2351781Y-12200595D01*
X2361305Y-12238690D01*
X2361305Y-12267262D01*
X2351781Y-12305357D01*
X2342257Y-12324405D01*
X2323210Y-12343452D01*
X2294638Y-12352976D01*
X2247019Y-12352976D01*
X2447019Y-12352976D02*
X2447019Y-12219643D01*
X2447019Y-12257738D02*
X2456543Y-12238690D01*
X2466067Y-12229167D01*
X2485114Y-12219643D01*
X2504162Y-12219643D01*
X2570829Y-12352976D02*
X2570829Y-12219643D01*
X2570829Y-12152976D02*
X2561305Y-12162500D01*
X2570829Y-12172024D01*
X2580352Y-12162500D01*
X2570829Y-12152976D01*
X2570829Y-12172024D01*
X2694638Y-12352976D02*
X2675590Y-12343452D01*
X2666067Y-12324405D01*
X2666067Y-12152976D01*
X2799400Y-12352976D02*
X2780352Y-12343452D01*
X2770829Y-12324405D01*
X2770829Y-12152976D01*
X3027971Y-12352976D02*
X3027971Y-12152976D01*
X3094638Y-12295833D01*
X3161305Y-12152976D01*
X3161305Y-12352976D01*
X3342257Y-12352976D02*
X3342257Y-12248214D01*
X3332733Y-12229167D01*
X3313686Y-12219643D01*
X3275590Y-12219643D01*
X3256543Y-12229167D01*
X3342257Y-12343452D02*
X3323209Y-12352976D01*
X3275590Y-12352976D01*
X3256543Y-12343452D01*
X3247019Y-12324405D01*
X3247019Y-12305357D01*
X3256543Y-12286309D01*
X3275590Y-12276786D01*
X3323209Y-12276786D01*
X3342257Y-12267262D01*
X3437495Y-12219643D02*
X3437495Y-12419643D01*
X3437495Y-12229167D02*
X3456543Y-12219643D01*
X3494638Y-12219643D01*
X3513686Y-12229167D01*
X3523209Y-12238690D01*
X3532733Y-12257738D01*
X3532733Y-12314881D01*
X3523209Y-12333928D01*
X3513686Y-12343452D01*
X3494638Y-12352976D01*
X3456543Y-12352976D01*
X3437495Y-12343452D01*
X3618448Y-12333928D02*
X3627971Y-12343452D01*
X3618448Y-12352976D01*
X3608924Y-12343452D01*
X3618448Y-12333928D01*
X3618448Y-12352976D01*
X3618448Y-12229167D02*
X3627971Y-12238690D01*
X3618448Y-12248214D01*
X3608924Y-12238690D01*
X3618448Y-12229167D01*
X3618448Y-12248214D01*
D12*
X1959400Y-12667500D02*
X1989400Y-12697500D01*
X1989400Y-12667500D02*
X1959400Y-12697500D01*
D11*
X2285114Y-12572976D02*
X2304162Y-12572976D01*
X2323210Y-12582500D01*
X2332733Y-12592024D01*
X2342257Y-12611071D01*
X2351781Y-12649167D01*
X2351781Y-12696786D01*
X2342257Y-12734881D01*
X2332733Y-12753928D01*
X2323210Y-12763452D01*
X2304162Y-12772976D01*
X2285114Y-12772976D01*
X2266067Y-12763452D01*
X2256543Y-12753928D01*
X2247019Y-12734881D01*
X2237495Y-12696786D01*
X2237495Y-12649167D01*
X2247019Y-12611071D01*
X2256543Y-12592024D01*
X2266067Y-12582500D01*
X2285114Y-12572976D01*
X2437495Y-12753928D02*
X2447019Y-12763452D01*
X2437495Y-12772976D01*
X2427971Y-12763452D01*
X2437495Y-12753928D01*
X2437495Y-12772976D01*
X2513686Y-12572976D02*
X2637495Y-12572976D01*
X2570829Y-12649167D01*
X2599400Y-12649167D01*
X2618448Y-12658690D01*
X2627971Y-12668214D01*
X2637495Y-12687262D01*
X2637495Y-12734881D01*
X2627971Y-12753928D01*
X2618448Y-12763452D01*
X2599400Y-12772976D01*
X2542257Y-12772976D01*
X2523210Y-12763452D01*
X2513686Y-12753928D01*
X2761305Y-12572976D02*
X2780352Y-12572976D01*
X2799400Y-12582500D01*
X2808924Y-12592024D01*
X2818448Y-12611071D01*
X2827971Y-12649167D01*
X2827971Y-12696786D01*
X2818448Y-12734881D01*
X2808924Y-12753928D01*
X2799400Y-12763452D01*
X2780352Y-12772976D01*
X2761305Y-12772976D01*
X2742257Y-12763452D01*
X2732733Y-12753928D01*
X2723210Y-12734881D01*
X2713686Y-12696786D01*
X2713686Y-12649167D01*
X2723210Y-12611071D01*
X2732733Y-12592024D01*
X2742257Y-12582500D01*
X2761305Y-12572976D01*
X2951781Y-12572976D02*
X2970828Y-12572976D01*
X2989876Y-12582500D01*
X2999400Y-12592024D01*
X3008924Y-12611071D01*
X3018448Y-12649167D01*
X3018448Y-12696786D01*
X3008924Y-12734881D01*
X2999400Y-12753928D01*
X2989876Y-12763452D01*
X2970828Y-12772976D01*
X2951781Y-12772976D01*
X2932733Y-12763452D01*
X2923209Y-12753928D01*
X2913686Y-12734881D01*
X2904162Y-12696786D01*
X2904162Y-12649167D01*
X2913686Y-12611071D01*
X2923209Y-12592024D01*
X2932733Y-12582500D01*
X2951781Y-12572976D01*
X3104162Y-12772976D02*
X3104162Y-12639643D01*
X3104162Y-12658690D02*
X3113686Y-12649167D01*
X3132733Y-12639643D01*
X3161305Y-12639643D01*
X3180352Y-12649167D01*
X3189876Y-12668214D01*
X3189876Y-12772976D01*
X3189876Y-12668214D02*
X3199400Y-12649167D01*
X3218448Y-12639643D01*
X3247019Y-12639643D01*
X3266067Y-12649167D01*
X3275590Y-12668214D01*
X3275590Y-12772976D01*
X3370828Y-12772976D02*
X3370828Y-12639643D01*
X3370828Y-12658690D02*
X3380352Y-12649167D01*
X3399400Y-12639643D01*
X3427971Y-12639643D01*
X3447019Y-12649167D01*
X3456543Y-12668214D01*
X3456543Y-12772976D01*
X3456543Y-12668214D02*
X3466067Y-12649167D01*
X3485114Y-12639643D01*
X3513686Y-12639643D01*
X3532733Y-12649167D01*
X3542257Y-12668214D01*
X3542257Y-12772976D01*
X3932733Y-12563452D02*
X3761305Y-12820595D01*
X4189876Y-12572976D02*
X4208924Y-12572976D01*
X4227971Y-12582500D01*
X4237495Y-12592024D01*
X4247019Y-12611071D01*
X4256543Y-12649167D01*
X4256543Y-12696786D01*
X4247019Y-12734881D01*
X4237495Y-12753928D01*
X4227971Y-12763452D01*
X4208924Y-12772976D01*
X4189876Y-12772976D01*
X4170828Y-12763452D01*
X4161305Y-12753928D01*
X4151781Y-12734881D01*
X4142257Y-12696786D01*
X4142257Y-12649167D01*
X4151781Y-12611071D01*
X4161305Y-12592024D01*
X4170828Y-12582500D01*
X4189876Y-12572976D01*
X4342257Y-12753928D02*
X4351781Y-12763452D01*
X4342257Y-12772976D01*
X4332733Y-12763452D01*
X4342257Y-12753928D01*
X4342257Y-12772976D01*
X4475590Y-12572976D02*
X4494638Y-12572976D01*
X4513686Y-12582500D01*
X4523210Y-12592024D01*
X4532733Y-12611071D01*
X4542257Y-12649167D01*
X4542257Y-12696786D01*
X4532733Y-12734881D01*
X4523210Y-12753928D01*
X4513686Y-12763452D01*
X4494638Y-12772976D01*
X4475590Y-12772976D01*
X4456543Y-12763452D01*
X4447019Y-12753928D01*
X4437495Y-12734881D01*
X4427971Y-12696786D01*
X4427971Y-12649167D01*
X4437495Y-12611071D01*
X4447019Y-12592024D01*
X4456543Y-12582500D01*
X4475590Y-12572976D01*
X4732733Y-12772976D02*
X4618448Y-12772976D01*
X4675590Y-12772976D02*
X4675590Y-12572976D01*
X4656543Y-12601548D01*
X4637495Y-12620595D01*
X4618448Y-12630119D01*
X4923210Y-12772976D02*
X4808924Y-12772976D01*
X4866067Y-12772976D02*
X4866067Y-12572976D01*
X4847019Y-12601548D01*
X4827971Y-12620595D01*
X4808924Y-12630119D01*
X5037495Y-12658690D02*
X5018448Y-12649167D01*
X5008924Y-12639643D01*
X4999400Y-12620595D01*
X4999400Y-12611071D01*
X5008924Y-12592024D01*
X5018448Y-12582500D01*
X5037495Y-12572976D01*
X5075590Y-12572976D01*
X5094638Y-12582500D01*
X5104162Y-12592024D01*
X5113686Y-12611071D01*
X5113686Y-12620595D01*
X5104162Y-12639643D01*
X5094638Y-12649167D01*
X5075590Y-12658690D01*
X5037495Y-12658690D01*
X5018448Y-12668214D01*
X5008924Y-12677738D01*
X4999400Y-12696786D01*
X4999400Y-12734881D01*
X5008924Y-12753928D01*
X5018448Y-12763452D01*
X5037495Y-12772976D01*
X5075590Y-12772976D01*
X5094638Y-12763452D01*
X5104162Y-12753928D01*
X5113686Y-12734881D01*
X5113686Y-12696786D01*
X5104162Y-12677738D01*
X5094638Y-12668214D01*
X5075590Y-12658690D01*
X5189876Y-12572976D02*
X5189876Y-12611071D01*
X5266067Y-12572976D02*
X5266067Y-12611071D01*
X5561305Y-12849167D02*
X5551781Y-12839643D01*
X5532733Y-12811071D01*
X5523210Y-12792024D01*
X5513686Y-12763452D01*
X5504162Y-12715833D01*
X5504162Y-12677738D01*
X5513686Y-12630119D01*
X5523210Y-12601548D01*
X5532733Y-12582500D01*
X5551781Y-12553928D01*
X5561305Y-12544405D01*
X5618448Y-12572976D02*
X5751781Y-12572976D01*
X5666067Y-12772976D01*
X5818448Y-12592024D02*
X5827971Y-12582500D01*
X5847019Y-12572976D01*
X5894638Y-12572976D01*
X5913686Y-12582500D01*
X5923209Y-12592024D01*
X5932733Y-12611071D01*
X5932733Y-12630119D01*
X5923209Y-12658690D01*
X5808924Y-12772976D01*
X5932733Y-12772976D01*
X6170828Y-12772976D02*
X6170828Y-12572976D01*
X6256543Y-12772976D02*
X6256543Y-12668214D01*
X6247019Y-12649167D01*
X6227971Y-12639643D01*
X6199400Y-12639643D01*
X6180352Y-12649167D01*
X6170828Y-12658690D01*
X6380352Y-12772976D02*
X6361305Y-12763452D01*
X6351781Y-12753928D01*
X6342257Y-12734881D01*
X6342257Y-12677738D01*
X6351781Y-12658690D01*
X6361305Y-12649167D01*
X6380352Y-12639643D01*
X6408924Y-12639643D01*
X6427971Y-12649167D01*
X6437495Y-12658690D01*
X6447019Y-12677738D01*
X6447019Y-12734881D01*
X6437495Y-12753928D01*
X6427971Y-12763452D01*
X6408924Y-12772976D01*
X6380352Y-12772976D01*
X6561305Y-12772976D02*
X6542257Y-12763452D01*
X6532733Y-12744405D01*
X6532733Y-12572976D01*
X6713686Y-12763452D02*
X6694638Y-12772976D01*
X6656543Y-12772976D01*
X6637495Y-12763452D01*
X6627971Y-12744405D01*
X6627971Y-12668214D01*
X6637495Y-12649167D01*
X6656543Y-12639643D01*
X6694638Y-12639643D01*
X6713686Y-12649167D01*
X6723209Y-12668214D01*
X6723209Y-12687262D01*
X6627971Y-12706309D01*
X6799400Y-12763452D02*
X6818448Y-12772976D01*
X6856543Y-12772976D01*
X6875590Y-12763452D01*
X6885114Y-12744405D01*
X6885114Y-12734881D01*
X6875590Y-12715833D01*
X6856543Y-12706309D01*
X6827971Y-12706309D01*
X6808924Y-12696786D01*
X6799400Y-12677738D01*
X6799400Y-12668214D01*
X6808924Y-12649167D01*
X6827971Y-12639643D01*
X6856543Y-12639643D01*
X6875590Y-12649167D01*
X6951781Y-12849167D02*
X6961305Y-12839643D01*
X6980352Y-12811071D01*
X6989876Y-12792024D01*
X6999400Y-12763452D01*
X7008924Y-12715833D01*
X7008924Y-12677738D01*
X6999400Y-12630119D01*
X6989876Y-12601548D01*
X6980352Y-12582500D01*
X6961305Y-12553928D01*
X6951781Y-12544405D01*
D13*
X1989400Y-12946500D02*
G75*
G03*
X1989400Y-12946500I-20000J0D01*
G01*
D11*
X2285114Y-12836976D02*
X2304162Y-12836976D01*
X2323210Y-12846500D01*
X2332733Y-12856024D01*
X2342257Y-12875071D01*
X2351781Y-12913167D01*
X2351781Y-12960786D01*
X2342257Y-12998881D01*
X2332733Y-13017928D01*
X2323210Y-13027452D01*
X2304162Y-13036976D01*
X2285114Y-13036976D01*
X2266067Y-13027452D01*
X2256543Y-13017928D01*
X2247019Y-12998881D01*
X2237495Y-12960786D01*
X2237495Y-12913167D01*
X2247019Y-12875071D01*
X2256543Y-12856024D01*
X2266067Y-12846500D01*
X2285114Y-12836976D01*
X2437495Y-13017928D02*
X2447019Y-13027452D01*
X2437495Y-13036976D01*
X2427971Y-13027452D01*
X2437495Y-13017928D01*
X2437495Y-13036976D01*
X2618448Y-12903643D02*
X2618448Y-13036976D01*
X2570829Y-12827452D02*
X2523210Y-12970309D01*
X2647019Y-12970309D01*
X2761305Y-12836976D02*
X2780352Y-12836976D01*
X2799400Y-12846500D01*
X2808924Y-12856024D01*
X2818448Y-12875071D01*
X2827971Y-12913167D01*
X2827971Y-12960786D01*
X2818448Y-12998881D01*
X2808924Y-13017928D01*
X2799400Y-13027452D01*
X2780352Y-13036976D01*
X2761305Y-13036976D01*
X2742257Y-13027452D01*
X2732733Y-13017928D01*
X2723210Y-12998881D01*
X2713686Y-12960786D01*
X2713686Y-12913167D01*
X2723210Y-12875071D01*
X2732733Y-12856024D01*
X2742257Y-12846500D01*
X2761305Y-12836976D01*
X2951781Y-12836976D02*
X2970828Y-12836976D01*
X2989876Y-12846500D01*
X2999400Y-12856024D01*
X3008924Y-12875071D01*
X3018448Y-12913167D01*
X3018448Y-12960786D01*
X3008924Y-12998881D01*
X2999400Y-13017928D01*
X2989876Y-13027452D01*
X2970828Y-13036976D01*
X2951781Y-13036976D01*
X2932733Y-13027452D01*
X2923209Y-13017928D01*
X2913686Y-12998881D01*
X2904162Y-12960786D01*
X2904162Y-12913167D01*
X2913686Y-12875071D01*
X2923209Y-12856024D01*
X2932733Y-12846500D01*
X2951781Y-12836976D01*
X3104162Y-13036976D02*
X3104162Y-12903643D01*
X3104162Y-12922690D02*
X3113686Y-12913167D01*
X3132733Y-12903643D01*
X3161305Y-12903643D01*
X3180352Y-12913167D01*
X3189876Y-12932214D01*
X3189876Y-13036976D01*
X3189876Y-12932214D02*
X3199400Y-12913167D01*
X3218448Y-12903643D01*
X3247019Y-12903643D01*
X3266067Y-12913167D01*
X3275590Y-12932214D01*
X3275590Y-13036976D01*
X3370828Y-13036976D02*
X3370828Y-12903643D01*
X3370828Y-12922690D02*
X3380352Y-12913167D01*
X3399400Y-12903643D01*
X3427971Y-12903643D01*
X3447019Y-12913167D01*
X3456543Y-12932214D01*
X3456543Y-13036976D01*
X3456543Y-12932214D02*
X3466067Y-12913167D01*
X3485114Y-12903643D01*
X3513686Y-12903643D01*
X3532733Y-12913167D01*
X3542257Y-12932214D01*
X3542257Y-13036976D01*
X3932733Y-12827452D02*
X3761305Y-13084595D01*
X4189876Y-12836976D02*
X4208924Y-12836976D01*
X4227971Y-12846500D01*
X4237495Y-12856024D01*
X4247019Y-12875071D01*
X4256543Y-12913167D01*
X4256543Y-12960786D01*
X4247019Y-12998881D01*
X4237495Y-13017928D01*
X4227971Y-13027452D01*
X4208924Y-13036976D01*
X4189876Y-13036976D01*
X4170828Y-13027452D01*
X4161305Y-13017928D01*
X4151781Y-12998881D01*
X4142257Y-12960786D01*
X4142257Y-12913167D01*
X4151781Y-12875071D01*
X4161305Y-12856024D01*
X4170828Y-12846500D01*
X4189876Y-12836976D01*
X4342257Y-13017928D02*
X4351781Y-13027452D01*
X4342257Y-13036976D01*
X4332733Y-13027452D01*
X4342257Y-13017928D01*
X4342257Y-13036976D01*
X4475590Y-12836976D02*
X4494638Y-12836976D01*
X4513686Y-12846500D01*
X4523210Y-12856024D01*
X4532733Y-12875071D01*
X4542257Y-12913167D01*
X4542257Y-12960786D01*
X4532733Y-12998881D01*
X4523210Y-13017928D01*
X4513686Y-13027452D01*
X4494638Y-13036976D01*
X4475590Y-13036976D01*
X4456543Y-13027452D01*
X4447019Y-13017928D01*
X4437495Y-12998881D01*
X4427971Y-12960786D01*
X4427971Y-12913167D01*
X4437495Y-12875071D01*
X4447019Y-12856024D01*
X4456543Y-12846500D01*
X4475590Y-12836976D01*
X4732733Y-13036976D02*
X4618448Y-13036976D01*
X4675590Y-13036976D02*
X4675590Y-12836976D01*
X4656543Y-12865548D01*
X4637495Y-12884595D01*
X4618448Y-12894119D01*
X4913686Y-12836976D02*
X4818448Y-12836976D01*
X4808924Y-12932214D01*
X4818448Y-12922690D01*
X4837495Y-12913167D01*
X4885114Y-12913167D01*
X4904162Y-12922690D01*
X4913686Y-12932214D01*
X4923210Y-12951262D01*
X4923210Y-12998881D01*
X4913686Y-13017928D01*
X4904162Y-13027452D01*
X4885114Y-13036976D01*
X4837495Y-13036976D01*
X4818448Y-13027452D01*
X4808924Y-13017928D01*
X4989876Y-12836976D02*
X5123210Y-12836976D01*
X5037495Y-13036976D01*
X5189876Y-12836976D02*
X5189876Y-12875071D01*
X5266067Y-12836976D02*
X5266067Y-12875071D01*
X5561305Y-13113167D02*
X5551781Y-13103643D01*
X5532733Y-13075071D01*
X5523210Y-13056024D01*
X5513686Y-13027452D01*
X5504162Y-12979833D01*
X5504162Y-12941738D01*
X5513686Y-12894119D01*
X5523210Y-12865548D01*
X5532733Y-12846500D01*
X5551781Y-12817928D01*
X5561305Y-12808405D01*
X5742257Y-13036976D02*
X5627971Y-13036976D01*
X5685114Y-13036976D02*
X5685114Y-12836976D01*
X5666067Y-12865548D01*
X5647019Y-12884595D01*
X5627971Y-12894119D01*
X5866067Y-12836976D02*
X5885114Y-12836976D01*
X5904162Y-12846500D01*
X5913686Y-12856024D01*
X5923209Y-12875071D01*
X5932733Y-12913167D01*
X5932733Y-12960786D01*
X5923209Y-12998881D01*
X5913686Y-13017928D01*
X5904162Y-13027452D01*
X5885114Y-13036976D01*
X5866067Y-13036976D01*
X5847019Y-13027452D01*
X5837495Y-13017928D01*
X5827971Y-12998881D01*
X5818448Y-12960786D01*
X5818448Y-12913167D01*
X5827971Y-12875071D01*
X5837495Y-12856024D01*
X5847019Y-12846500D01*
X5866067Y-12836976D01*
X6104162Y-12903643D02*
X6104162Y-13036976D01*
X6056543Y-12827452D02*
X6008924Y-12970309D01*
X6132733Y-12970309D01*
X6361305Y-13036976D02*
X6361305Y-12836976D01*
X6447019Y-13036976D02*
X6447019Y-12932214D01*
X6437495Y-12913167D01*
X6418448Y-12903643D01*
X6389876Y-12903643D01*
X6370828Y-12913167D01*
X6361305Y-12922690D01*
X6570828Y-13036976D02*
X6551781Y-13027452D01*
X6542257Y-13017928D01*
X6532733Y-12998881D01*
X6532733Y-12941738D01*
X6542257Y-12922690D01*
X6551781Y-12913167D01*
X6570828Y-12903643D01*
X6599400Y-12903643D01*
X6618448Y-12913167D01*
X6627971Y-12922690D01*
X6637495Y-12941738D01*
X6637495Y-12998881D01*
X6627971Y-13017928D01*
X6618448Y-13027452D01*
X6599400Y-13036976D01*
X6570828Y-13036976D01*
X6751781Y-13036976D02*
X6732733Y-13027452D01*
X6723209Y-13008405D01*
X6723209Y-12836976D01*
X6904162Y-13027452D02*
X6885114Y-13036976D01*
X6847019Y-13036976D01*
X6827971Y-13027452D01*
X6818448Y-13008405D01*
X6818448Y-12932214D01*
X6827971Y-12913167D01*
X6847019Y-12903643D01*
X6885114Y-12903643D01*
X6904162Y-12913167D01*
X6913686Y-12932214D01*
X6913686Y-12951262D01*
X6818448Y-12970309D01*
X6989876Y-13027452D02*
X7008924Y-13036976D01*
X7047019Y-13036976D01*
X7066067Y-13027452D01*
X7075590Y-13008405D01*
X7075590Y-12998881D01*
X7066067Y-12979833D01*
X7047019Y-12970309D01*
X7018448Y-12970309D01*
X6999400Y-12960786D01*
X6989876Y-12941738D01*
X6989876Y-12932214D01*
X6999400Y-12913167D01*
X7018448Y-12903643D01*
X7047019Y-12903643D01*
X7066067Y-12913167D01*
X7142257Y-13113167D02*
X7151781Y-13103643D01*
X7170828Y-13075071D01*
X7180352Y-13056024D01*
X7189876Y-13027452D01*
X7199400Y-12979833D01*
X7199400Y-12941738D01*
X7189876Y-12894119D01*
X7180352Y-12865548D01*
X7170828Y-12846500D01*
X7151781Y-12817928D01*
X7142257Y-12808405D01*
D10*
X1939400Y-13160500D02*
X1939400Y-13260500D01*
X1889400Y-13210500D02*
X1989400Y-13210500D01*
D11*
X2351781Y-13300976D02*
X2237495Y-13300976D01*
X2294638Y-13300976D02*
X2294638Y-13100976D01*
X2275590Y-13129548D01*
X2256543Y-13148595D01*
X2237495Y-13158119D01*
X2437495Y-13281928D02*
X2447019Y-13291452D01*
X2437495Y-13300976D01*
X2427971Y-13291452D01*
X2437495Y-13281928D01*
X2437495Y-13300976D01*
X2570829Y-13100976D02*
X2589876Y-13100976D01*
X2608924Y-13110500D01*
X2618448Y-13120024D01*
X2627971Y-13139071D01*
X2637495Y-13177167D01*
X2637495Y-13224786D01*
X2627971Y-13262881D01*
X2618448Y-13281928D01*
X2608924Y-13291452D01*
X2589876Y-13300976D01*
X2570829Y-13300976D01*
X2551781Y-13291452D01*
X2542257Y-13281928D01*
X2532733Y-13262881D01*
X2523210Y-13224786D01*
X2523210Y-13177167D01*
X2532733Y-13139071D01*
X2542257Y-13120024D01*
X2551781Y-13110500D01*
X2570829Y-13100976D01*
X2761305Y-13100976D02*
X2780352Y-13100976D01*
X2799400Y-13110500D01*
X2808924Y-13120024D01*
X2818448Y-13139071D01*
X2827971Y-13177167D01*
X2827971Y-13224786D01*
X2818448Y-13262881D01*
X2808924Y-13281928D01*
X2799400Y-13291452D01*
X2780352Y-13300976D01*
X2761305Y-13300976D01*
X2742257Y-13291452D01*
X2732733Y-13281928D01*
X2723210Y-13262881D01*
X2713686Y-13224786D01*
X2713686Y-13177167D01*
X2723210Y-13139071D01*
X2732733Y-13120024D01*
X2742257Y-13110500D01*
X2761305Y-13100976D01*
X2951781Y-13100976D02*
X2970828Y-13100976D01*
X2989876Y-13110500D01*
X2999400Y-13120024D01*
X3008924Y-13139071D01*
X3018448Y-13177167D01*
X3018448Y-13224786D01*
X3008924Y-13262881D01*
X2999400Y-13281928D01*
X2989876Y-13291452D01*
X2970828Y-13300976D01*
X2951781Y-13300976D01*
X2932733Y-13291452D01*
X2923209Y-13281928D01*
X2913686Y-13262881D01*
X2904162Y-13224786D01*
X2904162Y-13177167D01*
X2913686Y-13139071D01*
X2923209Y-13120024D01*
X2932733Y-13110500D01*
X2951781Y-13100976D01*
X3104162Y-13300976D02*
X3104162Y-13167643D01*
X3104162Y-13186690D02*
X3113686Y-13177167D01*
X3132733Y-13167643D01*
X3161305Y-13167643D01*
X3180352Y-13177167D01*
X3189876Y-13196214D01*
X3189876Y-13300976D01*
X3189876Y-13196214D02*
X3199400Y-13177167D01*
X3218448Y-13167643D01*
X3247019Y-13167643D01*
X3266067Y-13177167D01*
X3275590Y-13196214D01*
X3275590Y-13300976D01*
X3370828Y-13300976D02*
X3370828Y-13167643D01*
X3370828Y-13186690D02*
X3380352Y-13177167D01*
X3399400Y-13167643D01*
X3427971Y-13167643D01*
X3447019Y-13177167D01*
X3456543Y-13196214D01*
X3456543Y-13300976D01*
X3456543Y-13196214D02*
X3466067Y-13177167D01*
X3485114Y-13167643D01*
X3513686Y-13167643D01*
X3532733Y-13177167D01*
X3542257Y-13196214D01*
X3542257Y-13300976D01*
X3932733Y-13091452D02*
X3761305Y-13348595D01*
X4189876Y-13100976D02*
X4208924Y-13100976D01*
X4227971Y-13110500D01*
X4237495Y-13120024D01*
X4247019Y-13139071D01*
X4256543Y-13177167D01*
X4256543Y-13224786D01*
X4247019Y-13262881D01*
X4237495Y-13281928D01*
X4227971Y-13291452D01*
X4208924Y-13300976D01*
X4189876Y-13300976D01*
X4170828Y-13291452D01*
X4161305Y-13281928D01*
X4151781Y-13262881D01*
X4142257Y-13224786D01*
X4142257Y-13177167D01*
X4151781Y-13139071D01*
X4161305Y-13120024D01*
X4170828Y-13110500D01*
X4189876Y-13100976D01*
X4342257Y-13281928D02*
X4351781Y-13291452D01*
X4342257Y-13300976D01*
X4332733Y-13291452D01*
X4342257Y-13281928D01*
X4342257Y-13300976D01*
X4475590Y-13100976D02*
X4494638Y-13100976D01*
X4513686Y-13110500D01*
X4523210Y-13120024D01*
X4532733Y-13139071D01*
X4542257Y-13177167D01*
X4542257Y-13224786D01*
X4532733Y-13262881D01*
X4523210Y-13281928D01*
X4513686Y-13291452D01*
X4494638Y-13300976D01*
X4475590Y-13300976D01*
X4456543Y-13291452D01*
X4447019Y-13281928D01*
X4437495Y-13262881D01*
X4427971Y-13224786D01*
X4427971Y-13177167D01*
X4437495Y-13139071D01*
X4447019Y-13120024D01*
X4456543Y-13110500D01*
X4475590Y-13100976D01*
X4608924Y-13100976D02*
X4732733Y-13100976D01*
X4666067Y-13177167D01*
X4694638Y-13177167D01*
X4713686Y-13186690D01*
X4723210Y-13196214D01*
X4732733Y-13215262D01*
X4732733Y-13262881D01*
X4723210Y-13281928D01*
X4713686Y-13291452D01*
X4694638Y-13300976D01*
X4637495Y-13300976D01*
X4618448Y-13291452D01*
X4608924Y-13281928D01*
X4827971Y-13300976D02*
X4866067Y-13300976D01*
X4885114Y-13291452D01*
X4894638Y-13281928D01*
X4913686Y-13253357D01*
X4923210Y-13215262D01*
X4923210Y-13139071D01*
X4913686Y-13120024D01*
X4904162Y-13110500D01*
X4885114Y-13100976D01*
X4847019Y-13100976D01*
X4827971Y-13110500D01*
X4818448Y-13120024D01*
X4808924Y-13139071D01*
X4808924Y-13186690D01*
X4818448Y-13205738D01*
X4827971Y-13215262D01*
X4847019Y-13224786D01*
X4885114Y-13224786D01*
X4904162Y-13215262D01*
X4913686Y-13205738D01*
X4923210Y-13186690D01*
X5094638Y-13167643D02*
X5094638Y-13300976D01*
X5047019Y-13091452D02*
X4999400Y-13234309D01*
X5123210Y-13234309D01*
X5189876Y-13100976D02*
X5189876Y-13139071D01*
X5266067Y-13100976D02*
X5266067Y-13139071D01*
X5561305Y-13377167D02*
X5551781Y-13367643D01*
X5532733Y-13339071D01*
X5523210Y-13320024D01*
X5513686Y-13291452D01*
X5504162Y-13243833D01*
X5504162Y-13205738D01*
X5513686Y-13158119D01*
X5523210Y-13129548D01*
X5532733Y-13110500D01*
X5551781Y-13081928D01*
X5561305Y-13072405D01*
X5742257Y-13300976D02*
X5627971Y-13300976D01*
X5685114Y-13300976D02*
X5685114Y-13100976D01*
X5666067Y-13129548D01*
X5647019Y-13148595D01*
X5627971Y-13158119D01*
X5866067Y-13100976D02*
X5885114Y-13100976D01*
X5904162Y-13110500D01*
X5913686Y-13120024D01*
X5923209Y-13139071D01*
X5932733Y-13177167D01*
X5932733Y-13224786D01*
X5923209Y-13262881D01*
X5913686Y-13281928D01*
X5904162Y-13291452D01*
X5885114Y-13300976D01*
X5866067Y-13300976D01*
X5847019Y-13291452D01*
X5837495Y-13281928D01*
X5827971Y-13262881D01*
X5818448Y-13224786D01*
X5818448Y-13177167D01*
X5827971Y-13139071D01*
X5837495Y-13120024D01*
X5847019Y-13110500D01*
X5866067Y-13100976D01*
X6170828Y-13300976D02*
X6170828Y-13100976D01*
X6256543Y-13300976D02*
X6256543Y-13196214D01*
X6247019Y-13177167D01*
X6227971Y-13167643D01*
X6199400Y-13167643D01*
X6180352Y-13177167D01*
X6170828Y-13186690D01*
X6380352Y-13300976D02*
X6361305Y-13291452D01*
X6351781Y-13281928D01*
X6342257Y-13262881D01*
X6342257Y-13205738D01*
X6351781Y-13186690D01*
X6361305Y-13177167D01*
X6380352Y-13167643D01*
X6408924Y-13167643D01*
X6427971Y-13177167D01*
X6437495Y-13186690D01*
X6447019Y-13205738D01*
X6447019Y-13262881D01*
X6437495Y-13281928D01*
X6427971Y-13291452D01*
X6408924Y-13300976D01*
X6380352Y-13300976D01*
X6561305Y-13300976D02*
X6542257Y-13291452D01*
X6532733Y-13272405D01*
X6532733Y-13100976D01*
X6713686Y-13291452D02*
X6694638Y-13300976D01*
X6656543Y-13300976D01*
X6637495Y-13291452D01*
X6627971Y-13272405D01*
X6627971Y-13196214D01*
X6637495Y-13177167D01*
X6656543Y-13167643D01*
X6694638Y-13167643D01*
X6713686Y-13177167D01*
X6723209Y-13196214D01*
X6723209Y-13215262D01*
X6627971Y-13234309D01*
X6799400Y-13291452D02*
X6818448Y-13300976D01*
X6856543Y-13300976D01*
X6875590Y-13291452D01*
X6885114Y-13272405D01*
X6885114Y-13262881D01*
X6875590Y-13243833D01*
X6856543Y-13234309D01*
X6827971Y-13234309D01*
X6808924Y-13224786D01*
X6799400Y-13205738D01*
X6799400Y-13196214D01*
X6808924Y-13177167D01*
X6827971Y-13167643D01*
X6856543Y-13167643D01*
X6875590Y-13177167D01*
X6951781Y-13377167D02*
X6961305Y-13367643D01*
X6980352Y-13339071D01*
X6989876Y-13320024D01*
X6999400Y-13291452D01*
X7008924Y-13243833D01*
X7008924Y-13205738D01*
X6999400Y-13158119D01*
X6989876Y-13129548D01*
X6980352Y-13110500D01*
X6961305Y-13081928D01*
X6951781Y-13072405D01*
M02*
